<svg id="Layer_1" data-name="Layer 1" xmlns="http://www.w3.org/2000/svg" xmlns:xlink="http://www.w3.org/1999/xlink" viewBox="0 0 782 730.58"><defs><style>.cls-1{fill:none;}.cls-2{clip-path:url(#clip-path);}.cls-3{fill:#6CC7B8;}</style><clipPath id="clip-path" transform="translate(0 -0.21)"><rect class="cls-1" width="782" height="730.99"/></clipPath></defs><g class="cls-2"><path class="cls-3" d="M769.32,336.28l-320.1-323A43,43,0,0,0,418.33.21a37.58,37.58,0,0,0-15.55,3.35c-16.61,6.85-24.88,23.05-24.88,41.06V190.19H44.38c-24.52,0-44.38,19-44.38,43.57V482.43c0,24.5,19.86,38.71,44.38,38.71H377.9V686.35c0,18,8.16,34.15,24.73,41s33,3.14,45.71-9.51L768.77,399.08C786.11,381.79,786.53,353.7,769.32,336.28Z" transform="translate(0 -0.21)"/></g></svg>