<svg xmlns="http://www.w3.org/2000/svg" xmlns:xlink="http://www.w3.org/1999/xlink" viewBox="0 0 1187.35 1209.08"><defs><style>.cls-1{fill:url(#Degradado_sin_nombre_102);}.cls-2{fill:url(#Degradado_sin_nombre_96);}.cls-3{fill:url(#Degradado_sin_nombre_43);}.cls-4{fill:url(#Degradado_sin_nombre_66);}.cls-5{fill:url(#Degradado_sin_nombre_90);}.cls-6{fill:#1b615f;}</style><linearGradient id="Degradado_sin_nombre_102" x1="46.42" y1="939.45" x2="323.2" y2="715.87" gradientUnits="userSpaceOnUse"><stop offset="0" stop-color="#009087"/><stop offset="0.19" stop-color="#038b82"/><stop offset="0.44" stop-color="#0c7b75"/><stop offset="0.71" stop-color="#1b615f"/><stop offset="0.71" stop-color="#1b615f"/></linearGradient><linearGradient id="Degradado_sin_nombre_96" x1="700.48" y1="1103.09" x2="902.21" y2="966.97" gradientUnits="userSpaceOnUse"><stop offset="0" stop-color="#009087"/><stop offset="0.41" stop-color="#0d7a74"/><stop offset="0.96" stop-color="#1b615f"/></linearGradient><linearGradient id="Degradado_sin_nombre_43" x1="76.42" y1="54.22" x2="177.36" y2="114.92" gradientUnits="userSpaceOnUse"><stop offset="0" stop-color="#009087"/><stop offset="0.69" stop-color="#12716c"/><stop offset="1" stop-color="#1b615f"/></linearGradient><linearGradient id="Degradado_sin_nombre_66" x1="512.26" y1="31.16" x2="786.58" y2="1159.86" gradientUnits="userSpaceOnUse"><stop offset="0.45" stop-color="#ffcd38"/><stop offset="0.97" stop-color="#eab339"/></linearGradient><radialGradient id="Degradado_sin_nombre_90" cx="244.65" cy="230.65" r="84.78" gradientUnits="userSpaceOnUse"><stop offset="0" stop-color="#f5f4f5"/><stop offset="0.36" stop-color="#f1f4f4"/><stop offset="0.7" stop-color="#e5f5f3"/><stop offset="1" stop-color="#d5f7f0"/></radialGradient></defs><g id="Capa_2" data-name="Capa 2"><g id="Capa_5" data-name="Capa 5"><path class="cls-1" d="M244.92,600.44S120,773,28.46,842.37c0,0-46,29.67,43.79,132.51,0,0,37.48,40.68,95.48,39.6,0,0,49.5-15.92,125.46-128.59"/><path class="cls-2" d="M698.22,906s-21,154.52-22.9,226c-2.19,81.55,97.65,71.68,97.65,71.68s69.26,10.87,103.29-21.72c31.8-30.47,30.65-205.23,28.21-273.19"/><path class="cls-3" d="M84.74,142.87S78.54,54,113.8,4.73c0,0,5.63-10.2,18-.64s38.56,70.66,54.09,85.11"/><path class="cls-4" d="M285.31,96.46c-45.23-25.15-102-15-110.45-13.23a20.73,20.73,0,0,1-2.35.32C63.62,92.29,47.35,191.19,45,226.09a20.06,20.06,0,0,1-11,16.43C-4.77,262.58-.07,313.12.43,317.62c0,.27,0,.54.07.81C8.54,445.81,109,474.47,148,480.81a20,20,0,0,1,16.69,17.8c7.68,80.06,49,442.44,187.15,690.77a19.94,19.94,0,0,0,10.92,9.1c26.29,9.08,117.3,32.86,181.3-45.25a20,20,0,0,0,3.8-18.25c-7.72-26.72-28.92-102.61-34.32-147.5a20,20,0,0,1,21.76-22.26c60.22,5.91,225.43,20.1,310.94,7.33a20,20,0,0,1,20.33,9.81c24.58,43,111.64,185.28,191.1,191.42a20,20,0,0,0,10.12-1.88c20.42-9.76,103.24-53.91,119.59-135.06,0,0-7-.14-50.09-57.24-49-65-151.53-254.73-167.26-386.25-10.85-90.73-11.38-155.17-10.66-186.4A20,20,0,0,1,980,387.42c43.27,1.67,144.24-8.22,167.44-132.79a19.48,19.48,0,0,0,.28-4.88c-1.27-19.93-14.68-148.15-148.63-158.27a19.82,19.82,0,0,0-21.33,19c-.36,11.48,3.47,29.63,17,58.29,48.77,103.35-75.83,134.34-94.29,138.32a20.72,20.72,0,0,1-4.3.45c-27.71-.11-329.49-1.51-411-11-85.41-9.94-96.35-46.72-101.46-105.57-5.06-58.2-7-140-36.43-177.51-.51-.65-1-1.33-1.42-2C343.59,7.79,330.58-4.41,291,87.25"/><path class="cls-5" d="M164.06,214.38s.51,14,16.78,21.42c0,0,6.21,5.78,1.62,45-2.89,24.62,16.91,32.23,32,34.49a52.19,52.19,0,0,0,23.54-2c8.54-2.72,22.9-5.54,33.69,1.32,16.38,10.42,43.08,1.46,48.5-14.75,0,0,16.95-29.62-9.11-58.71,0,0-15.68-18.45-11.32-36.61s3.77-34.16-14.65-45.51-27.66-18-40.62-16.55S230,156,219.05,157.37s-11.13-3.6-22.09-2.21-23.12,24.85-27.83,33-6.28,20.23-5.1,25.19"/><path class="cls-6" d="M122.76,212.38c-.83,8.8-5.84,15.52-10,15.13-7.47-.7-8.79-8-8-16.82s5.48-15.55,11.45-15C120.41,196.09,123.58,203.58,122.76,212.38Z"/><path class="cls-6" d="M212.51,226.17c-.82,8.8-5.83,15.52-10,15.13-7.46-.7-8.78-8-8-16.82s5.48-15.55,11.46-15C210.17,209.88,213.34,217.37,212.51,226.17Z"/><ellipse class="cls-6" cx="59.03" cy="277.03" rx="18" ry="27.5" transform="matrix(0.19, -0.98, 0.98, 0.19, -224.16, 283.12)"/></g></g></svg>