<svg id="Layer_1" data-name="Layer 1" xmlns="http://www.w3.org/2000/svg" xmlns:xlink="http://www.w3.org/1999/xlink" viewBox="0 0 616.62 434.41"><defs><style>.cls-1{fill:url(#radial-gradient);}.cls-2{fill:url(#linear-gradient);}.cls-3{fill:url(#linear-gradient-2);}.cls-4{fill:url(#linear-gradient-3);}.cls-5{fill:#009087;}.cls-6{fill:url(#linear-gradient-4);}.cls-7{fill:url(#linear-gradient-5);}.cls-8{fill:url(#linear-gradient-6);}.cls-9{fill:url(#linear-gradient-7);}.cls-10{fill:url(#linear-gradient-8);}.cls-11{fill:url(#linear-gradient-9);}.cls-12{fill:#112639;}.cls-13{fill:url(#linear-gradient-10);}.cls-14{fill:url(#linear-gradient-11);}.cls-15{fill:#1b6160;}.cls-16{fill:#1d625f;}.cls-17{fill:#1e6260;}.cls-18{fill:#246660;}.cls-19{fill:#2e6a5e;}.cls-20{fill:#e3a73d;}.cls-21{fill:url(#radial-gradient-2);}.cls-22{fill:url(#linear-gradient-12);}.cls-23{fill:url(#linear-gradient-13);}.cls-24{fill:url(#linear-gradient-14);}.cls-25{fill:url(#linear-gradient-15);}.cls-26{fill:url(#linear-gradient-16);}.cls-27{fill:url(#linear-gradient-17);}.cls-28{fill:url(#linear-gradient-18);}.cls-29{fill:url(#linear-gradient-19);}.cls-30{fill:#1b615f;}.cls-31{fill:url(#linear-gradient-20);}.cls-32{fill:#86cedf;}</style><radialGradient id="radial-gradient" cx="308.31" cy="191.16" r="240.44" gradientTransform="matrix(1, 0, 0, -1, 0, 482.17)" gradientUnits="userSpaceOnUse"><stop offset="0.12" stop-color="#009087"/><stop offset="0.46" stop-color="#018d85"/><stop offset="0.67" stop-color="#06857e"/><stop offset="0.84" stop-color="#0e7772"/><stop offset="0.99" stop-color="#1a6360"/><stop offset="1" stop-color="#1b615f"/></radialGradient><linearGradient id="linear-gradient" x1="1177.79" y1="140.66" x2="1205.95" y2="140.66" gradientTransform="translate(1314.01 482.17) rotate(180)" gradientUnits="userSpaceOnUse"><stop offset="0" stop-color="#e2b034"/><stop offset="0.18" stop-color="#eab835"/><stop offset="0.64" stop-color="#fac837"/><stop offset="1" stop-color="#ffcd38"/></linearGradient><linearGradient id="linear-gradient-2" x1="1080.84" y1="186.11" x2="1241.74" y2="186.11" xlink:href="#linear-gradient"/><linearGradient id="linear-gradient-3" x1="1056.51" y1="262.04" x2="1137.42" y2="262.04" xlink:href="#linear-gradient"/><linearGradient id="linear-gradient-4" x1="1227.17" y1="223.87" x2="1257.53" y2="223.87" xlink:href="#linear-gradient"/><linearGradient id="linear-gradient-5" x1="480.99" y1="336.52" x2="474.21" y2="145" gradientTransform="matrix(1, 0, 0, -1, 0, 482.17)" gradientUnits="userSpaceOnUse"><stop offset="0" stop-color="#fecc38"/><stop offset="0.84" stop-color="#f29f41"/><stop offset="1" stop-color="#ef9543"/></linearGradient><linearGradient id="linear-gradient-6" x1="394.3" y1="348.76" x2="456.56" y2="348.76" gradientTransform="matrix(1, 0, 0, -1, 0, 482.17)" gradientUnits="userSpaceOnUse"><stop offset="0" stop-color="#a83929"/><stop offset="0.08" stop-color="#b43d2b"/><stop offset="0.3" stop-color="#cf4531"/><stop offset="0.53" stop-color="#e24a35"/><stop offset="0.76" stop-color="#ed4e37"/><stop offset="1" stop-color="#f14f38"/></linearGradient><linearGradient id="linear-gradient-7" x1="522.6" y1="275.19" x2="590.96" y2="275.19" xlink:href="#linear-gradient-6"/><linearGradient id="linear-gradient-8" x1="330.15" y1="362.11" x2="401.49" y2="362.11" xlink:href="#linear-gradient-5"/><linearGradient id="linear-gradient-9" x1="367.88" y1="219.19" x2="407.35" y2="219.19" gradientTransform="matrix(1, 0, 0, -1, 0, 482.17)" gradientUnits="userSpaceOnUse"><stop offset="0" stop-color="#e58b41"/><stop offset="0.66" stop-color="#e58d40"/><stop offset="0.9" stop-color="#e5943c"/><stop offset="1" stop-color="#e59a38"/></linearGradient><linearGradient id="linear-gradient-10" x1="319.76" y1="351.37" x2="357.54" y2="351.37" xlink:href="#linear-gradient-6"/><linearGradient id="linear-gradient-11" x1="469.55" y1="179.92" x2="515.59" y2="179.92" gradientTransform="matrix(1, 0, 0, -1, 0, 482.17)" gradientUnits="userSpaceOnUse"><stop offset="0" stop-color="#e58b41"/><stop offset="0.57" stop-color="#e68d41"/><stop offset="0.77" stop-color="#e99440"/><stop offset="0.91" stop-color="#ef9f40"/><stop offset="1" stop-color="#f5ab3f"/></linearGradient><radialGradient id="radial-gradient-2" cx="213.76" cy="358.53" r="58.52" gradientTransform="matrix(0.98, 0.2, 0.2, -0.98, -76.07, 416.77)" gradientUnits="userSpaceOnUse"><stop offset="0.48" stop-color="#2e6c93"/><stop offset="0.93" stop-color="#275b82"/></radialGradient><linearGradient id="linear-gradient-12" x1="250.85" y1="375.42" x2="322.17" y2="375.42" gradientTransform="matrix(0.98, 0.2, 0.2, -0.98, -76.07, 416.77)" gradientUnits="userSpaceOnUse"><stop offset="0" stop-color="#6cc7b8"/><stop offset="0.21" stop-color="#69c3b4"/><stop offset="0.4" stop-color="#5fb9a9"/><stop offset="0.59" stop-color="#4ea796"/><stop offset="0.62" stop-color="#4ba392"/></linearGradient><linearGradient id="linear-gradient-13" x1="227.06" y1="378.86" x2="255.77" y2="378.86" gradientTransform="matrix(0.98, 0.2, 0.2, -0.98, -76.07, 416.77)" gradientUnits="userSpaceOnUse"><stop offset="0.15" stop-color="#7bceda"/><stop offset="1" stop-color="#63bac1"/></linearGradient><linearGradient id="linear-gradient-14" x1="112.55" y1="399.94" x2="147.31" y2="399.94" gradientTransform="matrix(0.98, 0.2, 0.2, -0.98, -76.07, 416.77)" gradientUnits="userSpaceOnUse"><stop offset="0.15" stop-color="#7bceda"/><stop offset="1" stop-color="#7bceda"/></linearGradient><linearGradient id="linear-gradient-15" x1="266.07" y1="399.43" x2="297.8" y2="399.43" xlink:href="#linear-gradient-14"/><linearGradient id="linear-gradient-16" x1="233.44" y1="304.05" x2="251.9" y2="304.05" xlink:href="#linear-gradient-12"/><linearGradient id="linear-gradient-17" x1="253.45" y1="307.7" x2="270.62" y2="307.7" xlink:href="#linear-gradient-12"/><linearGradient id="linear-gradient-18" x1="185.77" y1="302.34" x2="201.13" y2="302.34" xlink:href="#linear-gradient-12"/><linearGradient id="linear-gradient-19" x1="202.95" y1="302.22" x2="217.18" y2="302.22" xlink:href="#linear-gradient-12"/><linearGradient id="linear-gradient-20" x1="128.52" y1="372.61" x2="150.76" y2="372.61" xlink:href="#linear-gradient-12"/></defs><g id="Capa_2" data-name="Capa 2"><path class="cls-1" d="M172,147.6h0C-89.25,165.93,10.17,334.31,65.43,368.12c15.84,9.69,21.84,13.69,34.77,20,71.14,34.45,368.77,81.26,345.19,6-27.12-86.75,107.88-31.18,164.33-127.93S358,153.5,358,153.5Z"/></g><g id="Capa_1" data-name="Capa 1"><path class="cls-2" d="M133.84,320.23s3.54,26.78,2,33.35-5.06,8.59-7.58,9.1-7.58-.51-11.63-11.12-8.56-28.75-8.56-28.75"/><path class="cls-3" d="M229.85,256.05s11.63,54.58-8.59,102.58c0,0-15.16,16.17-17.18-5.56V335.39s-6.57,2.53-10.61,1c0,0-1,29.31-10.61,30.32s-10.11-6.57-10.11-9.6v-25.3s-30.32,11.62-68.21-4.55c0,0,9.09,30.32,2.52,34.87S93.92,368.7,87.86,352s-19.2-43-14.65-62.65,13.13-50.54,53.05-60.14c0,0,20.22-8.08,61.15-1"/><path class="cls-4" d="M250.57,208.05s12.63-11.12,1-22.74c0,0-13.14-9.6-20.72,6.06,0,0-18.69-5.05-32.34,9.1,0,0-11.11-11.12-19.7.51s10.61,20.71,10.61,20.71-7.58,12.64,0,24.26,26.78,14.15,40.42,10.1,23.75-15.15,25.77-20.21,3-12.13,0-18.69Z"/><path class="cls-5" d="M222,226.13s1.45,6.89.63,8.8"/><path class="cls-5" d="M220.51,226.53c.08.37.15.74.22,1.1l.18,1.09.12.72a1.4,1.4,0,0,0,0,.29v.08c0,.49.13,1,.17,1.5s.07.9.09,1.35,0,.84,0,1.27v.16a3.22,3.22,0,0,1-.14.44,1.51,1.51,0,0,0,1,1.85,1.57,1.57,0,0,0,1.85-1,6.63,6.63,0,0,0,.3-2.58,28.66,28.66,0,0,0-.26-2.94c-.18-1.36-.39-2.73-.68-4.08a1.5,1.5,0,0,0-1.84-1,1.54,1.54,0,0,0-1,1.85Z"/><path class="cls-5" d="M234,212.81c-.45-2.56-1.76-3.87-3-3.64s-2,1.91-1.6,4.47,1.66,3.3,2.94,3.07S234.47,215.38,234,212.81Z"/><path class="cls-5" d="M210.88,217.19c-.46-2.56-1.76-3.87-3-3.65s-2.05,1.91-1.59,4.48,1.66,3.29,2.94,3.06S211.33,219.75,210.88,217.19Z"/><path class="cls-5" d="M215.2,225.23c.27,2.13,3.53,2.64,7.27,2.16s6.65-2,6.37-4.18-3.84-3.51-7.58-3S214.93,223.1,215.2,225.23Z"/><path class="cls-6" d="M86.85,254.54S70.17,230.28,59.56,247s9.6,26.78,9.6,26.78,4.55,2.53,8.09,1.52"/><path class="cls-7" d="M446.93,117.13c5.51,2.34,11.06,4.61,16.53,7.05,20.36,9.06,40.57,18.41,59.24,30.73,1.72,3.82,5.13,6.27,7.69,9.4C538.7,174.49,544.22,186,546.16,199c1.82,12.14,3.85,24.3,3.19,36.67-.21,3.86-.38,7.72-.42,11.58a19,19,0,0,0,2.77,10.47c.53.86,1.21,1.73.84,2.87a21.77,21.77,0,0,0,.81,5.5c.95,1.29,1,2.86,1.22,4.34a194.18,194.18,0,0,0,4.7,24c1.62,5.77,3.3,11.54,5.11,17.27,2.26,7.19,4.81,14.28,7.22,21.42,2.21,6.54.78,11.17-5.77,16.14-5.74,4.35-12.45,6.11-19.56,6.6a50.34,50.34,0,0,1-10.12.09c-9.6-1.28-15.77-6.77-19.55-15.36-.5-1.13-1-2.28-1.54-3.39a305.84,305.84,0,0,1-10.45-33.6c-2.4-9.37-5.7-18.47-8.45-27.74-.89-3-1.8-6-2.45-9-.4-1.81-1.24-2.47-3-2.27-7.09.81-14.21.21-21.31.43-3.45-.06-6.88-.46-10.34-.52-1.75,0-2,.56-1.77,2,.9,5.94,1.7,11.89,2.25,17.88.25,2.68.4,5.37.54,8a221.81,221.81,0,0,1-.19,28.94c-.51,6.42-1.21,12.78-2.16,19.13a56.13,56.13,0,0,1-1.68,7c-2,7-6.8,11-13.82,12.51a41.8,41.8,0,0,1-13.8.31,88.76,88.76,0,0,1-14.23-2.45,35.85,35.85,0,0,1-9.16-4.3,7.11,7.11,0,0,1-3.2-6c-.22-4.06-.49-8.14.38-12.18a21.07,21.07,0,0,0,.31-4.12c.16-7.38.86-14.73,1.11-22.1.23-6.77,1-13.49,1.42-20.23.62-9.1.57-18.21.91-27.3.22-5.92-.07-11.88.71-17.78.3-2.26-.69-3.55-2.74-4.47a74.8,74.8,0,0,1-9.27-5.05c-5-3.1-7.67-7.71-9.11-13.11-2.38-9-3.52-18.15-4.58-27.34a11,11,0,0,1,.06-2.69,3.51,3.51,0,0,1,1.38-2.23A83.06,83.06,0,0,0,401,166c.42-.75.75-1.68,1.84-1.78.77.24.89,1,1.23,1.58,2.86,4.81,5.69,9.65,9.92,13.46,3.08,2.77,6.52,4.63,10.8,4.52a8.11,8.11,0,0,0,6.9-3.5c1.81-2.58,1.9-2.51,4.43-.52,2.38,1.87,5.23,1.53,6.35-1.32,1.24-3.19,3-4.38,6.45-4.66,4.91-.41,7.71-5.58,7-10.74-1.53-11.78-6.8-21.93-13.82-31.3-2.32-3.09-4.77-6.09-7-9.22-.64-.88-1.44-1.73-1.06-3,.92-1.69,2-3.32,1.76-5.4-.1-1.06.76-1.37,1.53-1.08C440.57,114.27,444,115.19,446.93,117.13Z"/><path class="cls-8" d="M434.21,119.81c1.07,2.91,3.22,5.13,5.13,7.43a81.47,81.47,0,0,1,14.75,25.48c1.69,4.92,3.41,9.93,1.89,15.31a9.1,9.1,0,0,1-9.53,6.62,1.72,1.72,0,0,0-2.15,1.14.29.29,0,0,0,0,.09c-.4,1-.76,1.93-1.25,2.84-1.72,3.22-4.88,3.81-7.49,1.25-1.29-1.26-2.08-1.78-3.14.18-3,5.55-10.68,4.91-15.28,2.16-5-3-8.24-7.67-11.27-12.48-1.14-1.81-2.14-3.69-3.21-5.54a18.35,18.35,0,0,1-2.42-5c-2.18-5.69-3.39-11.65-4.83-17.54-.42-4-.6-8-1.06-12a32.52,32.52,0,0,1,.38-6.39,198.75,198.75,0,0,1,4.79-33.19c.34-1.4.68-2.85,2-3.76,4.13-5.7,10.95-4.61,14.85-.68a34.05,34.05,0,0,1,6.59,10.15,5.54,5.54,0,0,0,1,2,.9.9,0,0,1,.76.85c.57,3.65,2.67,6.72,3.79,10.18a37.8,37.8,0,0,0,5.23,9.76A1.74,1.74,0,0,1,434.21,119.81Z"/><path class="cls-9" d="M552.54,260.58c-1.33-2.93-3.32-5.54-3.84-8.86a56.5,56.5,0,0,1-.19-12.4,107.69,107.69,0,0,0-.66-23.12c-.93-6.06-1.26-12.2-2.38-18.23a72.06,72.06,0,0,0-15-32.56c-2.17-2.68-4.55-5.19-6.91-7.7a2.89,2.89,0,0,1-.88-2.8c11.51-6.1,23.1-7.19,34.68-.3,5.7,3.38,8.83,8.89,11,14.89A116.5,116.5,0,0,1,574,193,158.4,158.4,0,0,0,583,227.37c2.35,6.26,5.06,12.39,6.88,18.84.65,2.31,1.46,4.62.83,7.1-.82,3.22-2.44,4.09-5.52,2.87-.57-.22-1.12-.5-1.79-.81-.62,2,0,4.68-2.75,5.21-2.27.43-4-.95-5.79-2.48-.31.74-.54,1.29-.78,1.84-1.58,3.68-4.64,4.51-7.56,1.83-1.25-1.14-1.82-1-2.91.09-2.83,2.87-5.89,2.92-9,.42C553.89,261.72,553.46,260.86,552.54,260.58Z"/><path class="cls-10" d="M359.27,98.81c-1.2-.18-1.87,1.78-3,1a17.42,17.42,0,0,1,1.2-4.26,35.63,35.63,0,0,1,12.94-14.46c7.82-5,15.55-4.12,23.37-.2a38.84,38.84,0,0,1,7.71,5.54c-2.66,6.87-3.52,14.12-4.58,21.33A197.88,197.88,0,0,0,395,128.1c-.18,4,.53,8.09.89,12.14,0,.56.24,1.07-.16,1.56-.08.93-.77,1.42-1.4,1.95a92.46,92.46,0,0,1-29.17,16.39c-.57.2-1.13.57-1.77.19a72.2,72.2,0,0,1-12.55,2c-6.86.79-15.07-3.69-18.34-9.67a18.7,18.7,0,0,1-2.07-12.35,4.18,4.18,0,0,1,.75-2.12c2.64-.52,3.29-.06,3.63,2.59.07.54,0,1.35.6,1.4.89.06.77-.85.77-1.41,0-1.56.82-2.17,2.27-2.38a7.34,7.34,0,0,0,4.2-2.1c3.15-3.16,2.07-7.26-2.24-8.49-1.27-.37-2.61-.27-3.89-.57-.75-.9,0-1.51.45-2.13a36,36,0,0,1,4.12-4.61c4.93-4.81,9.75-9.72,13-15.91a1.51,1.51,0,0,1,1-.92c.6.16.69.68.83,1.16.85,2,2.1,2.21,3.39.54a6.57,6.57,0,0,0,.94-6.21"/><path class="cls-11" d="M402.71,335.39c-5.37-.48-10.33-2.35-15.22-4.47s-9.72-4.25-14.06-7.42a9.78,9.78,0,0,1-4-6.45,62.56,62.56,0,0,1-1.54-15c.17-4.73,1.49-9.25,2.25-13.87,1.56-9.52,3.17-19,4.75-28.55a8.34,8.34,0,0,0,0-1,100.5,100.5,0,0,0,2.45-14,180.56,180.56,0,0,0,.44-21.32c-.14-4.53-.77-9.06-1.17-13.59q-.48-5.44-.93-10.91c-.1-1.09,0-2.23-.87-3.11a16.2,16.2,0,0,1,6.74-5.14,81.31,81.31,0,0,0,1.72,15.08c.93,5.13,1.53,10.3,2.86,15.36,1.93,7.29,6.61,12.06,13.16,15.3,2.16,1.08,4.3,2.22,6.5,3.22a2.3,2.3,0,0,1,1.57,2.56c-.65,6.23-.2,12.52-.78,18.76a79.74,79.74,0,0,0,0,9.53c.12,7-.57,13.9-.91,20.84-.28,5.82-1,11.62-1.25,17.46-.34,8.31-1.19,16.6-1.17,24.93A3.78,3.78,0,0,1,402.71,335.39Z"/><path class="cls-12" d="M434.21,119.81c-2.18-2-3.42-4.61-4.59-7.21-2.17-4.78-4.4-9.56-5.66-14.7a20.46,20.46,0,0,1,.26-5.58c.29-1.5.87-2,2.36-.94,4.43,3.23,6.29,7,6.63,13.84.62-.39,1.21-.7,1.74-1.1,3-2.22,6-1.91,9.19-.51,1.78.79,2.16,1.91,1.25,3.57-.23.42-8.12,5.28-8.38,5.81"/><path class="cls-12" d="M381.56,190.52l-6.75,5.15c-1.62.9-3.22,1.86-4.88,2.68-1,.48-2,.67-2.48-.8-2-6-4.31-11.92-6.09-18a24.55,24.55,0,0,1,2-19.23c5.34-2.18,10.78-4.13,15.86-6.88a92.65,92.65,0,0,0,16.52-11.63c1.27,1.83,1.15,4,1.65,6.07a83.33,83.33,0,0,0,4.88,14.83,2.57,2.57,0,0,1,.38,1.58C397.33,174.41,390,182.92,381.56,190.52Z"/><path class="cls-13" d="M355.06,103.86c-3.51,7.3-9.33,12.75-14.89,18.39a30.58,30.58,0,0,0-3.83,4.59c-.12.78-.79.65-1.29.72-.82.1-1.63.25-2.45.37-4.59.63-4.75,5.46-2.66,7.89.61.71,1.53,1.25,1.5,2.37-1.08,4.89-1.09,9.56,1.49,14.18,2.15,3.85,5.34,6.13,9.15,8,2.81,1.34,5.86,1.31,8.77,2,.62,3.27-2,7.81-5,8.85a3.77,3.77,0,0,1-4.8-1.77c-.47-.75-.82-1.57-1.36-2.62a17.08,17.08,0,0,1-3.6,3.7c-3.56,2.43-6.55,1.79-8.62-2a16.43,16.43,0,0,1-1.78-8.81c0-1.28,0-2-1.7-1.73-2,.29-3.26-1.21-3.77-3.84a30.94,30.94,0,0,1,.1-10.73,109.63,109.63,0,0,1,18.43-46.95,19.82,19.82,0,0,1,5-5.21c3.7-2.55,7.25-2.29,10.51.81,1.14,1.09,2.17,2.29,3.26,3.45l.06.92c.12.82-2.24,1.36-.27,2.39a1.69,1.69,0,0,1,.15,1.15,9.14,9.14,0,0,1-1.1,2.71A4.35,4.35,0,0,1,355.06,103.86Z"/><path class="cls-14" d="M515.59,337a50.6,50.6,0,0,1-29.25,2.42,15.62,15.62,0,0,1-12.66-14.28,244.29,244.29,0,0,1-.53-25.24,171.15,171.15,0,0,0-3-32.1c-.2-1.15-.43-2.29-.65-3.44h16.59c2.08,0,4.09-.65,6.18-.45.93.09,1.52.27,1.71,1.35.84,4.9,2.48,9.59,3.9,14.33,2.61,8.7,5.69,17.29,7.9,26.09A320.88,320.88,0,0,0,515.59,337Z"/><path class="cls-15" d="M331.44,138.19c-1.4-1.31-2.81-2.59-3.22-4.63-.61-3.05.68-5.3,3.67-6,1.46-.35,3-.49,4.45-.72a14,14,0,0,1,4.5.52c2.23.77,4,2.1,4.23,4.6s-1.12,4.47-3.21,5.84a5.9,5.9,0,0,1-1.91.79c-1.91.41-4,.53-3.31,3.49.15.63-.46,1.14-1.2,1.12s-1.08-.53-1.16-1.23a.94.94,0,0,1,0-.41C334.85,139.16,333.41,138.46,331.44,138.19Z"/><path class="cls-16" d="M370.4,105.09a9.87,9.87,0,0,1,.88-3.62c.51-1,1.18-2,2.47-1.83A2.79,2.79,0,0,1,376,102a8.3,8.3,0,0,1-1.8,6.36,1.69,1.69,0,0,1-2.21.53C370.61,108.26,370.27,107.05,370.4,105.09Z"/><path class="cls-17" d="M356,102.56l1-2.47c1-1.3,2.12-1.86,3.65-.92a6.49,6.49,0,0,1-1.78,7.57c-1.52,1.12-2.7.56-3.35-1.59C355.94,104.34,355.15,103.3,356,102.56Z"/><path class="cls-18" d="M372.93,92.55c-.12-1,.1-1.7,1.06-1.4A11,11,0,0,1,379.31,95a1.11,1.11,0,0,1,0,1.36.86.86,0,0,1-1.11.3C376.14,95.59,374.92,93.49,372.93,92.55Z"/><path class="cls-19" d="M359.12,92.81c-.56-.1-1.37.32-1.61-.46s.59-1.09,1.14-1.43c.28-.18.59-.33.88-.49a14.35,14.35,0,0,1,4.85-.14c1.22.26,1.88.85.92,2.1A30.55,30.55,0,0,1,359.12,92.81Z"/><path class="cls-20" d="M356,102.56c-.15.86-.31,1.72-.47,2.59-.14-.43,0-1-.43-1.29C355.27,103.35,355.36,102.81,356,102.56Z"/><path class="cls-21" d="M141.9,80c.73-3.45,1.39-6.86,4.17-9.5,6.9-6.56,19.08-7.22,27.15-1,.58.45,1,1.17,1.86,1.26a44.69,44.69,0,0,1,4.47-8.1c6.49-8.84,15.73-8.31,21.13,1.19.73,1.29,1.38,2.62,2.19,4.17a21.16,21.16,0,0,1,11.4-6.91,3,3,0,0,1,2.61,1,75.94,75.94,0,0,0,13.43,9.32,3.91,3.91,0,0,1,1.82,1.75c.18,1.69-1.24,2.38-2.14,3.37-5.68,6.2-9.3,13.24-9.48,21.86-.13,5.64,1.65,8.52,7,10.27a2.69,2.69,0,0,1,2.1,2.15c.49,2.76,1.65,4.82,4.79,5.19s4.61-1.72,6-3.95a4.49,4.49,0,0,1,.37-.52c1.17-1.46,2.38-1.21,3.53,0s2.28,2.56,3.35,3.89c4.54,5.66,10.6,8.83,17.45,10.75,1.36.38,3.13.23,3.46,2.24,0,4.85-2.77,7.89-6.72,10-1.42.76-2,1.38-1.7,3.08.77,4.18-2,6.67-4.74,9.13a31.35,31.35,0,0,1-2.81,2.08,4.23,4.23,0,0,1-2.47,1.88c-4.35,1.33-11.52-.91-14.43-4.54L234.32,149c-1.58-1.18-2.21.16-3,1.11-2.92,3.42-5.93,6.78-10.73,7.41-2.23.3-4.6,1.09-6.64-.73-5.5-1.92-9.82-5.22-12.42-10.57-1.25-2.59-2.25-.06-3.36.22-3.48,4-10.08,5.49-13.68,3.16l-2.9-1.89c-2.2-1.15-3.29-3.21-4.37-5.51-3.24,1.32-5.86,4.28-9.74,3.88a14.39,14.39,0,0,1-18.17-14.43c.08-1.34-.36-1.8-1.58-2.24-7.53-2.75-11.72-8.52-13-16.09-1.24-7.3,1.18-13.6,7.61-17.76,2.28-1.47.35-2.73.36-4.08C140.86,87.68,140.34,83.91,141.9,80Z"/><path class="cls-22" d="M268.59,128.31c-2.76-1.7-6.06-1.65-9-3.06a40.74,40.74,0,0,1-15.2-12.44c-.66-.87-1.38-2.79-3.11-1.06-.64-1-.22-1.83.12-2.73,2.54-6.79,4.73-13.7,7.58-20.37a16,16,0,0,0,1.38-6.85c0-1.17,0-2.39,1.32-3,3.58-2.25,7.5-1.92,11.43-1.51,1.67-1.09,3.21-.63,4.79.3a19.2,19.2,0,0,1,7.45,7.79c3.43,6.73,9.25,10.41,15.84,13.27a50.8,50.8,0,0,0,20.29-.56,1.85,1.85,0,0,1-.21,1.72c-1.53,3.19-1.12,6,1.72,8.22.49.39,1,.8.87,1.56-1.51-.14-2.26,1-3.2,1.84A61.4,61.4,0,0,1,275.27,128C273.05,128.29,270.81,128.22,268.59,128.31Z"/><path class="cls-23" d="M232,73.29l6.51-3.56c7.43-1.44,10.69,3.2,13.15,9,.19,10.21-6.33,18.46-8.2,28.07-.34,1.78-2,3-2.2,4.9-1.95,4.24-4.17,5.82-7.41,5.2-3-.57-4.62-2.44-5-5.48-.11-.88.53-2.07-1.4-2.2-4.3-.29-6.77-2.66-7.54-7.26-.93-5.54.24-10.85,2.5-15.94A38.9,38.9,0,0,1,232,73.29Z"/><path class="cls-24" d="M125.07,66.12A13.12,13.12,0,0,1,121.8,59c-.12-1.45-.91-2-2.26-2.59-4.23-1.91-8.79-8.93-5.36-14.82a7,7,0,0,1,5.27-3.74,3.55,3.55,0,0,0,3.24-2.47c1-2.47,2.69-4.58,5.63-4.53s5.92,1,7.38,4.17a6,6,0,0,0,4.15,3.37c4.44,1.35,6.67,4.91,5.2,9.69-.35,1.13-.91,2.09,0,3.52,2.6,4.3.79,9.18-4.05,10.35a6.35,6.35,0,0,0-4.87,3.8c-.43.88-1.51,1.46-2.29,2.18C130.58,70.11,127.34,69.45,125.07,66.12Z"/><path class="cls-25" d="M291.19,98.59a21.26,21.26,0,0,1-14-9C274.57,86,272.78,81.84,269,79.2c-1.78-1.23-3.54-2.29-5.81-1.94,1.42-2,1.55-4.42,2.1-6.69,1.64-6.82,6.55-8.94,12.55-5.42,7.09,4.17,10.08,11.38,13.55,18.24-1.28,4.14,1.35,8.71-1.21,12.64C288.94,97.81,290.57,97.81,291.19,98.59Z"/><path class="cls-26" d="M214,156.68c7.48,1.46,12.91-1.72,17-7.67,1.25-1.81,2.18-2.24,3.39-.12-2,.16-1.54,1.86-1.66,3-.9,8.64-3,17.06-4.6,25.58a17.41,17.41,0,0,1-2.41,6.25c-2.67,4.12-7.46,4.22-10.35.25-3.27-4.5-3.11-9.66-2.57-14.8C213.19,165,214,160.87,214,156.68Z"/><path class="cls-27" d="M235.72,149.94c5.24,3.39,10.65,5.69,16.9,2.66-1.28,6.52-2.57,13-3.83,19.55a19.23,19.23,0,0,1-2.11,5.69c-1.91,3.45-4.58,4.83-7.87,4.14s-5.49-3.36-6-7c-.62-4.76.29-9.37,1.14-14C234.64,157.31,235.9,153.74,235.72,149.94Z"/><path class="cls-28" d="M167.49,146a34.07,34.07,0,0,0,8.42-4.22c.84-.62,1.63-1.18,2.14.29.75,2.13,2.54,3.6,3.55,5.56-1,7.19-2,14.38-3.1,21.56-.67,4.55-2.51,6.86-5.35,6.93-3,.08-5.83-2.6-6.72-6.67-1.35-6.19-.34-12.33.61-18.46C167.27,149.31,168.19,147.71,167.49,146Z"/><path class="cls-29" d="M184.5,149.49c5.09,1.21,9.45-.7,13.68-3.16-.28,8.18-2.79,16-3.6,24.12-.29,3-2.29,5-4.77,6.53-3.94,2.42-8.22.24-8.62-4.37a44.81,44.81,0,0,1,1.24-13.7Z"/><path class="cls-30" d="M313.89,109.62c-5-3.47-5.58-6-2.41-11.59L313.9,96c2.9-2.46,5.86-2.83,8.44-1.06,2.38,1.62,3.3,5.42,2.1,8.66C322.74,108.12,319.27,110.13,313.89,109.62Z"/><path class="cls-31" d="M125.07,66.12a8.78,8.78,0,0,0,8.73,1.77c1.94,4.54,4.08,9,8.1,12.1a71.08,71.08,0,0,0,.8,11.38,40,40,0,0,1-17.58-24A4.75,4.75,0,0,1,125.07,66.12Z"/><path class="cls-30" d="M260.89,102A2.55,2.55,0,0,1,259,104.2c-1.31.46-2.09-.28-2.81-1a6.58,6.58,0,0,1-1.76-4.06c-.14-1.84.4-3.92,2.45-4.39,1.88-.43,2.65,1.34,3.31,2.86A6.37,6.37,0,0,1,260.89,102Z"/><path class="cls-30" d="M266.52,99c-2.25-.49-3.74-3.47-3.16-6.13.34-1.52,1.08-2.25,2.69-1.91,2.05.42,4.15,4.17,3.65,6.4C269.27,99.24,268,99.32,266.52,99Z"/><path class="cls-32" d="M41.89,291.31c-5.42-5.56-9.63-12-10.88-19.58l-.06-.41c-.08-.48.05.46,0,0s-.07-.62-.1-.93c-.06-.71-.09-1.43-.1-2.14a29.54,29.54,0,0,1,.19-3.52c0-.48-.11.61,0-.21l.12-.67c.09-.51.2-1,.32-1.51a19.12,19.12,0,0,1,.68-2.23c.11-.31.24-.61.35-.92s-.37.8-.1.24l.15-.31a4.48,4.48,0,0,1,.29-.58c1.93-3.35-3.26-6.38-5.18-3a22.43,22.43,0,0,0-2.47,7.81,33.12,33.12,0,0,0,3,19.1,48.94,48.94,0,0,0,9.48,13.14c2.7,2.77,7-1.47,4.24-4.24Z"/><path class="cls-32" d="M54.27,278.81a44.08,44.08,0,0,1-5.8-8.42,17.16,17.16,0,0,1-1.34-3.12,27.37,27.37,0,0,1-.8-3.21c-.12-.59,0,.48,0-.1a2.76,2.76,0,0,0,0-.64V262c0-.43.06-.79.08-1.19s-.14.64,0,.12a2.78,2.78,0,0,1,.1-.55,14.19,14.19,0,0,1,.49-1.69c.19-.61-.35.66,0-.1.11-.2.2-.39.31-.58a7.16,7.16,0,0,0,.56-.87c-.13.4-.56.66-.18.27,2.7-2.77-1.54-7-4.24-4.24a11.29,11.29,0,0,0-2.66,5.17c-1.18,4.72,0,9.55,2,13.87a47.7,47.7,0,0,0,7.32,10.82,3,3,0,0,0,4.24,0,3.08,3.08,0,0,0,0-4.24Z"/><path class="cls-32" d="M62.19,200.26a44.16,44.16,0,0,1,12.9-1.44c.92.05,1.85.12,2.78.24-.53-.07.48.07.65.1.47.08.94.17,1.4.27a29.82,29.82,0,0,1,4.51,1.32L85,201c.42.16-.46-.2-.06,0l.95.43c.6.29,1.19.59,1.76.92a31.27,31.27,0,0,1,3,2c-.74-.54,0,0,.16.14l.59.49c.36.32.71.64,1,1,.56.55,1.1,1.13,1.61,1.74.12.13.23.28.34.41.42.49-.45-.64-.12-.16.14.21.3.41.44.61a6,6,0,0,1,.36.57c1.91,3.35,7.1.33,5.18-3a22.31,22.31,0,0,0-5.41-6,33.3,33.3,0,0,0-18.17-7.07A48.9,48.9,0,0,0,60.6,194.6c-3.74.93-2.16,6.72,1.6,5.78Z"/><path class="cls-32" d="M65.4,215.57a44.36,44.36,0,0,1,10.1-.73,17.9,17.9,0,0,1,2.06.18c-.57-.07.25,0,.42.07.35.06.68.12,1,.2a22.86,22.86,0,0,1,3.1.91c.65.24-.34-.18.13.05l.52.25q.6.3,1.2.66a9.06,9.06,0,0,0,1,.65c.09,0-.54-.46-.06,0l.38.33c.47.42.85.89,1.28,1.35s-.42-.62-.2-.26l.2.3c.13.19.25.38.37.58s.18.35.28.53c.33.61-.19-.33-.11-.28s.11.29.13.37c1,3.72,6.81,2.14,5.79-1.59a11.72,11.72,0,0,0-3.14-4.91c-3.44-3.36-8.17-4.76-12.84-5.23a46.69,46.69,0,0,0-13.19.83,3,3,0,0,0-2.09,3.69,3.06,3.06,0,0,0,3.69,2.09Z"/><path class="cls-32" d="M83.54,67.45a44.8,44.8,0,0,1-5.84-11.7,27.17,27.17,0,0,1-1.42-9.46c0-.64,0-1.27.1-1.9a7.65,7.65,0,0,1,.11-1c-.08.69.06-.38.09-.56a26.6,26.6,0,0,1,.82-3.42c.15-.49.32-1,.5-1.44.08-.23.2-.46.27-.7s-.13.31-.13.3c.08-.16.14-.32.22-.48.32-.7.67-1.4,1.06-2.07a17,17,0,0,1,1-1.5c.55-.78-.39.47,0,0a3.1,3.1,0,0,0,0-4.24,3,3,0,0,0-4.24,0A23.47,23.47,0,0,0,72,37a32.44,32.44,0,0,0-.48,18.82,48.81,48.81,0,0,0,6.88,14.68,3.08,3.08,0,0,0,4.11,1.08,3,3,0,0,0,1.08-4.1Z"/><path class="cls-32" d="M100.19,61.25A43.77,43.77,0,0,1,96,52a29.27,29.27,0,0,1-.87-3.79c-.1-.6,0-.15,0,0v-.4A4,4,0,0,0,95,47c0-.52-.05-1,0-1.58s0-.88.08-1.33-.11.53,0,0c0-.23.08-.45.13-.68.15-.74.49-1.44.63-2.17,0-.18-.31.64-.06.15.07-.13.12-.27.19-.4s.27-.51.42-.76.28-.43.43-.65c.38-.59-.5.55,0,0,.23-.26.46-.5.71-.75.49-.49-.1.07-.26.19a3.1,3.1,0,0,0,1-4.19,3,3,0,0,0-4.1-1.07c-5.72,4-5.91,12.39-4.36,18.5a48,48,0,0,0,5.18,12c1.93,3.34,7.12.32,5.18-3Z"/><path class="cls-32" d="M128.44,7.33a44.16,44.16,0,0,1,12.9-1.44c.93.05,1.86.12,2.78.24l.66.1c.46.08.93.17,1.39.27a29.82,29.82,0,0,1,4.51,1.32l.57.22c.41.16-.46-.2-.06,0l.95.43c.59.28,1.18.59,1.76.92a31.27,31.27,0,0,1,3,2c-.73-.54,0,0,.17.14l.58.49a14,14,0,0,1,1,1,22.23,22.23,0,0,1,1.62,1.74l.34.41c.41.49-.46-.64-.12-.16.14.21.29.41.43.61a6,6,0,0,1,.36.57c1.92,3.35,7.1.33,5.18-3a22.31,22.31,0,0,0-5.41-6A33.3,33.3,0,0,0,142.93.12a48.84,48.84,0,0,0-16.06,1.55c-3.75.93-2.16,6.71,1.59,5.78Z"/><path class="cls-32" d="M128.65,22.64a43.8,43.8,0,0,1,10.1-.73,17.71,17.71,0,0,1,2.06.18c-.57-.07.25,0,.43.07l1,.19a24.3,24.3,0,0,1,3.09.92c.65.24-.33-.18.13.05l.53.25c.4.2.8.42,1.19.66a9.92,9.92,0,0,0,1,.65c.1.05-.54-.46-.06,0l.38.33c.44.43.87.88,1.28,1.35s-.41-.62-.2-.26c.06.1.14.19.21.29s.25.39.36.59l.28.53c.33.61-.19-.33-.1-.28s.1.29.13.37c1,3.72,6.8,2.14,5.78-1.59a11.53,11.53,0,0,0-3.14-4.91c-3.43-3.36-8.17-4.76-12.83-5.24a47.07,47.07,0,0,0-13.19.84A3,3,0,0,0,125,20.58h0a3.06,3.06,0,0,0,3.69,2.09Z"/></g></svg>