<svg id="Capa_1" data-name="Capa 1" xmlns="http://www.w3.org/2000/svg" xmlns:xlink="http://www.w3.org/1999/xlink" viewBox="0 0 803.85 808.62"><defs><style>.cls-1{fill:url(#linear-gradient);}.cls-2{fill:url(#radial-gradient);}.cls-3{fill:url(#linear-gradient-2);}.cls-4{fill:url(#linear-gradient-3);}.cls-5{fill:url(#linear-gradient-4);}.cls-6{fill:url(#linear-gradient-5);}.cls-7{fill:url(#linear-gradient-6);}.cls-8{fill:url(#linear-gradient-7);}.cls-9{fill:url(#linear-gradient-8);}.cls-10{fill:url(#linear-gradient-9);}.cls-11{fill:url(#linear-gradient-10);}.cls-12{fill:url(#linear-gradient-11);}.cls-13{fill:url(#linear-gradient-12);}.cls-14{fill:url(#linear-gradient-13);}.cls-15{fill:url(#linear-gradient-14);}.cls-16{fill:#112639;}.cls-17{fill:#142a3c;}.cls-18{fill:#206564;}.cls-19{fill:#f3eceb;}.cls-20{fill:#c1c7cc;}.cls-21{fill:#ccd0d5;}.cls-22{fill:#cbebf0;}.cls-23{fill:#7bcdd9;}.cls-24{fill:url(#linear-gradient-15);}.cls-25{fill:#71beca;}.cls-26{fill:#13293c;}.cls-27{fill:#142a3d;}.cls-28{fill:url(#linear-gradient-16);}.cls-29{fill:#192739;}.cls-30{fill:#8f3d38;}.cls-31{fill:#fed14d;}</style><linearGradient id="linear-gradient" x1="378.61" y1="286.63" x2="750.95" y2="286.63" gradientTransform="matrix(1, 0, 0, -1, 0, 805.52)" gradientUnits="userSpaceOnUse"><stop offset="0.15" stop-color="#7bceda"/><stop offset="0.21" stop-color="#78cbd6"/><stop offset="0.7" stop-color="#61babe"/><stop offset="1" stop-color="#59b3b5"/></linearGradient><radialGradient id="radial-gradient" cx="401.92" cy="100.22" r="293.44" gradientTransform="matrix(1, 0, 0, -1, 0, 805.52)" gradientUnits="userSpaceOnUse"><stop offset="0" stop-color="#009087"/><stop offset="1" stop-color="#1b615f"/></radialGradient><linearGradient id="linear-gradient-2" x1="287.57" y1="512.72" x2="451.03" y2="512.72" gradientTransform="matrix(1, 0, 0, -1, 0, 805.52)" gradientUnits="userSpaceOnUse"><stop offset="0.15" stop-color="#7bceda"/><stop offset="1" stop-color="#63bac1"/></linearGradient><linearGradient id="linear-gradient-3" x1="126.63" y1="264.93" x2="202.74" y2="264.93" gradientTransform="matrix(1, 0, 0, -1, 0, 805.52)" gradientUnits="userSpaceOnUse"><stop offset="0" stop-color="#6cc7b8"/><stop offset="0.21" stop-color="#69c3b4"/><stop offset="0.4" stop-color="#5fb9a9"/><stop offset="0.59" stop-color="#4ea796"/><stop offset="0.62" stop-color="#4ba392"/></linearGradient><linearGradient id="linear-gradient-4" x1="676.75" y1="467.58" x2="784.18" y2="467.58" gradientTransform="matrix(1, 0, 0, -1, 0, 805.52)" gradientUnits="userSpaceOnUse"><stop offset="0" stop-color="#1f5972"/><stop offset="0.51" stop-color="#193f54"/><stop offset="0.78" stop-color="#153347"/><stop offset="1" stop-color="#112639"/></linearGradient><linearGradient id="linear-gradient-5" x1="363.71" y1="200.66" x2="430.9" y2="200.66" xlink:href="#linear-gradient-4"/><linearGradient id="linear-gradient-6" x1="44.72" y1="247.83" x2="121.98" y2="247.83" xlink:href="#linear-gradient-3"/><linearGradient id="linear-gradient-7" x1="455.28" y1="665.03" x2="759.79" y2="665.03" gradientTransform="matrix(1, 0, 0, -1, 0, 805.52)" gradientUnits="userSpaceOnUse"><stop offset="0" stop-color="#fecc38"/><stop offset="0.84" stop-color="#f29f41"/><stop offset="1" stop-color="#ef9543"/></linearGradient><linearGradient id="linear-gradient-8" x1="29.87" y1="430.08" x2="145.69" y2="430.08" gradientTransform="matrix(1, 0, 0, -1, 0, 805.52)" gradientUnits="userSpaceOnUse"><stop offset="0.33" stop-color="#f97467"/><stop offset="0.52" stop-color="#f5695d"/><stop offset="0.85" stop-color="#e94b42"/><stop offset="1" stop-color="#e23a33"/></linearGradient><linearGradient id="linear-gradient-9" x1="169.56" y1="208.54" x2="212.86" y2="208.54" gradientTransform="matrix(1, 0, 0, -1, 0, 805.52)" gradientUnits="userSpaceOnUse"><stop offset="0" stop-color="#097c71"/><stop offset="0.28" stop-color="#0c776e"/><stop offset="0.6" stop-color="#156a65"/><stop offset="0.75" stop-color="#1b615f"/></linearGradient><linearGradient id="linear-gradient-10" x1="82.67" y1="236.81" x2="139.67" y2="236.81" gradientTransform="matrix(1, 0, 0, -1, 0, 805.52)" gradientUnits="userSpaceOnUse"><stop offset="0" stop-color="#009087"/><stop offset="0.21" stop-color="#038b83"/><stop offset="0.44" stop-color="#0a7e78"/><stop offset="0.69" stop-color="#176865"/><stop offset="0.75" stop-color="#1b615f"/></linearGradient><linearGradient id="linear-gradient-11" x1="41.95" y1="178.93" x2="98.92" y2="178.93" xlink:href="#linear-gradient-10"/><linearGradient id="linear-gradient-12" x1="368.71" y1="483.38" x2="470.67" y2="483.38" xlink:href="#linear-gradient-7"/><linearGradient id="linear-gradient-13" x1="379.64" y1="599.66" x2="437.2" y2="599.66" xlink:href="#linear-gradient-4"/><linearGradient id="linear-gradient-14" x1="325.26" y1="594.16" x2="371.63" y2="594.16" xlink:href="#linear-gradient-4"/><linearGradient id="linear-gradient-15" x1="554.87" y1="150.58" x2="651.48" y2="150.58" xlink:href="#linear-gradient-4"/><linearGradient id="linear-gradient-16" x1="74.51" y1="423.35" x2="118.53" y2="423.35" xlink:href="#linear-gradient-4"/></defs><path class="cls-1" d="M702.36,451a4.63,4.63,0,0,0-1.54,4.36c4.37,24.6,5.8,49.41,5.85,74.39.06,31.13,6.27,61.37,14.79,91.18,2.1,7.34,4.78,14.52,7,21.84,1.43,4.77,3.13,9,9.14,9-3.27,1.87-2.62,4.38-1.37,7.2,4.24,9.58,9,19,12.24,28.93,6.4,19.45.21,37.17-16.55,49-15.74,11.16-32.75,14.64-51.56,10.28-11.59-2.65-19.92-9.55-26.66-18.82-1.17-1.61-2.08-3.41-3.33-5a44.53,44.53,0,0,1-4.38-9.51c-9.24-28-18.85-55.85-28.28-83.78-3.25-9.65-4.61-19.79-7.65-29.49-1.6-5.1-3.36-10.11-6.4-14.58-2.12-3.13-4.81-4.84-8.74-4.8-9.16.09-18.32.12-27.48,0-4.17-.07-5.67,1.8-5.49,5.74a37.57,37.57,0,0,1-.19,8c-.22,1.37-.1,3.6-2.75,2.45-1.64-3.67-.86-7.56-.9-11.35,0-3.43-1.26-5.43-4.84-5.53-6.69-.19-13.21-1.73-19.82-2.55-4.16-.52-5.33,1.05-5.36,4.84-.11,14.33,1.5,28.6,1.11,43-.21,7.46-.8,15,.78,22.42-1.51,5.38-.68,10.9-1,16.36-1.28,21.06-2.16,42.2-9.42,62.37a61.45,61.45,0,0,1-16.34,24.73,34.26,34.26,0,0,1-11.43,7c-23.94,8.85-48.4,4.68-66-14.12-6.94-7.41-10.13-16.31-10.51-26.25-.23-6.14.06-12.3-.09-18.46a281.4,281.4,0,0,1,4.38-36.14c4.42-24.09,7.12-48.41,9.36-72.76a229.25,229.25,0,0,0,0-35.93c-.72-10.85-6.82-19.76-13.09-28.18-5.46-7.34-11.3-14.4-16.5-21.93-2.35-3.39-5.08-6.62-5.66-10.93-7.56-17.45-9.81-36.06-12.21-54.67-2.62-20.32-3.15-40.72-2.74-61.17,1.09-3.11,4.14-3.17,6.54-3.82,20.18-5.5,37.08-16.73,51.6-31.19,17.26-17.2,27.89-38.35,32.87-62.27a18.69,18.69,0,0,0,.53-2.42c.26-3.77,2.15-4.52,5.32-2.88,1.74.91,3.73,1.48,4.83,3.32,5.3,3.84,11.46,6.06,17.19,9.07,2.23,1.17,4.69,1.86,6.84,3.22,22.17,8.92,44.43,17.62,66.49,26.8,33.76,14.06,64.55,32.81,90.2,59.24,5.53,5.69,10.43,12,15.62,18,3.39,2.6,5.08,6.47,7.28,9.94A127.27,127.27,0,0,1,700,443.47,57.68,57.68,0,0,0,702.36,451Z"/><path class="cls-2" d="M416.4,700.06c.52,7.8-.66,15.66.62,23.43,3.42,20.88,22.54,33.65,41,37.26,11.13,2.18,22,.54,32.4-3.22,14.08-5.07,21.86-16.44,27.19-29.61,6.14-15.13,7.62-31.25,9-47.35.77-9.3,1.14-18.61,1-27.94,0-1.66-.28-3.45,2-3.9a2.57,2.57,0,0,1,2.25-.79c8.29,1.16,16.7,1.48,24.85,3.6,1.66,2.08,1,4.4.73,6.7a84.39,84.39,0,0,0,3.67,35c2.36,7.4,7.6,12.82,13.27,17.78a71.56,71.56,0,0,0,44.49,18,66.29,66.29,0,0,0,26.83-4.53,13.75,13.75,0,0,1,5.76-1.42c2.16,2.9,4.17,5.92,6.5,8.67,12.08,14.21,27.89,17.4,45.51,15.33a56.74,56.74,0,0,0,31.28-14.17c16.06-14,19.06-31,9.62-52.38-3.43-7.75-6.56-15.64-10.35-23.2-2.32-4.61-.91-5.78,3.53-5.57,23.64,1.69,41.76,14.41,58.47,29.67,8.3,7.57,8.87,17.61,6.83,27.8-4.16,20.79-16,37.07-31.07,51.29-19,18-42.15,26.71-67.69,30.38-26.73,3.84-53.74,4.73-80.47,8.53-27.86,4-55.75,7.83-83.92,8.77-51.53,1.73-102.47-1.22-152-17.48-45.31-14.86-91.93-17.6-139.28-13.61-36.34,3.07-72.78,5.39-109.29,3.55C105.6,779,73.92,770.09,43.54,755.81-6.92,732.05-7.3,682.21,11.2,648.19a87.46,87.46,0,0,1,31.5-32.8c1.54-.95,3.35-1.59,4.22-3.38,3.15.84,3.65,4.07,5.27,6.18,6.86,9,15.41,16.59,20.88,26.71,3.72,6.88,6,13.83,6.09,21.81.06,9-1.44,17.93-.1,26.89a37.39,37.39,0,0,0,2.71,10.1c.8,1.73,1.91,3.2,4.06,3.2a4.56,4.56,0,0,0,4.21-3,136.14,136.14,0,0,0,6.19-15.8c.41-1.33,0-3.71,2.73-3.15,1.85,3,.91,6.43,1.07,9.67.17,3.46-.17,6.94.19,10.38.48,4.5,1.24,4.88,5.6,3.11,7-1.56,11.61-6.35,15.12-12.16,5.43-9,10.82-18,13.29-28.33.28-1.18.32-2.78,2.15-2.92,1.3.8,1.49,2.15,1.66,3.47,1.49,12,6.26,23.08,10.67,34.2,1.44,3.63,2.86,8.36,7.57,8.28,5.22-.08,5.64-5.34,7.09-9.11,2.81-7.32,2-15.13,2.64-22.7,1-12.78,0-25.59-1.37-38.34-.8-7.66-.73-15.28,1.37-22.77.57-2,.82-4.35,3.34-5.15,1.72.49,2.29,1.88,2.47,3.41,1.23,10.24,5.79,19.39,9.31,28.89,4.16,11.24,8.13,22.48,8,34.78-.06,6.72-2.29,12.7-4.62,18.75-.48,1.24-1,2.45-1.43,3.72-.51,1.63-.93,3.36.82,4.5s3.2,0,4.35-1.22a71,71,0,0,0,17.93-35.06c2.06-10.57,1.13-21.18-.32-31.78-1.25-9.23-2.24-18.52-1.4-27.83.27-3-.63-6.75,3-8.74l41.19,7.37c39.46,7.07,79.19,12.42,118.93,17.61,1.41,1.43.71,3.12.58,4.73-.46,5.78-1.64,11.48-2.46,17.24-2.71,18.66,3.58,34.08,16.6,47a74.29,74.29,0,0,0,24.4,16.21c7.13,2.91,7.54,2.67,7.59-4.85a22.77,22.77,0,0,1,.31-5.47C414.79,700.93,415,699.8,416.4,700.06Z"/><path class="cls-3" d="M436.49,237.93c9.17,7,11.8,17.18,13.27,27.88,2.59,6.59.59,13.1-.52,19.57-2.75,16.05-11.88,28.64-22.33,40.45-12.65,14.28-28.07,24.83-45.26,32.84-4.31,2-7.91,5.57-13,6-8,2.74-15.17,7.33-23.47,9.29-12.83,3-25.22,2.78-37.06-3.73a45.28,45.28,0,0,0-5.41-2.18c14.07-6.31,11.43-31.18.71-38.69-3.37-2.37-7.13-2.34-11-1.92-1.62.18-3.14,1.19-4.85.6.86-9.57,6.19-17,11.71-24.3,7.33-9.66,17.06-17.26,24-27.23a78.63,78.63,0,0,0,12.25-26.41c7.57-17.31,17.18-32.79,36-40,2.73,1.67,5.33-.68,8-.25a3,3,0,0,1,1.17,2.64c-.62,7.25,3.3,11.48,9,15.24,9.12,6,17.92,12.55,27.29,18.23a43.85,43.85,0,0,0,10.43,4.63C433,252.22,436,250,436,244.1,436.08,242.05,434.7,239.88,436.49,237.93Z"/><path class="cls-4" d="M169.58,612.66c-4.78,8.75-4.58,18.25-3.49,27.64a268.31,268.31,0,0,1,.26,55.16,32.23,32.23,0,0,1-4.31,13.2c-3.18,5.48-7.59,5.76-11.35.6a35.28,35.28,0,0,1-3.85-7.51c-4.88-12-9.26-24.12-11.06-37-2.14-2-1.55-4.58-1.66-7-.8-18.44.65-36.75,3.21-55,.38-2.65-.29-5.29.35-7.89,1.6-.23,1.51-1.2,1.39-2.54a57.26,57.26,0,0,0-4.87-18.26c-10.28-23.07-9.54-46.15-1.09-69.48a53.37,53.37,0,0,0,1.74-31.84c-2.92-11.84-.15-23.29,4.5-34.47,7.29-17.54,17.41-33.23,29.3-47.94,5.11-6.33,9.66-13.12,14.46-19.7,1-1.39,2.12-2.87,4-2.25s1.53,2.38,1.59,3.86c.62,16.72,4.3,33,8.36,49.06,4.84,19.23,5.9,38.74,5.64,58.41-.1,7.46-3,14.26-5.64,21.08-.91,2.32-1.7,4.68-2.54,7-2.86-.43-3.2-3.12-4.26-5-2.59-4.63-5.1-9.31-8.12-13.69-.65-.94-1.38-2.16-2.69-1.85s-1.28,1.76-1.48,2.89c-1.06,6.16-.08,12.22.84,18.29,1.25,8.17,3.56,16.2,3.52,24.56-3.44,7.16-7.1,14.13-7.85,22.35a53.07,53.07,0,0,0,.84,13.31c.8,5.06,1.68,10.1,2.1,15.21a6.37,6.37,0,0,1-.62,3.38,58.21,58.21,0,0,0-6,22.81A3.34,3.34,0,0,1,169.58,612.66Z"/><path class="cls-5" d="M702.36,451a2.59,2.59,0,0,1-2.67-2.36c-3.55-18.89-11.32-36-22.36-51.62a6.45,6.45,0,0,1-.58-1.87,183.46,183.46,0,0,0,22.81-21.51c5.85-6.71,11.08-13.74,14.86-21.78A229.07,229.07,0,0,0,732.89,295c3.2-17.52,5-34.89,3.37-52.62a36,36,0,0,1,.61-9.44c1.39-7.62,8.89-10.4,15.17-5.81,2.83,2.07,4.27,5.06,5.39,8.22,5.08,14.31,7.87,28.9,5.4,44.14a37.21,37.21,0,0,0-.2,4.09c2.51.44,3.26-1.52,4.28-2.81a56.61,56.61,0,0,0,6.67-11.69c1.39-3,3.51-5.1,7-4.14s3.63,4,3.59,6.91c-.3,17.54-3.64,34.4-11.44,50.23-1.12,2.28-2.48,3.94,1.07,5.85,3.1,1.67,1.89,5.37,1.22,8.25-2,8.65-6,16.56-9.51,24.64-.92,2.24-2,4.4-2.94,6.87,1.18-.49,2.24-.18,3.08-.78,6,0,8.39,2.74,5.92,8.06C756.44,407.49,737.18,436.35,702.36,451Z"/><path class="cls-6" d="M416.4,700.06c-1.6,4-.7,8.16-.77,12.24,0,2.86-1,4.27-3.79,3.3-25-8.63-49.65-30.2-48.06-61.18.47-9.2,2.48-18.33,3.78-27.49,6.76-24.74,13.23-49.56,17.15-75,2.06-12.36,3.88-24.76,6-37.12l2.08-15.17c.92-1.82-.41-4,.86-5.74v-.07c10,17,25.14,30.61,33.32,49a40.69,40.69,0,0,1,3.77,15.37c.76,21.36-1.27,42.54-3.65,63.74C424.18,648.07,418.19,673.77,416.4,700.06Z"/><path class="cls-7" d="M106.47,708.69c-1.79,1-2.64,4-5.25,3s-2.26-3.91-2.37-6c-.36-6.93-.31-13.88-.42-20.82-2.11-3.56-1.26-7.51-1.07-11.21,1.27-24.83-4.66-48.23-14.08-70.85A356.49,356.49,0,0,0,65.05,566.2c-3.9-7-6.47-14.59-10.41-21.53a11.91,11.91,0,0,0-.19-6.27c-5.33-22.67-6.41-45.44.23-68,5.86-19.93,1.42-38.4-6.7-56.55-.27-.6-.76-1.1-1-1.69-1.13-2.29-3.66-4.63-1.13-7.19,2.28-2.3,5.15-1.52,7.77-.13,6,6.06,12.79,11.36,18.94,17.32,1.9,1.83,3.33,3.58,3.48,6.23,1.28,2,4.63,2.33,4,6.11-.33,2,2.74.29,4,1.14,3.94,2,5.66,6,8.14,9.28,10.55,13.9,14.82,29.25,12.26,46.84-1.83,12.56-4.06,25-7.81,37-5,16.06-3.91,31.4,4.15,46.31,7.77,14.36,14.28,29.21,18.62,45.09,3,11,2.71,22.06,2.52,33.17a125.31,125.31,0,0,1-11.13,48.78C109.7,704.59,108.89,707.16,106.47,708.69Z"/><path class="cls-8" d="M480.41,278.77l-8.43-3.5c-1.18,1.88.22,4.12-1.31,5.72-1.55-7.1-6.34-10.51-13.17-11.77-1.15-.21-2.62-.85-2.12-2.69,10.45-6.79,22.09-11.14,33.92-14.26,39.12-10.33,64.47-36.32,83-70.67,13.27-24.62,25.5-49.82,41.34-73C637.27,74,665.44,44,700.24,20.35c14-9.48,29.32-15.68,45.53-19.92a11,11,0,0,1,13.51,7.25C761.06,13.59,758,20,751.8,21.49c-37.41,9.22-64.21,34.08-89.54,60.88-28.23,29.85-47.9,65.42-66.41,101.7-10.26,20.12-22.49,38.85-38.76,54.82s-35.44,26.23-56.94,32.87C493.48,273.82,487,276.42,480.41,278.77Z"/><path class="cls-9" d="M65.7,404.84c-8.07-9.49-13.54-20.5-18.44-31.84-2.68-6.2-6.7-10.63-13.93-11.26-1.35-.11-3.34,0-3.46-2.05-.09-1.66,1.66-1.87,2.79-2.45,9.12-4.66,17.67-10.19,24.31-18.06,11.66-13.81,28.55-10.19,38.9-3.46,4.74,3.08,9.34,6.39,13.85,9.81,6.66,5,13.36,4,20.17.55,4.36-2.2,7.89-5.53,11.58-8.64,2.18-1.85,4.27-2,4.22,1.48-.33,22.69-2.16,45.14-17.17,63.75-8,9.92-18.23,16.57-31.73,16.29-1.56,0-3,.06-3.67,1.85-1.69,1.06-3.11-.78-4.74-.45A29.42,29.42,0,0,1,72.7,411.7h0A26.25,26.25,0,0,1,65.7,404.84Z"/><path class="cls-10" d="M181.53,532.87c-1.21-11.38-4.23-22.47-5.3-33.9-.35-3.73.55-7.26.43-10.9a2.89,2.89,0,0,1,2-3.15c1.81-.59,2.74.58,3.65,1.86,4.73,6.64,8.27,14,12.28,21,5,11.2,10.34,22.23,14.11,34,6.51,20.24,4.81,40.24-1.21,60.18-2.66,8.24-2.29,16.73-1.46,25.1,1.47,14.83,4.51,29.63,1.51,44.51a73.33,73.33,0,0,1-13.84,29.64c-1.6,2.11-3.33,4.13-5.11,6.09-1.56,1.72-3.39,2.77-5.68,1.16s-2.76-3.49-1.61-6.06c4-8.86,7.4-17.79,6.4-27.86-1.15-11.56-5-22.35-9.33-32.93a135.42,135.42,0,0,1-8.75-28.93c-.58-10.34,3.14-19.65,7-28.93a12.25,12.25,0,0,1,.79-4.87,85.8,85.8,0,0,0,3.69-39.65A11.49,11.49,0,0,1,181.53,532.87Z"/><path class="cls-11" d="M106.47,708.69c4.25-9.94,8.71-19.87,11-30.46,6.13-28.77,4.43-56.88-8.5-83.76-3-6.15-6-12.3-9.24-18.28-8.5-15.47-9.63-31.49-4.3-48.2a211,211,0,0,0,8.14-40.5c1.74-15.47-3.07-28.9-12-41.1-2.72-3.71-4.71-8.1-8.9-10.59,0-5.39,3.6-7.85,10-6.87-.71,1.91.92,2.61,1.9,3.63,15,15.6,23.19,34.14,23.85,55.88a56.54,56.54,0,0,1,.14,7.48c-3.27,34.84,6.75,67.1,19.08,98.92,3.41,4.25,1.54,9.17.72,13.34-3.7,18.77-2.57,37.66-2.62,56.54a80.29,80.29,0,0,1-21.29,40.65A9.91,9.91,0,0,1,106.47,708.69Z"/><path class="cls-12" d="M54.64,544.67c1.41-.51,2.1.17,2.59,1.44,6.21,16,15.11,30.72,22.71,46.06,14.54,29.3,20.85,60.1,18.49,92.7-1.43,6.49-4.31,12.46-6.66,18.63-1.07,2.8-2.73,5.08-6,5.19-3.53.12-4.92-2.6-5.73-5.33-2-6.63-3.58-13.2-2.58-20.4,2.94-21-2.59-39.28-18.22-54.35-4.92-4.74-9.58-10.08-12.34-16.6-6.77-16.69-6.38-33.45-.13-50.12C49,556,52,550.4,54.64,544.67Z"/><path class="cls-13" d="M455.38,266.49c1.91,2.17,4.68,1.84,7.13,2.54,6.19,1.78,7.92,4.52,8.16,11.92-.91,9.94-4.81,19-8.81,27.91C450.31,334.51,431.32,353.29,407,367c-7,3.93-14.71,6.12-22.25,8.72-2,.7-4,1.54-6,2.32-4.46,1.45-6.85,0-7.55-4.8-.42-2.92-1.62-5.72-2.47-8.58,7.6-5.14,16-8.87,24-13.27A123.05,123.05,0,0,0,442.26,302c6.16-11.17,7.55-23.65,7.51-36.27C451.7,265.77,453.39,267.14,455.38,266.49Z"/><path class="cls-14" d="M436.49,237.93c.28,3.91,1.66,7.77-.43,11.72-1.4,2.65-3.1,3.61-6,3a46.85,46.85,0,0,1-14.61-6.16c-11.1-6.74-21.66-14.28-32.21-21.85a7.93,7.93,0,0,1-3.09-4.84c-.91-3.31-.08-6.64-.51-9.93,1.94-7.78,1.78-15.81,2.7-23.71.8-6.78,1.31-13.58,3-20.23.8-3.18,1.91-6.27,5.58-6.92s5.31,2.21,6.91,4.75c12.69,20.15,23.39,41.39,34,62.7C433.61,230.14,434.12,234.42,436.49,237.93Z"/><path class="cls-15" d="M371.63,210.09c-.2.8-.33,1.55-1.28,1.93-15.63,6.23-24.07,19.24-31.41,33.3-.89,1.71-1.14,3.92-3.3,4.76-.48-19.74-8-38.27-10.05-57.74a47.21,47.21,0,0,1,.4-13.89c1-5,4.07-6.9,9-5.15a22.27,22.27,0,0,1,7.43,4.94,207.38,207.38,0,0,1,23.73,25.49C367.83,206,369.29,208.4,371.63,210.09Z"/><path class="cls-16" d="M287.7,328c8.72-4.66,15.78-2.65,21.41,5.54,7.1,10.33,5.51,20.68.86,31.24-1.45,3.29-4.33,3.16-7.16,3.23-11.46-6.61-16.11-17.54-18.88-29.64C283,334.33,285.14,331,287.7,328Z"/><path class="cls-17" d="M92.7,428.94c-4.26.95-8.78,1.53-10,6.87-2,2.24-4.53,2-4.45-.8s.64-4.16-2.77-4c-.72,0-.85-1.27-.73-2.13.75-3.9,2.78-6.52,7-7,2.51-.21,5.07-.29,7.07-2.18,1.68-.43,3.47-1.25,4.35,1.2C93.05,423.49,94.75,426.32,92.7,428.94Z"/><path class="cls-18" d="M81.7,422.81c-3.55.59-5.31,3.27-7,6a5.36,5.36,0,0,0-2.17-5.15c-5.66-4.86-11.16-9.92-16.59-15.05-1-1-3.22-1.53-2.37-3.79,3.17,1.34,6.82,1.16,9.78,3.14a9.29,9.29,0,0,1,4.15,3.25,10.35,10.35,0,0,0,5,3.66C76.7,416.32,80.12,418.49,81.7,422.81Z"/><path class="cls-19" d="M81.7,422.81l-9.15-7.92c3.5-.89-.52-2.16.17-3.19,5.21,2.88,10.25,6.12,16,7.92.26,2,.21,3.57-2.64,3.06A20.69,20.69,0,0,0,81.7,422.81Z"/><path class="cls-20" d="M390.7,514.85a249.41,249.41,0,0,1-6,37.12A210.9,210.9,0,0,1,390.7,514.85Z"/><path class="cls-21" d="M765.7,366.94l-5,3.16a30.14,30.14,0,0,1,4.82-9.25c.38,1.59-.45,2.88-1.11,4.18C763.7,366.49,764.77,366.62,765.7,366.94Z"/><path class="cls-19" d="M65.7,404.84a37.23,37.23,0,0,1,7.12,6.9C69.07,410.81,66.88,408.33,65.7,404.84Z"/><path class="cls-22" d="M504.44,291.06a11.88,11.88,0,0,1-6.84-3.22A8.76,8.76,0,0,1,504.44,291.06Z"/><path class="cls-23" d="M393.7,493.94c0,2,.24,3.95-.86,5.74C392.55,497.69,392,495.65,393.7,493.94Z"/><path class="cls-19" d="M67.5,411.23A10.41,10.41,0,0,1,63.35,408C65.7,407.85,67,409.06,67.5,411.23Z"/><path class="cls-24" d="M651.48,723c-6.6,4.31-14.17,5.73-21.74,6.64-24.39,2.91-44.63-5.76-61.69-22.84-7.46-7.47-10.11-17-11.55-27-1.33-9.28-.75-18.56-.19-27.84-1.88-2.5-1.46-5.44-1.25-8.17.85-11.23,1.36-22.5,2.63-33.68.48-4.16-1.07-8.72,2-12.49,1.44-4.51,1-9.2,1.13-13.81.12-3.28,1.32-4.23,4.52-4.17q15.72.33,31.45.13a7.31,7.31,0,0,1,6.34,3.14,43.59,43.59,0,0,1,8.41,17.94c8.13,36.84,23.14,71.49,34,107.45C647.05,713.36,649.47,718.13,651.48,723Z"/><path class="cls-25" d="M423.56,674.83c1.27,1.77,1.32,3,0,4.93C422.36,678,422.28,676.69,423.56,674.83Z"/><path class="cls-26" d="M340.77,259a26.17,26.17,0,0,1,.64-3.83,3.5,3.5,0,0,1,4.2-2.58l.05,0a3.2,3.2,0,0,1,3,3.4v0c-.11,4.37.18,8.54,2.56,12.45,1,1.57-.05,3.34-1.67,4.19-2,1.07-3.86.43-5.28-1.35C341.5,267.89,341,263.78,340.77,259Z"/><path class="cls-27" d="M364.1,250.16c2.2.4,3.71,1.66,3.53,4a12.56,12.56,0,0,0,2.82,9.67c1.35,1.6,1,3.49-.51,4.9s-3.25,1.37-4.95.12c-3.71-2.73-6.3-11.64-4.63-15.87A4.1,4.1,0,0,1,364.1,250.16Z"/><path class="cls-28" d="M109.53,382.71c-1.33.85-1.93,1.71-.41,3,2.65,2.3,2.87,5.14,1.33,8.12a8.56,8.56,0,0,1-8.06,4.89c-8.8.08-23.64-9.47-27-17.43-2.77-6.6,1.22-12.08,8.29-10.94,6.84,1.1,13.24.54,19.23-3.12a10.53,10.53,0,0,1,1.83-.79c4.45-1.68,10.45-.66,12.45,2.35,3,4.48.45,7.84-2.57,11A54.47,54.47,0,0,1,109.53,382.71Z"/><path class="cls-29" d="M79.91,352.49c0,4-2.4,6.48-6.51,6.6-3.8.11-6-1.84-6.44-5.5s3.49-7.74,7-7.74S79.87,348.69,79.91,352.49Z"/><path class="cls-30" d="M109.53,382.71a7.63,7.63,0,0,1,5.1-2.88C113.58,382,111.75,382.67,109.53,382.71Z"/><path class="cls-31" d="M447.16,300a3,3,0,0,1,2-2.82,6.42,6.42,0,0,1,2.23,0C450.45,299.39,448.36,299.07,447.16,300Z"/></svg>