<?xml version="1.0" encoding="utf-8"?>
<!-- Generator: Adobe Illustrator 25.4.1, SVG Export Plug-In . SVG Version: 6.00 Build 0)  -->
<svg version="1.1" xmlns="http://www.w3.org/2000/svg" xmlns:xlink="http://www.w3.org/1999/xlink" x="0px" y="0px"
	 viewBox="0 0 641.7 773" style="enable-background:new 0 0 641.7 773;" xml:space="preserve">
<style type="text/css">
	.st0{opacity:0.34;fill:#6CC7B8;enable-background:new    ;}
	.st1{fill:url(#SVGID_1_);}
	.st2{fill:#112639;}
	.st3{fill:#FECC38;}
	.st4{fill:#225F8C;}
	.st5{fill:#018F86;}
	.st6{display:none;}
	.st7{display:inline;}
	.st8{fill:url(#SVGID_00000108988799640380953520000014113101717959886495_);}
	.st9{fill:url(#SVGID_00000036231981124408599260000014776007555389214111_);}
	.st10{fill:#7BCDD8;}
</style>
<g id="Layer_1">
	<g id="Capa_7">
		<circle class="st0" cx="321.6" cy="452.2" r="320.9"/>
	</g>
	<g id="bolsillo">
		
			<linearGradient id="SVGID_1_" gradientUnits="userSpaceOnUse" x1="84.6344" y1="700.3834" x2="418.3293" y2="700.3834" gradientTransform="matrix(1 0 0 -1 0 937.5906)">
			<stop  offset="0" style="stop-color:#2B8776"/>
			<stop  offset="1.000000e-02" style="stop-color:#2D8878"/>
			<stop  offset="0.11" style="stop-color:#449F8F"/>
			<stop  offset="0.24" style="stop-color:#56B0A1"/>
			<stop  offset="0.38" style="stop-color:#62BDAD"/>
			<stop  offset="0.58" style="stop-color:#6AC4B5"/>
			<stop  offset="1" style="stop-color:#6CC6B7"/>
		</linearGradient>
		<path class="st1" d="M184.2,162.5c57-26,79.8-24.6,103.9-28.1c16.2-2.4,32.7-3.1,49.1-2.2c26.8,1.6,55.1,3.1,80,13.3
			c0.3,0.1,0.3,2.7,0,4c-0.1,0.3,0.9,1.7,1,2c0.8,1.8-2,2.7-2.2,4.4c-2,17.3-5.1,34.4-9.1,51.3c-3.7,15.8-7.7,31.6-12.5,47.2
			c-4.2,13.9-8.7,27.7-14.8,40.9c-6.4,13.9-16.9,22.1-31.6,25.6c-5.5,1.3-11,2-16.5,2.9c-4.6,0.7-9,2.2-13,4.5
			c-2.2,1.3-3.5,3.5-5.6,4.8c-4.4,2.1-9.2,2.6-13.9,3.4c-8.2,1.4-16.4,3.3-24.8,3.9c-4,0.3-8,0.5-11.9,0.6
			c-11.6,0.5-23.2,1.5-34.8,1.6c-6,0.1-11.9-0.1-17.9-0.5c-7.1-0.5-14.2,0.6-21.3,0.5c-12.2-0.3-24.4-0.6-36.5-1.8
			c-17.8-1.9-35.5-4.1-53.1-6.9c-4.1-0.6-8.4-0.9-12.3-2.9c-0.7-0.3-1.3-0.6-1.8-1.1c4.5-24.7,1.6-86.2,13.5-108.3
			c15.8-11.8,41-39,82-57"/>
		<path class="st2" d="M467.2,425.5c0,0,29,76,22,104c-6.8,27.3-184.4,88.7-370,24.4c-9.5-3.3-16.5-11.3-18.6-21.2
			c-6.7-31.9-20-109.3-15.4-206.3"/>
		<path class="st2" d="M490.2,528.2c-7.1,6.7-21.9-0.2-30,5.3c-45.7,31.2-89.8,44.9-145,42c-44.9-2.4-85.4-3-122.6-28.2
			c-0.5-0.3-1-0.8-1.5-1.2c-1.7-3.6-1.2-7.5-1.5-11.3c-0.5-5.6-0.9-11.3-1.3-16.9c-0.4-5.5-0.8-11-1.1-16.4
			c-0.8-17.4-0.8-34.8-0.5-52.2c0.3-11.9,0.6-23.9,1-35.9c0.4-11.3,1-22.6,2.1-33.9c0.3-2.7,0.5-5.5,0.7-8.2
			c0.2-3.8,0.7-4.2,4.1-4.6c7.5-0.8,15.1-0.2,22.7-0.9c11.2-1,22.4-1.5,33.6-2.7c10.9-1.2,21.9-2.2,32.8-3.1
			c9.6-0.8,19.1-2.1,28.6-3.1c1.1-0.1,2.2-0.2,3.3-0.3c4.5-0.5,4.5-0.5,6.3,3.5c6.6,15.1,15.7,29.1,26.7,41.4
			c11.9,13.3,25.5,25.1,40.4,35c12.3,8.1,25.7,13.7,39.6,18.4c11.5,3.9,23.3,5.8,35.4,7c2.4,0.2,4.8,0,7.2,0.1
			c1.6,0,2.3-0.7,2.4-2.3c0.2-3.5-1-5-4.8-5.3c-6.7-0.7-13.3-1.4-19.9-2.5c-7.4-1.2-14.4-3.6-21.5-5.8c-0.9-0.2-1.8-0.7-2.4-1.5
			c0-1.6,1.5-1.7,2.5-2.1c5.4-2,10.6-4.8,15.3-8.3c6.9-5.3,12.8-11.8,17.3-19.1c0.5-0.9,1-1.8,1.7-2.6s1.1-1.2,1.9-0.3
			c4.5,17.8,12.5,34.5,17.2,52.2c2.9,10.8,4.2,21.7,6.1,32.6c1.5,9.3,2.3,18.6,3.7,27.9C490.6,526.1,490.9,527.2,490.2,528.2z"/>
		<path class="st3" d="M531.2,209.5c0.6,1.3-2.3,6.1-2.8,7.1c-8.9,15.8-17.7,31.6-27.4,46.9c-9,14.2-16.1,29.4-19.5,46
			c-1.2,6.4-2,12.9-2.5,19.4c-0.8,10-1.4,20-2.8,30c-1.6,11.7-3.5,23.4-6.8,34.7c-1.8,6.1-4,12.1-6.8,17.8c-0.4,0.8-0.6,1.9-1.7,2.2
			c-1.5,1.5-2.3,3.4-3.4,5.1c-8.6,12.9-20,22.3-34.8,27.3c-1.1,0.7-2.2,0.2-3.2-0.2c-16.8-6.4-32.3-15.7-45.9-27.4
			c-4.7-4-9.3-8.3-13.8-12.5c-3.9-3.8-7.5-7.8-10.9-12c-0.7-0.9-1.5-1.7-1.2-3c2.2-8.2,3.9-16.6,6.5-24.7c2-5.6,3.5-11.4,4.4-17.3
			c0.2-1.7,0.2-3.5,0-5.2c-0.2-1.4-0.9-2-2.4-2c-3-0.1-6,0.5-9,0.5c-7.3-0.3-14.5-1-21.1-4.5c-7.2-3.9-11.7-9.9-12.9-18
			c-0.7-4.8,0.1-9.5,3.8-13.2c4.7-6.3,11.5-8.3,18.7-9.5s14.7-2.1,21.7-4.5c10.5-3.3,19.2-10.7,24.1-20.5
			c5.9-11.4,10-23.5,13.8-35.7c8-25.4,14.5-51.2,19.6-77.4c2.2-11.5,0.9-1.9,2.3-13.6c9.5,3.6,38.2,14,47,19
			c19.5,11.1,40.3,19.7,56.1,35.7"/>
		<path class="st4" d="M317,306.6c-7.3,13.2-1,28,14.1,32.7c5.2,1.5,10.6,2.3,16,2.4c-0.4,1.7-2,2-3.1,2.6c-5.2,3-10.8,4.6-16.5,6.1
			c-2.6,0.7-2.4,0.6-1.4,3.1c3.2,7.5,6.8,14.8,10.9,21.8c2.9,4.9,6.1,9.5,9.6,14c0.6,0.7,1,1.4,1.4,2.2c2.7,4.3,6.3,8,9.9,11.6
			c12.2,12.4,25.5,23.7,40.7,32.4c7,3.9,14.3,7.3,21.9,10.1c0.8,0.2,1.5,0.4,2.3,0.6c4.9,2.5,10.2,3.6,15.4,5.1
			c7.8,2.3,15.9,3.1,24,3.9c2.1,0.2,4.3,0.5,6.4,0.8c2.5,0.4,3.5,1.6,3.7,4.1c0,0.7,0,1.4,0,2.2c0.1,1.7-0.6,2.4-2.4,2.5
			c-5.7,0.3-11.3-0.5-16.9-1.1c-14.7-1.7-28.5-6.2-42.1-11.8c-13.9-5.8-26.8-13.5-38.4-23c-8.1-6.5-15.7-13.5-22.9-21
			c-13.1-13.7-23.6-29.6-31-47c-0.8-1.8-1.7-2.1-3.4-1.9c-6.7,0.8-13.4,1.6-20.1,2.3c-7.3,0.8-14.7,1.6-22,2.3
			c-5.8,0.6-11.6,1-17.3,1.6c-7.9,0.7-15.8,1.5-23.7,2.2c-2.9,0.3-5.7,0.3-8.6,0.5c-8.7,0.6-17.5,1.3-26.2,1.1c-2,0-4,0.3-6,0.3
			c-1.7,0-1.7,1.2-1.8,2.3c-0.4,4-0.8,8-1,12.1c-1.1,16.1-1.6,32.3-2.1,48.4c-0.6,19.4-1.1,38.7-0.6,58.1c0.3,12.4,1,24.8,2.2,37.1
			c0.7,6.9,1,13.8,1.5,20.7c-3.7-2.3-7.2-4.8-10.5-7.7c-0.9-4.2-0.7-8.4-1.1-12.6c-0.3-3-0.6-6-0.6-9.1c0-2.4-1.2-4.5-3.3-5.7
			c-5-3.3-9.9-6.8-14.7-10.3c-3.2-2.3-5.7-5.3-8.6-7.9c-1.5-1.4-1.6-3.4-1.5-5.4c0.4-5.8,0.9-11.6,0.8-17.4
			c-0.2-11.4,0.4-22.8,0.6-34.2c0.2-8.7,0-17.4,0.4-26.1c0.5-11.6,0.8-23.3,1-34.9c0-2.1,0.5-4.3,0.4-6.4c-0.1-2.5-0.4-2.9-2.9-3.1
			c-6.8-0.6-13.5-1.5-20.2-2.4c-11-1.4-21.9-3.7-32.5-6.8c-2.8-0.8-5.5-1.5-8.3-2.4c-1.2-0.6-2.6-0.3-3.5,0.7
			c-0.4-6.4-0.4-12.9,0.1-19.3c0.5-11.2,1.8-22.4,3.9-33.4c0.6,0,1.1,0,1.6,0.2c7.2,3.2,15,3.5,22.5,4.6c10.4,1.6,20.8,2.9,31.2,4.2
			c7.7,1,15.5,1.8,23.3,2.1c8.9,0.4,17.8,1,26.8,0.9c3.2,0,6.4-0.1,9.5-0.3c7.6-0.5,15.1,0.4,22.7,0.6c5,0.1,10,0,15-0.4
			c4.3-0.4,8.6-0.3,12.9-0.7c11.4-0.9,22.9-0.8,34.3-2.5c8.5-1.3,16.9-3.2,25.3-4.8C314.9,307.4,315.7,306.3,317,306.6z"/>
		<path class="st2" d="M84.6,356.5c-0.1-2.1,0.7-2.3,2.6-1.7c10.9,3.2,21.8,6.4,33.1,8.2c7.8,1.3,15.7,2.2,23.6,3.1
			c2.5,0.3,4.9,0.6,7.3,0.9c1.2,0.1,1.5,0.6,1.4,1.7c-0.3,7.5-0.6,15-0.9,22.4c0,0.4,0,0.8-0.1,1.2c-0.2,10.5-0.4,21-0.5,31.5
			c-0.1,10.4-0.5,20.7-0.7,31.1c-0.2,7.2,0,14.5-0.4,21.7c-0.2,4.3-0.5,8.6-0.9,12.8c-0.2,2.9,1.4,4.5,3.1,6.6
			c3.2,3.8,7.3,6.3,11,9.3c3.4,2.7,6.9,5.1,10.6,7.3c2.1,1.2,3.4,3.4,3.4,5.8c0.5,6.7,1,13.5,1.4,20.2c0,0.6,0.1,1.3-0.4,1.8
			c-11.9-9-22.9-19.2-32.7-30.4c-27.6-30.9-46.7-68.3-55.7-108.7C86.8,386.6,85,371.6,84.6,356.5z"/>
		<path class="st3" d="M446.6,485.1c-10.7-0.8-21.3-2.6-31.6-5.5c-2.5-0.6-4.1-3.1-3.5-5.6c0,0,0-0.1,0-0.1c0.7-2.7,3.2-4.1,6.2-3.2
			c7.1,2,14.3,3.4,21.5,4.3c2.5,0.3,5.1,0.5,7.6,0.8c2.6,0.1,4.6,2.3,4.5,4.9S449.2,485.2,446.6,485.1L446.6,485.1z"/>
		<path class="st3" d="M332.1,415.8c1.2-0.1,2.4,0.4,3.3,1.2c0.7,0.6,1.4,1.3,1.9,2.1c2.9,5.3,7.1,9.5,11.5,13.6
			c2.2,2,4.5,4,6.7,6.1s2.4,4.8,0.6,6.8c-1.7,1.9-4.7,2.1-6.6,0.4c-0.1-0.1-0.2-0.1-0.2-0.2c-4.4-4-8.8-8.1-13.1-12.1
			c-3.4-3.1-5.3-7.4-8-11C326.1,419.9,328.6,415.9,332.1,415.8z"/>
		<path class="st3" d="M365.5,446.1c1.2,0,2.4,0.5,3.3,1.3c6.5,5.8,13.9,10,21.7,13.7c3.1,1.4,4.3,4.1,3,6.7c-1,2.1-3.5,3.1-5.7,2.2
			c-9.2-3.8-17.7-9.1-25.2-15.7c-2-1.7-2.3-4.7-0.6-6.7C362.9,446.7,364.2,446.1,365.5,446.1L365.5,446.1z"/>
		<path class="st3" d="M325,400.3c-0.1,1.8-1.3,3.3-3,3.9c-1.8,0.9-4,0.3-5.2-1.3c-4.3-5.9-8.2-11.9-11-18.7
			c-0.9-2.3,0.1-4.8,2.3-5.9c2.2-1.1,4.9-0.3,6,1.9c2.8,6.1,6.5,11.6,10.2,17.2C324.9,398.3,325.1,399.3,325,400.3z"/>
		<path class="st2" d="M348,391.5c-3.4-3.3-5.9-7.2-8.5-11.1c-5.4-8.3-10-17-13.7-26.2c-0.1-0.1-0.1-0.3-0.2-0.4
			c-0.4-1-1.9-1.9-1.5-2.8s2.1-0.8,3.2-1.1c7-1.8,13.8-4,19.7-8.1c3.4-0.2,6.8-0.4,10.2-0.7c1.3-0.1,1.6,0.4,1.8,1.5
			c0.6,4,0.3,8.1-0.8,12.1c-1,3.9-2.1,7.7-3.3,11.5c-2.2,6.9-4.1,13.9-5.5,21C349.3,388.6,348.7,390.1,348,391.5z"/>
		<path class="st2" d="M158.9,488c1.3-13.9,0.7-27.3,1.1-40.7c0.5-14.7,0.6-29.5,0.9-44.2c0.2-10.3,0.7-20.7,0.9-31
			c0.1-3.9,0.2-3.9,4.1-3.7s8,0.5,11.9,0.5c2,0,2.3,0.8,2.1,2.5c-1,8.2-1.4,16.5-2,24.7c-0.9,14-1,28-1.5,42
			c-0.5,15.1-1.1,30.1-0.7,45.2c0.2,6-0.1,11.9,0.7,17.9c0.1,0.5,0.2,1-0.3,1.2s-1-0.3-1.5-0.6c-4.5-3.1-9-6.3-13.3-9.7
			C159.8,490.8,158.2,489.8,158.9,488z"/>
		<path class="st3" d="M170,355.2c-7.7-0.1-13.7-5.9-13.6-12.9c0.2-9.3,5.8-15.7,13.5-15.5c7.3,0.2,13.6,7,13.4,14.7
			C183.2,348.9,176.9,355.3,170,355.2z"/>
		<path class="st5" d="M205.9,627.7c0,8.5-3.7,14.9-11,19.3c4,1.5,7.5,4.1,10,7.6c2.7,3.6,4,8.6,4,15.2c0,6.5-2.4,11.7-7.2,15.6
			c-4.8,3.8-11.8,5.7-20.8,5.7h-28.7c-1.3,0-2.5-0.5-3.4-1.4c-0.9-1-1.4-2.3-1.4-3.7v-78.1c-0.3-0.9,0.2-1.9,1.1-2.2
			c0.3-0.1,0.7-0.1,1.1,0h27.8C196.4,605.6,205.9,613,205.9,627.7z M170.8,625.4v16h0.6c7.8,0,11.7-2.6,11.7-7.8
			c0-2.8-0.8-4.9-2.3-6.2s-4-2-7.5-2L170.8,625.4z M170.8,655.8v15.8h2.2c3.5,0,6.1-0.6,7.7-2s2.4-3.4,2.4-6.2s-0.8-4.8-2.3-6
			s-4-1.7-7.5-1.7L170.8,655.8z"/>
		<path class="st5" d="M223.2,683.8c-5.1-5.6-7.6-13.4-7.6-23.3s2.6-17.7,7.6-23.3c5.1-5.6,11.9-8.4,20.5-8.4
			c8.6,0,15.5,2.8,20.5,8.4c5,5.6,7.6,13.4,7.6,23.3s-2.5,17.7-7.6,23.3c-5,5.6-11.9,8.4-20.5,8.4S228.2,689.4,223.2,683.8z
			 M243.8,649.2c-4.6,0-6.9,3.7-6.9,11.2s2.3,11.2,6.9,11.2c4.6,0,6.9-3.7,6.9-11.2S248.4,649.2,243.8,649.2L243.8,649.2z"/>
		<path class="st5" d="M302.6,690c0,0.7-4.2,1.1-12.5,1.1c-6.5-0.1-9.8-0.4-9.8-1v-83.1c0-1.2,3.9-1.8,11.8-1.8
			c6.9,0.2,10.4,0.6,10.4,1.2L302.6,690z"/>
		<path class="st5" d="M316.2,669c6.6,4,11.8,6,15.6,6c2.4,0,3.7-0.9,3.7-2.6c0-1.2-2.1-2.8-6.3-4.8c-10.2-4.2-15.3-10.9-15.2-20.4
			c0-6,2.2-10.6,6.6-13.8c4.6-3.2,10.2-4.9,15.8-4.8c5.3-0.1,10.5,0.6,15.6,2c4.3,1.3,6.4,3,6.4,5.1c0,1.8-0.9,4.2-2.6,7.1
			s-3,4.5-3.6,4.8c-3.5-1.9-7.4-3-11.3-2.9c-2.2,0-3.3,0.8-3.3,2.3c0,1,0.5,1.9,1.3,2.5c1.5,1,3,1.9,4.7,2.6c2.3,1,4.2,1.9,5.7,2.7
			c1.8,1,3.5,2.1,5.1,3.4c3.8,2.8,6,7.3,5.9,12.1c0,6.5-2.2,11.8-6.5,15.8c-4.3,4-10.8,6-19.5,6c-5.4,0.1-10.7-0.9-15.7-2.9
			c-4.7-2-7.1-4.6-7.1-8.1c0-2.5,0.6-4.9,1.6-7.2C313.9,671.5,315,669.9,316.2,669z"/>
		<path class="st5" d="M390.8,623.2c0,0.6-3.7,0.9-11.2,0.9s-11.2-0.2-11.2-0.7v-17.6c0-0.8,3.7-1.2,11.2-1.2s11.2,0.2,11.2,0.7
			V623.2z M390.8,690.3c0,0.7-3.7,1-11.2,1s-11.2-0.3-11.2-0.9v-59.9c0-0.6,3.7-0.9,11.2-0.8c7.4,0,11.2,0.3,11.2,0.7V690.3z"/>
		<path class="st5" d="M424,690c0,0.7-4.2,1.1-12.5,1.1c-6.5-0.1-9.8-0.4-9.8-1v-83.1c0-1.2,3.9-1.8,11.8-1.8
			c6.9,0.2,10.4,0.6,10.4,1.2V690z"/>
		<path class="st5" d="M457.2,690c0,0.7-4.1,1.1-12.5,1.1c-6.5-0.1-9.8-0.4-9.8-1v-83.1c0-1.2,3.9-1.8,11.8-1.8
			c6.9,0.2,10.4,0.7,10.4,1.3V690z"/>
		<path class="st5" d="M473.5,683.8c-5.1-5.6-7.6-13.4-7.6-23.3s2.5-17.7,7.6-23.3c5.1-5.6,11.9-8.4,20.6-8.4s15.5,2.8,20.5,8.4
			c5,5.6,7.6,13.4,7.6,23.3s-2.5,17.7-7.6,23.3c-5,5.6-11.9,8.4-20.5,8.4S478.6,689.4,473.5,683.8z M494.1,649.2
			c-4.6,0-6.9,3.7-6.9,11.2c0,7.5,2.3,11.2,6.9,11.2c4.6,0,6.9-3.7,6.9-11.2C501,652.9,498.7,649.2,494.1,649.2L494.1,649.2z"/>
	</g>
</g>
<g id="Layer_2" class="st6">
	<g id="Capa_7_00000138551101520721380770000015839645141516677520_" class="st7">
		<circle class="st0" cx="320.9" cy="452.2" r="320.9"/>
	</g>
	<g id="bolsillo_00000106108901089267476920000003116534896771632566_" class="st7">
		<path class="st5" d="M225.8,607.3c0,8.5-3.7,14.9-11,19.3c4,1.5,7.5,4.1,10,7.6c2.7,3.6,4,8.6,4,15.2s-2.4,11.7-7.2,15.5
			c-4.8,3.8-11.8,5.7-20.8,5.7h-28.8c-1.3,0-2.5-0.5-3.4-1.4c-0.9-1-1.4-2.4-1.3-3.7v-78.1c-0.3-0.9,0.2-1.9,1.1-2.2
			c0.3-0.1,0.7-0.1,1.1,0h27.8C216.2,585.2,225.8,592.6,225.8,607.3z M190.6,605v16h0.6c7.8,0,11.7-2.6,11.7-7.8
			c0-2.8-0.8-4.9-2.3-6.2s-4-2-7.5-2L190.6,605z M190.6,635.3v15.9h2.1c3.5,0,6.1-0.7,7.7-2c1.6-1.3,2.4-3.4,2.4-6.2s-0.8-4.8-2.3-6
			s-4-1.7-7.5-1.7L190.6,635.3z"/>
		<path class="st5" d="M243,663.4c-5.1-5.6-7.6-13.4-7.6-23.3c0-9.9,2.6-17.7,7.6-23.3c5.1-5.6,11.9-8.4,20.5-8.4
			c8.6,0,15.5,2.8,20.5,8.4c5,5.6,7.6,13.4,7.6,23.3c0,9.9-2.5,17.7-7.6,23.3c-5,5.6-11.9,8.4-20.5,8.4
			C254.9,671.8,248.1,669,243,663.4z M263.6,628.7c-4.6,0-6.9,3.7-6.9,11.2c0,7.5,2.3,11.2,6.9,11.2c4.6,0,6.9-3.7,6.9-11.2
			S268.2,628.8,263.6,628.7L263.6,628.7z"/>
		<path class="st5" d="M322.5,669.6c0,0.7-4.1,1.1-12.5,1.1c-6.5-0.1-9.8-0.4-9.8-1v-83.1c0-1.2,3.9-1.8,11.8-1.8
			c6.9,0.2,10.4,0.7,10.4,1.2V669.6z"/>
		<path class="st5" d="M336,648.6c6.6,4,11.8,6,15.6,6c2.4,0,3.7-0.9,3.7-2.6c0-1.2-2.1-2.8-6.3-4.8c-10.2-4.1-15.2-10.9-15.2-20.4
			c0-6,2.2-10.6,6.6-13.8c4.6-3.2,10.2-4.9,15.8-4.8c5.3-0.1,10.5,0.5,15.6,2c4.3,1.3,6.4,3,6.4,5.1c0,1.8-0.9,4.2-2.6,7.1
			s-3,4.5-3.6,4.8c-3.5-1.9-7.4-3-11.3-2.9c-2.2,0-3.3,0.8-3.3,2.3c0,1,0.5,1.9,1.3,2.5c1.5,1,3,1.9,4.7,2.6c2.3,1,4.2,1.9,5.7,2.8
			c1.8,1,3.5,2.1,5.1,3.4c3.8,2.8,6,7.3,5.9,12.1c0,6.5-2.2,11.8-6.5,15.8c-4.3,4-10.8,6-19.5,6c-5.4,0.1-10.7-0.9-15.7-2.9
			c-4.7-2-7.1-4.6-7.1-8c0-2.5,0.6-4.9,1.6-7.2C333.8,651.1,334.9,649.5,336,648.6z"/>
		<path class="st5" d="M410.7,602.8c0,0.6-3.7,0.9-11.2,0.8c-7.4,0-11.2-0.3-11.2-0.7v-17.6c0-0.8,3.7-1.2,11.2-1.2
			c7.4,0,11.2,0.2,11.2,0.7V602.8z M410.7,669.9c0,0.7-3.7,1-11.2,1c-7.4,0-11.2-0.3-11.2-0.8v-59.9c0-0.6,3.7-0.9,11.2-0.9
			s11.2,0.2,11.2,0.7V669.9z"/>
		<path class="st5" d="M449.8,669.9c0,1-3.4,1.5-10.2,1.5c-8.1-0.3-12.2-0.8-12.2-1.6v-43.2h-6.2c-1.6,0-2.4-2.8-2.4-8.4
			c0-1.8,0.2-3.6,0.4-5.4c0.3-2.1,0.9-3.2,1.8-3.2h6.5v-10.7c0-1.6,3.4-2.4,10.3-2.4c6.9,0,10.3,0.7,10.3,2v7.8l0.1,3.4h10.4
			c1.4,0,2.1,2.8,2.1,8.5c0,5.7-0.7,8.5-2.1,8.5h-8.7V669.9z"/>
		<path class="st5" d="M471.9,663.4c-5.1-5.6-7.6-13.4-7.6-23.3c0-9.9,2.5-17.7,7.6-23.3c5.1-5.6,11.9-8.4,20.6-8.4
			c8.6,0,15.5,2.8,20.5,8.4c5,5.6,7.6,13.4,7.6,23.3c0,9.9-2.5,17.7-7.6,23.3c-5,5.6-11.9,8.4-20.5,8.4S476.9,669,471.9,663.4z
			 M492.5,628.7c-4.6,0-6.9,3.7-6.9,11.2c0,7.5,2.3,11.2,6.9,11.2c4.6,0,6.9-3.7,6.9-11.2S497.1,628.8,492.5,628.7z"/>
	</g>
	<g id="bolso_chico1" class="st7">
		
			<linearGradient id="SVGID_00000039116471448691457370000002657924276416115872_" gradientUnits="userSpaceOnUse" x1="193.3047" y1="658.2346" x2="391.6359" y2="658.2346" gradientTransform="matrix(1 0 0 -1 0 937.5906)">
			<stop  offset="0" style="stop-color:#07827F"/>
			<stop  offset="0.1" style="stop-color:#1F9292"/>
			<stop  offset="0.27" style="stop-color:#40A8AC"/>
			<stop  offset="0.44" style="stop-color:#5AB8C0"/>
			<stop  offset="0.61" style="stop-color:#6DC5CF"/>
			<stop  offset="0.8" style="stop-color:#77CCD7"/>
			<stop  offset="1" style="stop-color:#7BCEDA"/>
		</linearGradient>
		<path style="fill:url(#SVGID_00000039116471448691457370000002657924276416115872_);" d="M326.6,557.9c-6.1,1.4-12.1,0.6-18.2-0.2
			c-7.3-0.9-14.4-2.7-21.2-5.4c-11.6-4.5-20-13.5-25.7-25.8c-7.2-15.1-11.6-31.3-13.1-48c-1-12.8-0.3-25.4,0.6-38.1
			c1.1-16.1,4.4-31.9,6.7-47.8c2.1-14.4,4.2-28.8,3.4-43.4c-1.1-21.9-5.4-43-14-62.8c-6.4-14.9-14.2-28.8-21.6-43
			c-12.1-23.3-21.5-47.9-26.8-74.5c-1.6-8-2.1-16.2-3-24.4c-2.4-21.9,3.8-40.8,14.6-58.2c2.7-4.5,5.1-9.2,7.3-14.1
			c3.2-7.1,3.3-14.3,1.7-21.9c-1.3-5.9-3.3-11.7-5.8-17.3c-1.3-3-2.4-6.1-3.8-9.1c-2.5-5.4-1-9.6,2-13.8c6.4-8.9,15-11.2,24.3-10.1
			c17.2,2,32,11.3,45.8,22.9c6.1,5,11.5,10.9,16,17.4c5.8,8.6,9.7,18.3,9.7,29.5c-0.1,5.8-1.1,11.6-3,17.1
			c-4.2,13.4-1.5,25.6,3.4,37.9c5.1,12.8,12.4,23.7,20.2,34.4c16.9,22.9,32.6,46.8,44.2,73.9c8.6,20.2,14.7,41.3,18.1,63
			c1.1,6.4,1.8,12.9,2.2,19.4c0.1,1.6,1.5,2.8,1,4.5c-0.5,0.3-1.1,0.3-1.5-0.1c-2.8-1.6-5.8-1.9-8.8-2.3c-3.9-0.4-7.8,0.2-11.4,1.8
			c-1.2,0.5-2.4,1.1-3.7,0.4c-0.4-0.4-0.6-0.8-0.7-1.4c-2.1-10.4-3.7-20.8-4.8-31.4c-1.5-14-3-27.9-6.8-41.4
			c-4.6-16.6-12.7-30.8-22.4-43.9c-11.7-15.6-23.5-31.1-33.8-48.1c-8.4-13.9-12.8-29.6-15.4-46.3c-1.7-11.2-0.2-22,1-32.9
			c0.9-7.3-0.8-14.8-4.9-21c-6.3-9.7-14.8-17.8-24.8-23.6c-5.5-3.4-11.6-5.7-18-6.9c-2.6-0.5-5.2-0.4-7.7,0.2
			c-2.8,0.8-3.1,1.8-1.7,4.6c1.9,3.7,3.8,7.3,5.4,11.2c3,7.6,3.3,15.6,2.8,23.7c-0.8,14.3-6.1,26.6-11.9,38.9
			c-3.1,6.6-6.1,13.2-8.6,20.1c-3.8,10.6-4.8,21.9-3,33c2.5,16.5,6,32.8,11.8,48.2c4.4,11.8,10.4,22.5,16.4,33.2
			c5.6,10.1,11.2,20.1,16.2,30.6c7.6,15.9,12.7,33,17.2,50.3c2.5,9.3,4.4,18.9,5.6,28.5c0.6,6.5,0.8,13.1,0.4,19.6
			c-0.1,1.4-0.1,2.8,0,4.2c-3.2,16.1-2.6,32.8,1.7,48.7c1.6,5.9,1.9,12,1.9,18.1c0,3.2,0.2,6.4,0.2,9.5c-0.2,13.9,1.7,27.5,4.2,41
			c1.7,9.6,3.7,19,7.2,27.9c2.7,6.9,6.1,13.6,9.9,20C309,544,317,550,325,556C325.5,556.6,326.6,556.6,326.6,557.9z"/>
		
			<linearGradient id="SVGID_00000076596898276509301290000011667698596298815415_" gradientUnits="userSpaceOnUse" x1="279.43" y1="464.1535" x2="426.1846" y2="464.1535" gradientTransform="matrix(1 0 0 -1 0 937.5906)">
			<stop  offset="0" style="stop-color:#275B82"/>
			<stop  offset="0.44" style="stop-color:#2C668C"/>
			<stop  offset="1" style="stop-color:#357B9E"/>
		</linearGradient>
		<path style="fill:url(#SVGID_00000076596898276509301290000011667698596298815415_);" d="M326.6,557.9
			c-10-6.6-19.2-14.1-25.6-25.5c-8-14.2-13-29.6-15.7-46.1c-2.5-15.1-4.3-30.2-4-45.5c0.1-7.4-0.1-14.8-1.8-22.1
			c0.4-0.2,0.7,0.1,1,0.4c4.7,5.2,10.4,6.2,16.6,5c4.8-0.9,9.6-1.5,14.5-2.4c8.1-1.4,15.1,2,21.7,7.3c5.1,4,10,8.5,15.7,11.4
			c4.7,2.6,10.1,3.6,15.4,2.8c3.4-0.7,6.6-2.3,9.1-4.6c5.7-4.8,9-11.5,11.4-19c1.8-6.1,4.5-11.8,8-17.1c1.2-1.7,2.5-3.3,4-4.7
			c3.1-3.1,6.7-5.6,9.3-9.3c0.2-0.4,0.6-0.5,1-0.5c4.3,12.4,8.5,24.8,11.5,37.8c2,8.5,4.1,17.1,5.5,25.8c2.1,13.3,3,26.8,0.9,40.1
			c-2.4,15-8.7,27.7-19.2,37c-9.9,8.8-20.8,15.5-33,19.1c-6.4,1.9-12.6,4.7-19,6.8c-7.8,2.7-15.6,5.4-24,4.1
			C328.6,558.5,327.6,558.3,326.6,557.9z"/>
		<path class="st2" d="M407.1,387.9c-2.4,4.3-6.3,6.9-9.6,10.1c-3.3,3.3-6.1,7.2-8,11.4c-2.1,4.7-4,9.5-5.6,14.5
			c-1.7,5.5-4.9,10.4-9.1,14.3c-7.8,7-16.1,7.6-25.1,3.3c-6.2-3-11.5-7.6-16.9-12.1c-7.8-6.4-16.1-8.9-25.5-6.3
			c-4.3,1.1-8.7,1.8-13.1,2.1c-5.7,0.4-10.9-1-14.8-6.5c-4.6-15.5-4.8-31.2-2.2-47.2c0.2-0.8,0.4-1.5,0.7-2.2c0-2,1.2-3.2,2.3-4.4
			c5.5-5.9,11.7-10.6,18.1-15.1c16.5-11.5,34.4-19.1,52.7-25.7c4.6-1.6,9.3-2.5,13.9-4.4c0.4-0.2,0.8-0.2,1.1,0c1,0.3,2,0.2,2.9-0.3
			c7.7-3.6,15.2-3.4,22.7,0.9c2.3,2.1,3.6,5,4.9,7.9c6.4,14.4,10.4,29.8,12,45.5C408.9,378.4,408.5,383.3,407.1,387.9z"/>
		<path class="st10" d="M357.8,420.1c0-2.3,0.5-4.3,2.6-5.3s3.8,0.1,5.2,2c1.7,2.1,2.2,4.8,1.5,7.4c-0.5,1.9-2.1,3.4-4.1,3.5
			c-1.9,0.2-3.2-0.9-4.1-2.8C358.1,423.4,357.8,421.8,357.8,420.1z"/>
	</g>
</g>
</svg>
