<svg id="Layer_2" data-name="Layer 2" xmlns="http://www.w3.org/2000/svg" xmlns:xlink="http://www.w3.org/1999/xlink" viewBox="0 0 641.7 773.03"><defs><style>.cls-1{fill:#6cc7b8;isolation:isolate;opacity:0.34;}.cls-2{fill:#018f86;}.cls-3{fill:url(#linear-gradient);}.cls-4{fill:url(#linear-gradient-2);}.cls-5{fill:#112639;}.cls-6{fill:#7bcdd8;}</style><linearGradient id="linear-gradient" x1="193.3" y1="658.23" x2="391.64" y2="658.23" gradientTransform="matrix(1, 0, 0, -1, 0, 937.59)" gradientUnits="userSpaceOnUse"><stop offset="0" stop-color="#07827f"/><stop offset="0.1" stop-color="#1f9292"/><stop offset="0.27" stop-color="#40a8ac"/><stop offset="0.44" stop-color="#5ab8c0"/><stop offset="0.61" stop-color="#6dc5cf"/><stop offset="0.8" stop-color="#77ccd7"/><stop offset="1" stop-color="#7bceda"/></linearGradient><linearGradient id="linear-gradient-2" x1="279.43" y1="464.15" x2="426.18" y2="464.15" gradientTransform="matrix(1, 0, 0, -1, 0, 937.59)" gradientUnits="userSpaceOnUse"><stop offset="0" stop-color="#275b82"/><stop offset="0.44" stop-color="#2c668c"/><stop offset="1" stop-color="#357b9e"/></linearGradient></defs><g id="Capa_7" data-name="Capa 7"><circle class="cls-1" cx="320.85" cy="452.18" r="320.85"/></g><g id="bolsillo"><path class="cls-2" d="M225.77,607.28q0,12.69-11,19.28a21.67,21.67,0,0,1,10,7.56q4,5.37,4,15.19t-7.25,15.55q-7.26,5.75-20.8,5.74h-28.8a4.47,4.47,0,0,1-3.41-1.41,5.1,5.1,0,0,1-1.34-3.72V587.39a1.75,1.75,0,0,1,1.12-2.19,1.78,1.78,0,0,1,1.07,0h27.82Q225.77,585.2,225.77,607.28ZM190.64,605v16h.61q11.72,0,11.71-7.8c0-2.85-.75-4.92-2.26-6.23s-4-1.95-7.5-1.95Zm0,30.38V651.2h2.13q5.25,0,7.69-2c1.63-1.3,2.44-3.38,2.44-6.22s-.75-4.84-2.26-6-4-1.71-7.5-1.71Z" transform="translate(0 0)"/><path class="cls-2" d="M243,663.4q-7.63-8.42-7.63-23.3T243,616.8q7.62-8.43,20.55-8.42t20.5,8.42q7.56,8.41,7.56,23.3t-7.56,23.3q-7.56,8.42-20.5,8.42T243,663.4Zm20.61-34.65q-6.89,0-6.89,11.23t6.89,11.22q6.9,0,6.9-11.22t-6.9-11.23Z" transform="translate(0 0)"/><path class="cls-2" d="M322.48,669.62q0,1.1-12.45,1.1c-6.5-.08-9.76-.41-9.76-1V586.66q0-1.83,11.84-1.83c6.91.25,10.37.65,10.37,1.22Z" transform="translate(0 0)"/><path class="cls-2" d="M336,648.64q9.89,6,15.62,6,3.66,0,3.66-2.57,0-1.83-6.35-4.75-15.26-6.23-15.25-20.38,0-9,6.59-13.78a26.17,26.17,0,0,1,15.8-4.76,54.14,54.14,0,0,1,15.61,2q6.41,2,6.41,5.12c0,1.79-.88,4.15-2.62,7.08s-3,4.51-3.6,4.76a23,23,0,0,0-11.35-2.93c-2.19,0-3.29.77-3.29,2.32a3.09,3.09,0,0,0,1.28,2.5,23.26,23.26,0,0,0,4.7,2.56c2.27,1,4.16,1.93,5.67,2.75a37.66,37.66,0,0,1,5.06,3.41A14.66,14.66,0,0,1,379.82,650q0,9.76-6.47,15.8t-19.52,6a41,41,0,0,1-15.74-2.93q-7.06-2.93-7.07-8a18.25,18.25,0,0,1,1.64-7.2Q334.31,649.86,336,648.64Z" transform="translate(0 0)"/><path class="cls-2" d="M410.68,602.77q0,.86-11.16.85t-11.16-.73V585.32q0-1.22,11.16-1.22c7.44,0,11.16.24,11.16.73Zm0,67.1q0,1-11.16,1T388.36,670v-59.9q0-.86,11.16-.86c7.44,0,11.16.25,11.16.73Z" transform="translate(0 0)"/><path class="cls-2" d="M449.77,669.87c0,1-3.41,1.46-10.25,1.46-8.13-.33-12.2-.85-12.2-1.59V626.52H421.1q-2.44,0-2.44-8.42a40.21,40.21,0,0,1,.43-5.37c.28-2.11.87-3.17,1.77-3.17h6.46v-10.7q0-2.43,10.31-2.44t10.31,2v7.81l.12,3.42h10.37q2.08,0,2.08,8.54t-2.08,8.54h-8.66Z" transform="translate(0 0)"/><path class="cls-2" d="M471.86,663.4q-7.62-8.42-7.62-23.3t7.62-23.3q7.63-8.43,20.56-8.42t20.5,8.42q7.56,8.41,7.56,23.3t-7.56,23.3q-7.57,8.42-20.5,8.42T471.86,663.4Zm20.62-34.65q-6.89,0-6.89,11.23t6.89,11.22q6.9,0,6.9-11.22T492.48,628.75Z" transform="translate(0 0)"/></g><g id="bolso_chico1" data-name="bolso chico1"><path class="cls-3" d="M326.58,557.93c-6.06,1.42-12.1.62-18.17-.15a87.91,87.91,0,0,1-21.17-5.39c-11.62-4.55-20-13.53-25.69-25.85a140.09,140.09,0,0,1-13.11-48c-1.05-12.75-.33-25.4.57-38.08,1.14-16.14,4.4-31.86,6.72-47.76,2.1-14.36,4.16-28.76,3.44-43.4-1.08-21.94-5.42-43-14-62.76-6.42-14.85-14.21-28.77-21.57-43-12.09-23.33-21.49-47.93-26.78-74.49-1.59-8-2.15-16.23-3-24.38-2.41-21.93,3.83-40.83,14.61-58.22a126.23,126.23,0,0,0,7.26-14.06c3.23-7.09,3.3-14.33,1.66-21.85a88.32,88.32,0,0,0-5.83-17.28c-1.33-3-2.44-6.12-3.81-9.08-2.48-5.36-1-9.63,2-13.81C216.1,1.48,224.71-.84,234,.25c17.23,2,32,11.31,45.76,22.86a85.32,85.32,0,0,1,16,17.41c5.83,8.61,9.67,18.29,9.66,29.49a56.6,56.6,0,0,1-3,17c-4.25,13.36-1.5,25.62,3.39,37.9,5.09,12.78,12.38,23.73,20.2,34.36,16.87,22.92,32.56,46.78,44.2,73.9a267.36,267.36,0,0,1,18.11,63,166.93,166.93,0,0,1,2.2,19.43c.07,1.58,1.5,2.77,1,4.51a1.41,1.41,0,0,1-1.53-.06c-2.81-1.56-5.79-1.94-8.85-2.32a21.82,21.82,0,0,0-11.41,1.82c-1.22.52-2.43,1.1-3.74.36a2.21,2.21,0,0,1-.65-1.36c-2.06-10.36-3.73-20.8-4.83-31.36-1.45-14-3-27.9-6.76-41.42C349.18,229.18,341.11,215,331.34,202c-11.69-15.62-23.5-31.15-33.75-48.09-8.4-13.9-12.8-29.65-15.4-46.27-1.74-11.19-.24-22,1-32.94a30.72,30.72,0,0,0-4.91-20.95,74.09,74.09,0,0,0-24.77-23.64,52.31,52.31,0,0,0-18-6.88,17.69,17.69,0,0,0-7.73.23c-2.79.79-3.1,1.81-1.68,4.62,1.85,3.67,3.83,7.26,5.35,11.16,3,7.6,3.29,15.61,2.84,23.68-.78,14.26-6.12,26.65-11.93,38.85-3.13,6.56-6.13,13.2-8.64,20.14a66.48,66.48,0,0,0-3,33c2.49,16.52,6,32.75,11.78,48.24,4.37,11.79,10.41,22.5,16.38,33.23,5.6,10.06,11.21,20.12,16.21,30.61,7.59,15.94,12.72,33,17.2,50.34a212,212,0,0,1,5.64,28.47,128.28,128.28,0,0,1,.43,19.6,33.17,33.17,0,0,0,0,4.23A107.21,107.21,0,0,0,280,418.27c1.59,5.9,1.86,12,1.86,18.1,0,3.18.22,6.37.17,9.55-.24,13.89,1.72,27.48,4.16,41,1.72,9.56,3.7,19,7.24,27.93a129.78,129.78,0,0,0,9.94,20C309,544,317,550.05,325,556,325.52,556.61,326.6,556.58,326.58,557.93Z" transform="translate(0 0)"/><path class="cls-4" d="M326.58,557.93c-10-6.57-19.18-14.11-25.59-25.5-8-14.16-13-29.57-15.72-46.13-2.53-15.09-4.26-30.18-4-45.55.13-7.42-.06-14.85-1.84-22.1.42-.17.74.08,1,.39,4.74,5.25,10.39,6.19,16.59,5,4.8-.92,9.65-1.54,14.46-2.38,8.09-1.4,15.08,2,21.66,7.28,5.1,4,10,8.48,15.7,11.44a24.44,24.44,0,0,0,15.38,2.85,19.45,19.45,0,0,0,9.14-4.59c5.74-4.76,9-11.55,11.41-19a65.3,65.3,0,0,1,8-17.13,32.91,32.91,0,0,1,4-4.74c3.14-3.06,6.68-5.58,9.29-9.34a.91.91,0,0,1,1-.46c4.31,12.4,8.48,24.84,11.53,37.77,2,8.54,4.09,17.08,5.49,25.77,2.14,13.3,3,26.81.89,40.12-2.36,15-8.74,27.68-19.25,37-9.9,8.83-20.82,15.47-33.05,19.06-6.42,1.89-12.62,4.65-19,6.81-7.8,2.65-15.64,5.44-24,4.06A12.57,12.57,0,0,1,326.58,557.93Z" transform="translate(0 0)"/><path class="cls-5" d="M407.08,387.93c-2.44,4.3-6.27,6.85-9.58,10.05a38.11,38.11,0,0,0-8,11.43,149.84,149.84,0,0,0-5.61,14.45,33.75,33.75,0,0,1-9.06,14.33c-7.78,7.05-16.14,7.63-25.13,3.35-6.24-3-11.53-7.64-16.93-12.08-7.79-6.4-16.07-8.9-25.49-6.35a68,68,0,0,1-13.08,2.06c-5.66.39-10.93-1-14.78-6.52-4.59-15.5-4.81-31.25-2.25-47.16a17.43,17.43,0,0,1,.66-2.24c0-2,1.21-3.19,2.3-4.38,5.46-5.94,11.7-10.65,18.1-15.12,16.48-11.5,34.39-19.13,52.66-25.74,4.57-1.65,9.35-2.46,13.86-4.42a1.29,1.29,0,0,1,1.12,0,3.33,3.33,0,0,0,2.88-.32c7.67-3.59,15.25-3.43,22.73.88,2.29,2.1,3.61,5,4.91,7.92a147.78,147.78,0,0,1,12,45.45A36.57,36.57,0,0,1,407.08,387.93Z" transform="translate(0 0)"/><path class="cls-6" d="M357.77,420.1c0-2.34.54-4.34,2.63-5.31s3.85.06,5.2,2a8,8,0,0,1,1.45,7.36,4.73,4.73,0,0,1-4.14,3.55c-1.9.22-3.16-.94-4.06-2.76A10.83,10.83,0,0,1,357.77,420.1Z" transform="translate(0 0)"/></g></svg>