<?xml version="1.0" encoding="utf-8"?>
<!-- Generator: Adobe Illustrator 25.4.1, SVG Export Plug-In . SVG Version: 6.00 Build 0)  -->
<svg version="1.1" xmlns="http://www.w3.org/2000/svg" xmlns:xlink="http://www.w3.org/1999/xlink" x="0px" y="0px"
	 viewBox="0 0 641.7 999.9" style="enable-background:new 0 0 641.7 999.9;" xml:space="preserve">
<style type="text/css">
	.st0{opacity:0.34;fill:#6CC7B8;enable-background:new    ;}
	.st1{fill:#018F86;}
	.st2{fill:url(#SVGID_1_);}
	.st3{fill:#112639;}
	.st4{fill:#7BCDD9;}
	.st5{display:none;}
	.st6{display:inline;}
	.st7{fill:url(#SVGID_00000173158715411156570480000004920553089250726581_);}
	.st8{fill:#1B6160;}
	.st9{fill:#48B4A7;}
	.st10{fill:#F5F4F5;}
</style>
<g id="Layer_1">
	<g id="Capa_7">
		<circle class="st0" cx="320.9" cy="679" r="320.9"/>
	</g>
	<g id="bolsillo">
		<path class="st1" d="M177.1,813.5c4.5,1.7,6.8,3.9,6.8,6.8c0,2.8-1.1,6.4-3.2,10.6c-2.1,4.2-4,6.3-5.4,6.3c-0.5-0.1-1-0.3-1.4-0.7
			c-1.1-0.7-2.4-1.2-3.7-1.5c-1.6-0.5-3.3-0.7-4.9-0.8c-4.4-0.2-8.6,1.7-11.4,5c-2.9,3.3-4.3,8.4-4.3,15.3c0,6.9,1.5,12,4.5,15.3
			c2.8,3.3,7,5.1,11.3,5c2.1,0,4.2-0.3,6.3-0.8c1.8-0.3,3.5-1.1,4.9-2.2c0.3-0.2,0.6-0.3,1-0.2c0.5,0,1.4,0.9,2.7,2.8
			c1.5,2.2,2.8,4.6,3.7,7.2c1,2.2,1.5,4.5,1.7,6.9c0,3.2-2.4,5.7-7.3,7.6c-5.6,2-11.4,2.9-17.3,2.8c-10.8,0-19.6-3.8-26.5-11.3
			s-10.4-18.2-10.4-32c0-13.8,3.6-24.6,10.7-32.5c6.7-7.7,16.5-12,26.7-11.8C166.8,810.9,172,811.7,177.1,813.5z"/>
		<path class="st1" d="M202,853.2c-2.3-4.1-3.4-7.4-3.4-9.9c0-2.6,0.7-4.2,2.1-4.9c4.6-2,11-3,19.1-3c8.1,0,13.8,1.9,17.1,5.7
			c3.3,3.8,5,9.4,5,16.8V877h4.1c1.4,0,2.5,0.8,3.2,2.4c0.9,2.1,1.3,4.4,1.2,6.7c0,2.9-0.8,5.8-2.1,8.4c-1.4,2.8-3.4,4.2-5.8,4.2
			c-4.4,0-7.9-1.2-10.6-3.5c-1.2-0.9-2.2-2.2-2.8-3.5c-3.8,4.7-9.6,7-17.4,7c-5.7,0.1-11.1-2.2-15-6.3c-4-4-6.2-9.4-6.1-15
			c0-13.3,7.9-19.9,23.8-19.9h6.7v-1.2c0-2.1-0.3-3.5-1-4.1s-2.3-0.9-4.8-0.9C210.8,851.4,206.4,852.1,202,853.2z M211.8,875.6
			c-0.1,1.5,0.4,3,1.5,4.1c1,0.9,2.3,1.4,3.7,1.4c1.6,0,3-0.7,4.1-1.8v-9.4h-3.4C213.7,869.9,211.8,871.8,211.8,875.6z"/>
		<path class="st1" d="M284.1,897.4c0,0.6-3.7,0.8-11.1,0.8c-7.4-0.2-11.1-0.5-11.1-1v-40.5h-3.3c-1.3,0-2.3-0.8-3.1-2.4
			c-0.8-1.9-1.2-3.9-1.2-6c0-8.8,2.6-13.2,7.8-13.2c3.4-0.1,6.6,1.1,9.1,3.3c2.3,1.9,3.6,4.7,3.7,7.6c1.6-3.2,4-6,6.9-8
			c2.6-1.9,5.7-2.9,8.8-3c4.7,0,7.6,1.2,8.5,3.7c0.3,0.9,0.4,1.9,0.4,2.9c-0.2,2.3-0.6,4.6-1.2,6.8c-0.5,2.4-1.3,4.8-2.4,7.1
			c-0.8,1.5-1.3,2.2-1.5,2.2c-0.8-0.2-1.5-0.5-2.3-0.9c-1.1-0.6-2.3-0.9-3.6-0.9c-3.1,0-4.6,2.4-4.6,7.3L284.1,897.4z"/>
		<path class="st1" d="M333.8,896.7c0,1-3.4,1.5-10.2,1.5c-8.1-0.3-12.2-0.8-12.2-1.6v-43.2h-6.2c-1.6,0-2.4-2.8-2.4-8.4
			c0-1.8,0.2-3.6,0.4-5.4c0.3-2.1,0.9-3.2,1.8-3.2h6.5v-10.7c0-1.6,3.4-2.4,10.3-2.4c6.9,0,10.3,0.7,10.3,2v7.8l0.1,3.4h10.4
			c1.4,0,2.1,2.8,2.1,8.5s-0.7,8.5-2.1,8.5h-8.7L333.8,896.7z"/>
		<path class="st1" d="M396.7,894.2c-5.1,3-11.7,4.5-19.8,4.5c-7.6,0.2-15-2.8-20.4-8.2c-5.5-5.5-8.3-13.1-8.3-22.8
			c0-9.7,2.7-17.6,8-23.5c5.1-5.8,12.5-9.1,20.2-8.9c8.1,0,14.4,2.1,18.8,6.2c4.3,3.8,6.7,9.4,6.7,15.1c0,13.2-7.6,19.8-22.7,19.8
			h-8.4c0,2.4,0.7,4.1,2,5.1c1.8,1,3.9,1.5,5.9,1.4c5.6,0,11.2-1.3,16.2-3.9c0.1-0.1,0.5,0.5,1.1,1.7c2,3.5,2.9,6.5,2.9,8.8
			S398.3,893.4,396.7,894.2z M381.5,858.9c0-3.4-1.7-5.1-5-5.1c-1.5,0-2.9,0.5-4,1.4c-1.1,1-1.7,2.5-1.6,4.1v3.8h6.6
			C380.1,863,381.5,861.7,381.5,858.9z"/>
		<path class="st1" d="M436.6,897.4c0,0.6-3.7,0.8-11.1,0.8c-7.4-0.2-11.1-0.5-11.1-1v-40.5h-3.3c-1.3,0-2.3-0.8-3.1-2.4
			c-0.8-1.9-1.2-3.9-1.2-6c0-8.8,2.6-13.2,7.8-13.2c3.4-0.1,6.6,1.1,9.2,3.3c2.3,1.9,3.6,4.7,3.7,7.6c1.6-3.2,4-6,6.9-8
			c2.6-1.9,5.7-2.9,8.8-3c4.7,0,7.6,1.2,8.5,3.7c0.3,0.9,0.4,1.9,0.4,2.9c-0.2,2.3-0.6,4.6-1.2,6.8c-0.5,2.4-1.3,4.8-2.4,7.1
			c-0.8,1.5-1.3,2.2-1.5,2.2c-0.8-0.2-1.5-0.5-2.3-0.9c-1.1-0.6-2.3-0.9-3.6-0.9c-3.1,0-4.6,2.4-4.6,7.3L436.6,897.4z"/>
		<path class="st1" d="M465.9,853.2c-2.3-4.1-3.4-7.4-3.4-9.9s0.7-4.2,2.1-4.9c4.7-2,11-3,19.1-3s13.8,1.9,17.1,5.7
			c3.3,3.8,5,9.4,5,16.8V877h4.2c1.4,0,2.5,0.8,3.2,2.4c0.9,2.1,1.3,4.4,1.2,6.7c0,2.9-0.8,5.8-2.1,8.4c-1.4,2.8-3.4,4.2-5.8,4.2
			c-4.4,0-7.9-1.2-10.6-3.5c-1.2-0.9-2.2-2.2-2.8-3.5c-3.7,4.7-9.6,7.1-17.5,7.1c-5.7,0.1-11.1-2.2-15-6.3c-4-4-6.2-9.4-6.1-15
			c0-13.3,7.9-19.9,23.8-19.9h6.7v-1.2c0-2.1-0.3-3.5-1-4.1s-2.3-0.9-4.8-0.9C474.6,851.4,470.2,852.1,465.9,853.2z M475.7,875.6
			c-0.1,1.5,0.4,3,1.5,4.1c1,0.9,2.3,1.4,3.7,1.4c1.6,0,3-0.7,4.1-1.8v-9.4h-3.4C477.6,869.9,475.7,871.8,475.7,875.6z"/>
	</g>
	<g id="Capa_4">
		
			<linearGradient id="SVGID_1_" gradientUnits="userSpaceOnUse" x1="144.9577" y1="628.4803" x2="381.47" y2="628.4803" gradientTransform="matrix(1 0 0 -1 0 1043.297)">
			<stop  offset="0" style="stop-color:#275B82"/>
			<stop  offset="0.44" style="stop-color:#2C668C"/>
			<stop  offset="1" style="stop-color:#357B9E"/>
		</linearGradient>
		<path class="st2" d="M381.5,769.5c-6.6,1.6-12.9,4.5-19.5,6.3c-14.2,3.8-28.2,1.3-42.1-1.2c-22.6-4.1-44.3-11.8-66.4-17.7
			c-20.7-5.6-41.7-10.6-61.8-18.4c-5.3-2.1-10.6-4.2-15.7-6.6c-19.5-9.4-29.4-25.3-30.7-46.6c-0.9-14.9,0.5-29.8,1.3-44.6
			c1.4-24.1,2.7-48.1,5.5-72.1c0.9-7.6,1.3-15.8,5.3-22.3c5.4-8.8,5.3-18.3,5.8-27.6c1.9-35.6,11.2-68.9,29-99.7
			c1.2-2.1,2.3-4.4,3.8-6.4c13.2-18.8,21.8-40,32.1-60.3c9.2-18.1,18.2-36.4,28.1-54.1c16-28.4,25.2-58.9,29.8-91.1
			c2.2-15.3,2-30.6,1.9-46c-0.1-15.6-0.8-31.2,1.3-46.7c2.8-22,12.1-42.6,26.7-59.2c0.4-0.4,0.7-0.9,1-1.4
			c11.4-1.7,22.8-2.8,34.3-0.7c1.8,1.8,0.2,3.3-0.6,4.7c-5.5,9.5-9.7,19.7-12.7,30.4c-2.5,9.6-3.5,19.5-4.4,29.4
			c-0.9,11-0.2,22-0.7,32.9c-1.3,33.2-5.9,66.2-13.6,98.5c-7.9,33.2-19.8,65.2-35.4,95.5c-11.1,21.4-23.1,42.3-35.1,63.2
			c-8.4,14.6-17.2,29.1-23.7,44.8c-4.6,11.2-8.3,22.6-11.2,34.4c-0.5,1.3-0.5,2.8,0,4.1c0.5,1.7-1,1.8-1.9,2.4
			c-5.7,3.7-11.4,7.3-16.7,11.6c-0.8,0.6-1.4,1.1-1.3,2.2c-3.1,1.3-5.6,3.2-6.3,6.8c-2.2,0.4-4.2,1.6-5.5,3.5
			c-3.5,4.2-7.1,8.2-10.9,12.2c-1.2,1.1-2.1,2.6-2.5,4.2c14.1-4.1,27.2,0.5,40.2,4.1c30.4,8.3,60.7,17.2,90,29.1
			c15.8,6.4,31.5,12.8,47.4,19c10,3.9,16.2,10.5,17.7,21.5c1.3,10,2.3,19.9,3.4,29.9c1.2,11.1,0.7,22.2,0.7,33.3
			c-0.1,23.6,0.1,47.2,0.2,70.8c0,5.2,0.5,10.4,0.7,15.5c0.3,6.1,3.9,10,9.9,11.3C379.9,768.6,380.9,768.6,381.5,769.5z"/>
		<path class="st3" d="M381.5,769.5c-9.2,0.1-13.4-7.1-13.7-14.5c-0.7-23.2,0-46.5-0.8-69.8c-0.3-11,0.5-21.9,0.2-32.9
			c-0.3-10.7-1.4-21.4-2.7-32c-0.5-4.4-1-8.9-1.6-13.3c-1.2-9.5-6.3-15.9-15.1-19.3c-26.6-10.3-52.6-22.2-79.8-31.1
			c-20.6-6.8-41.3-13.3-62.3-18.6c-7.2-1.8-14.4-3.8-21.7-4.6c-5.9-0.6-11.8,0.1-17.4,2.1c1-2.8,2.5-5.3,4.6-7.4
			c3.8-4.5,8-8.7,11.7-13.3c1.6-2,3.5-1.3,5.4-1.6c0.6-0.6,1.5-0.8,2.3-0.6c14.2,1.8,28.4,3.3,42.2,7.1c13.3,3.7,26.5,7.7,39.8,11.6
			c8.2,2.4,16.1,5.3,24,8.5s16.5,4.3,24.7,6.3c18.2,4.5,35.5,10.8,50.8,21.8c0.8,0.6,1.6,1.1,2.4,1.5c0.6,0.4,1.4,0.3,1.9-0.2
			c2-2.2,1.6-7.3-0.8-9.2c-8.5-6.7-18.6-10.2-28.5-13.9c-10.6-3.8-21.4-6.6-32.5-8.5c-12.5-2.3-24.1-7.7-36.2-11.3
			c-15.3-4.6-30.5-9.2-45.9-13.4c-9-2.5-18.4-2.8-27.7-3.7c-3.7-0.4-7.6,0.1-10.8-2.5c-1.2-0.8-0.5-1.3,0.3-2
			c6.1-5.1,12.6-9.5,19.6-13.4c0.7-1.5,2.2-1.7,3.5-2.1c11.6-2.8,23.6-3.8,35.5-3c12,0.8,24,2,35.8,4.6c11.3,2.6,22.3,6.2,33,10.8
			c20.6,8.6,41.2,17.3,61.7,26.2c4,1.7,4,1.6,5.3-2.6c8.4-27.2,15-55,19.8-83.1c2.4-13.4,1.8-26.8,1.1-40.3
			c-0.4-7.5-0.5-15.1-0.9-22.6c-0.3-6.2-0.2-12.5-0.1-18.8c0.4-24-1.6-48-6-71.6c-1.8-10.5-2.7-21.1-2.7-31.7
			c-0.1-9.2-1-18.4-0.8-27.6c0.3-14.8,1.4-29.5,2.6-44.2c1.6-18.8,4.1-37.6,2.9-56.6c-1-15.1-3.7-29.9-11-43.3
			c-5-9.3-12.1-17.4-20.6-23.6c-4.8-3.5-10.4-5.8-16.2-6.7c-1.7-0.3-3.6-0.3-5-1.6c-10.6-1.1-21.3-1-31.9,0.5c-1,0.1-2.1,0.3-3-0.5
			c21.7-18.9,45.9-24.1,73-13.1c19.9,8,33,23.2,43.4,41.2s14.3,37.9,16.4,58.3c2.5,24.5-0.2,48.8-3.6,73.1
			c-2.2,15.8-4.1,31.6-5.5,47.5c-2,22.4,1.8,44.3,5.2,66.2c7.2,45.5,7.8,91.3,3.3,137.1c-3.2,32.6-8.1,65-12,97.5
			c-2.1,17-0.2,33.7,2,50.5c3.8,29.4,6.8,58.9,8.3,88.6c1,19.2-6.3,34.4-21,46.5c-12.1,10.1-26.2,17.5-41.4,21.8
			C383.8,769.2,382.6,769.4,381.5,769.5z"/>
		<path class="st4" d="M193.9,506.9c9.9,2,20,2,29.9,3.5c7.4,1.1,14.6,2.8,21.7,5.3c11.4,4.2,23.6,6.1,35,10.5
			c17,6.6,34.7,10.8,52.5,14.8c11.2,2.5,21.8,6.9,32.2,11.7c2.4,1.1,4.6,2.3,6.8,3.8c9.2,6.4,8.1,4.3,4.7,15.7
			c-3.1-2-6.3-3.8-9.3-5.9c-12.5-9-26.8-14.1-41.5-17.7c-15.4-3.6-30.5-8.1-45.4-13.4c-12.4-4.5-25.4-7.4-38-11.4
			c-13.4-4.2-27.1-6.6-40.8-8.7c-4.4-0.7-8.9-1.1-13.4-1.7c-1.6-0.5-2.9-1.1-0.7-2.7C189.5,509.2,190.8,506.6,193.9,506.9z"/>
	</g>
</g>
<g id="Layer_2" class="st5">
	<g class="st6">
		<g id="Capa_7_00000082360546401152053280000013663406353086845623_">
			<circle class="st0" cx="320.9" cy="679" r="320.9"/>
		</g>
		<g id="bolsillo_00000166658700380782682660000004115055299472710823_">
			<path class="st1" d="M143.7,895.5c0,1.6-4,2.4-12.1,2.4c-8.1,0-12.1-0.8-12.1-2.4v-61.2h-14.6c-1.4,0-2.4-1.9-2.9-5.6
				c-0.5-3.7-0.5-7.3,0-11c0.6-3.7,1.5-5.6,2.9-5.6H158c1.4,0,2.4,1.9,2.9,5.6c0.5,3.7,0.5,7.3,0,11c-0.6,3.7-1.5,5.6-2.9,5.6h-14.3
				V895.5z"/>
			<path class="st1" d="M168.6,890.3c-5.1-5.6-7.6-13.4-7.6-23.3c0-9.9,2.5-17.7,7.6-23.3c5.1-5.6,11.9-8.4,20.5-8.4
				c8.6,0,15.5,2.8,20.5,8.4c5,5.6,7.6,13.4,7.6,23.3c0,9.9-2.5,17.7-7.6,23.3c-5.1,5.6-11.9,8.4-20.5,8.4S173.7,895.9,168.6,890.3z
				 M189.3,855.6c-4.6,0-6.9,3.7-6.9,11.2c0,7.5,2.3,11.2,6.9,11.2c4.6,0,6.9-3.7,6.9-11.2S193.9,855.6,189.3,855.6z"/>
			<path class="st1" d="M254,896.7c0,1-3.4,1.5-10.2,1.5c-8.1-0.3-12.2-0.8-12.2-1.6v-43.2h-6.2c-1.6,0-2.4-2.8-2.4-8.4
				c0-1.8,0.2-3.6,0.4-5.4c0.3-2.1,0.9-3.2,1.8-3.2h6.5v-10.7c0-1.6,3.4-2.4,10.3-2.4c6.9,0,10.3,0.7,10.3,2v7.8l0.1,3.4h10.4
				c1.4,0,2.1,2.8,2.1,8.5c0,5.7-0.7,8.5-2.1,8.5H254V896.7z"/>
			<path class="st1" d="M316.9,894.2c-5.1,3-11.7,4.5-19.8,4.5c-7.6,0.2-15-2.8-20.3-8.2c-5.5-5.5-8.3-13.1-8.3-22.8
				c0-9.7,2.7-17.5,8-23.5c5.1-5.8,12.5-9.1,20.2-8.9c8.1,0,14.4,2.1,18.8,6.2c4.3,3.8,6.7,9.4,6.7,15.1c0,13.2-7.6,19.8-22.7,19.8
				h-8.4c0,2.4,0.7,4.1,2,5.1c1.8,1,3.9,1.5,5.9,1.4c5.6,0,11.2-1.3,16.2-3.9c0.1-0.1,0.4,0.5,1.1,1.7c2,3.5,2.9,6.5,2.9,8.8
				S318.5,893.4,316.9,894.2z M301.7,858.9c0-3.4-1.7-5.1-5-5.1c-1.5,0-2.9,0.5-4,1.4c-1.1,1-1.8,2.5-1.7,4.1v3.8h6.6
				C300.3,863,301.7,861.7,301.7,858.9z"/>
			<path class="st1" d="M353.6,812.4c0-1,3.5-1.5,10.6-1.5c7,0,10.6,0.5,10.5,1.6v23.7c2.4-0.5,4.9-0.9,7.4-1
				c17.1,0,25.6,9.8,25.6,29.4c0,10.9-2.6,19.3-7.9,25.2s-12.7,8.8-22.3,8.8c-9.6,0-17.6-2.2-24-6.5L353.6,812.4z M378.8,854.3
				c-1.4,0-2.8,0.5-4,1.3v23.3c1.1,0.5,2.4,0.7,3.6,0.7c1.4-0.1,2.8-0.6,3.8-1.5c2.3-1.6,3.4-5.4,3.4-11.3
				C385.6,858.5,383.4,854.3,378.8,854.3z"/>
			<path class="st1" d="M424.2,853.2c-2.3-4.1-3.4-7.4-3.4-9.9c0-2.6,0.7-4.2,2.1-4.9c4.6-2,11-3,19.1-3c8.1,0,13.8,1.9,17.1,5.7
				c3.3,3.8,5,9.4,5,16.8V877h4.2c1.4,0,2.5,0.8,3.2,2.4c0.9,2.1,1.3,4.4,1.2,6.7c0,2.9-0.8,5.8-2.1,8.4c-1.4,2.8-3.4,4.2-5.8,4.2
				c-4.4,0-7.9-1.2-10.6-3.5c-1.2-0.9-2.2-2.2-2.8-3.5c-3.7,4.7-9.6,7.1-17.4,7.1c-5.7,0.1-11.1-2.2-15-6.4c-4-4-6.2-9.4-6.1-15
				c0-13.3,7.9-19.9,23.8-19.9h6.7v-1.2c0-2.1-0.3-3.5-1-4.1s-2.3-0.9-4.8-0.9C432.9,851.4,428.5,852.1,424.2,853.2z M433.9,875.6
				c-0.1,1.5,0.4,3,1.5,4.1c1,0.9,2.3,1.4,3.7,1.4c1.6,0,3-0.7,4.1-1.8v-9.4h-3.4C435.9,869.9,433.9,871.8,433.9,875.6z"/>
			<path class="st1" d="M502,897.5c-7.9,0-14-2.5-18.3-7.6s-6.5-12.6-6.5-22.6s2.8-17.8,8.5-23.4s13.2-8.5,22.6-8.5
				c9.4,0,17.1,2.1,23.2,6.2v60.8c0.2,5.6-2.6,10.9-7.3,13.8c-4.9,3.2-11.1,4.8-18.8,4.8c-6.9,0.1-13.9-0.9-20.5-2.9
				c-0.8-1.7-1.2-3.4-1.2-5.2c0-5.2,0.9-9,2.6-11.5c5.5,2.4,11.4,3.6,17.4,3.5c4.5,0,6.7-1.6,6.7-4.8v-3.7
				C507.7,897,504.8,897.4,502,897.5z M507.6,855.2c-5.4,0-8.2,4.1-8.2,12.3c0,5.1,1.1,8.5,3.2,10c1.2,1,2.6,1.5,4.2,1.6
				c1.2,0,2.5-0.1,3.7-0.4v-23.2C509.5,855.4,508.6,855.2,507.6,855.2z"/>
		</g>
		<g id="Capa_5">
			
				<linearGradient id="SVGID_00000023972531817940491960000017522251707678765722_" gradientUnits="userSpaceOnUse" x1="187.0474" y1="626.9941" x2="510.542" y2="626.9941" gradientTransform="matrix(1 0 0 -1 0 1043.297)">
				<stop  offset="0" style="stop-color:#2B8776"/>
				<stop  offset="1.000000e-02" style="stop-color:#2D8878"/>
				<stop  offset="0.11" style="stop-color:#449F8F"/>
				<stop  offset="0.24" style="stop-color:#56B0A1"/>
				<stop  offset="0.38" style="stop-color:#62BDAD"/>
				<stop  offset="0.58" style="stop-color:#6AC4B5"/>
				<stop  offset="1" style="stop-color:#6CC6B7"/>
			</linearGradient>
			<path style="fill:url(#SVGID_00000023972531817940491960000017522251707678765722_);" d="M383.6,30.4c2,1.8,4.5,1.1,6.8,1.4
				c18.4,2.4,31.4,13.6,36.7,31.5c4.7,15.8,4.1,31.8,3.3,47.9c-0.5,9.9-1.4,19.7-2,29.6c-1.2,19.4-4.6,38.5-7.8,57.6
				c-2.3,13.9-3.8,27.9-5.3,42c-1.5,14.5-3.2,29.1-3.3,43.8c0,1.7-0.2,3.4,0.6,5.1c2,4.5,1.2,9.3,1.7,13.9
				c1.1,9.1,1.7,18.3,2.5,27.5c0.3,3.5,1.1,4.1,4.7,2.9c9.4-3,18.8-6.1,27.7-10.4c9.5-4.6,19.2-8.6,29.1-12.2
				c6.4,4.8,5.6,12,6.2,18.7c1.4,17.1,1,34.3,1.5,51.5c0.8,26.5,2.5,53,4.1,79.4c1.8,29.9,6,59.6,9.6,89.3
				c2.2,18.5,5.5,36.8,7.9,55.2c3.7,29.8,5,59.5-2.3,88.9c-5,20-16.4,35.7-32.6,48.3c-15.7,12.1-33.5,20-51.8,26.9
				c-20.6,7.7-40.4,17.7-61.3,24.7c-16.5,5.6-33.8,8.6-51.3,8.7c-3.4,0-6.8-0.5-10.2-0.7c-1.3-1-3,0-4.4-0.8l-1.9,0.8
				c-7.9-1-15.5-3-22.5-6.9c-19-10.7-34.2-25.2-44.2-44.7c-12.1-23.4-20.6-48.5-25.1-74.4c-2.6-15.1-6.3-30-8.1-45.2
				c-0.7-5.5-1.1-11-1.3-16.6c-0.7-18.9,0-37.8-0.7-56.6c-0.5-13.3,0.2-26.7-0.5-40c-1.1-22.8-2.7-45.6-1.9-68.4
				c0.5-14,2-27.9,6.6-41.3c0.6-1.7,1.3-3.5,2.1-5.1c3.6-7.8,9-13.6,17.7-15.7c10.6-4.3,21.4-8,32.5-11.1c3.8-1.1,5.6-2.9,6-7
				c0.7-8.1,1.1-16.2,1.8-24.4c0-1.2-0.4-2.3-1-3.3c2.2-4.5,2-9.6,2.1-14.3c0.3-10.7,1.1-21.4,2-32c1.9-21.3,4.2-42.6,9.5-63.4
				c9-35,17.6-70.2,29.8-104.3c6.2-17.3,12.4-34.5,22.7-50c10-15,22.8-26.9,38-36.4c7.2-3.7,14.3-7.6,22.3-9.1
				C380.7,31,382.2,30.7,383.6,30.4z"/>
			<path class="st1" d="M214,387.4c-16.1,4.9-19.4,18.9-22.3,32.6c-4.4,20.8-3.8,41.9-2.9,63c0.8,18,1.6,36.1,1.7,54.2
				c0.2,27.6,0.2,55.3,1.4,82.9c0.8,20,5.8,39.6,10,59.1c2.2,10.3,3.7,20.8,7.4,30.7c9.3,25.1,18.2,50.4,39.4,68.8
				c11.7,10.2,24.1,18.8,39.8,21.5c1.1,0.2,2.4,0.2,3.1,1.4c-43.4,5.1-79.9-12.3-113.9-36.3c-19.4-13.8-29.2-34.3-34-57.3
				c-5-24-7.3-48.3-10.6-72.5c-4.1-30-5.9-60.2-5.4-90.5c0.4-26.9,4.1-53.4,8.6-79.9c4.4-26.2,7.7-52.5,8.6-79.1
				c0.1-4.5,0.5-9,0.9-13.4c0.3-4.3,5.1-10.4,8.9-11.6c0.7,0.1,1.2,0.6,1.4,1.2c2.5,10.4,10.6,14.9,19.5,18.3
				c10.3,3.9,21.2,5.4,32.2,5.6C209.8,386.2,212.2,385.6,214,387.4z"/>
			<path class="st1" d="M383.6,30.4c-0.7,2.3-2.6,1.4-4,1.6c-1.5-0.5-2.2-1.8-3-3c-5-7.2-12.5-9.6-20.6-10.7c-2-0.3-3.5,0.8-5,2
				c-2,0.1-3.9,0.9-5.5,2.1c-12.3,8-23.2,18.1-32.2,29.7c-10.6,13.4-19.3,28-27.3,43.1c-8.3,15.8-16.6,31.5-22.5,48.5
				c-2.9,8.5-5.3,17.2-8,25.7c-5.1,16.4-10.7,32.6-14.9,49.3c-6.9,26.3-12.4,53-16.6,79.9c-2.3,15.8-5,31.5-6.7,47.5
				c-0.1,1.1-0.2,2.4-1.3,3.2c-8.5,2.5-17.4,2.5-26,4c-3,0.5-6.2,1.3-9.2-0.1c1.4-1.8,1.2-4,1.5-6c7.1-50.8,16-101.2,30-150.6
				c10.8-37.7,21.8-75.4,38.5-111c10.6-22.6,23.2-43.9,41.7-61.2c12.9-12.1,28-20.3,45.5-23.5c8.3-1.5,16.7-0.6,24.5,2.5
				c8.7,3.3,13.4,10.4,17.4,18.1C381.3,24.2,382.5,27.3,383.6,30.4z"/>
			<path class="st8" d="M180.8,352.9c9.8-1.2,19.7-2.5,29.5-3.7c2.1-0.3,4.1-0.6,6.2-0.9c0.8-1.7,2.5-1.8,4.1-2
				c10-1.5,20.1-2.8,29.8-6c0.9-0.4,1.9-0.2,2.6,0.3c2.1-0.1,2.3,1.1,2.1,2.8c-0.8,9.4-1.6,18.9-2.3,28.3c-0.1,1.8-0.7,3-2.5,3.5
				c-12.2,3.7-24.4,7.6-36.3,12.1c-13,0.2-25.7-1.2-38.1-5.3c-7.5-2.5-14.1-7.1-19.1-13.2c-1.9-2.2-0.8-5.4-2.2-7.8
				C162.5,355.6,171.8,354.6,180.8,352.9z"/>
			<path class="st8" d="M478.3,310.8c-1,3.1-4.2,3-6.4,3.7c-5.6,1.8-11.1,4.2-16.4,6.9c-11.4,5.7-23.4,9.6-35.4,13.7
				c-3,1.1-4,0.2-4.2-2.7c-0.8-9.7-1.7-19.4-2.5-29.2c-0.4-4.7-1.2-9.4-0.8-14.2c11.2,0.2,21.9,3,32.5,6.1
				c8.1,2.4,16.2,4.7,23.9,8.2C472.6,305.1,476.2,307,478.3,310.8z"/>
			<path class="st9" d="M293.5,814.2c1.5,0.1,3.1-0.6,4.4,0.8C296.4,815,294.7,816,293.5,814.2z"/>
			<path class="st8" d="M358.7,88.2c5.2-8.1,11.8-15.3,19.4-21.3c1.5-1.2,2.1-1.3,2.2,0.8c1.3,1.5,0.7,3.3,0.4,4.9
				c-4,25.6-8.7,51-13.2,76.4c-5.2,28.7-11.6,57.1-18,85.6c-4.5,19.4-7.5,39.1-8.9,59c-0.3,4.2-0.6,8.4-0.7,12.6
				c-0.1,3.1,1.1,3.6,3.8,2.7c9.9-3,19.1-7.7,28.5-11.9c1.7-0.8,3.3-2.3,5.5-1.2c1.1,0.9,0.7,2.2,0.7,3.3c0,16.2-0.1,32.5,0.1,48.7
				c0,3.2-1,4.9-3.8,6c-12.4,5.3-25.3,9.3-38.8,9.9c-15,0.6-30,0.4-45.1,0.7c-2.9,0.1-3.9-0.7-3.8-3.8c0.3-10.1-0.3-20.3,0.8-30.4
				c0.1-1.3,0-2.6,0.9-3.8c0.9-1.7,2.6-2.1,4.2-2.7c6.8-2.6,13.5-5.4,20.5-7.2c3-0.8,4.4-2.2,4.4-5.5c-0.2-34.2,6.6-67.4,13.8-100.5
				c4.3-19.9,7.4-40,12.7-59.6c4.7-17.3,7.8-35,11.5-52.6C356.5,94.9,357.4,91.5,358.7,88.2z"/>
			<path class="st10" d="M377.7,295.9c-8.2,3.4-15.9,7.6-24.2,10.9c-3.8,1.5-7.8,2.6-11.6,4c-2.6,0.9-3.3,0.4-3.2-2.5
				c0.5-20.2,2.9-40.3,7-60.1c8.4-39.5,17.7-78.9,24.3-118.7c3.4-20.6,7.7-41,10.3-61.7c1-4.7,5.1-6,8.8-6.8s7.1,1.6,9.6,4.5
				c2.9,3.5,4.4,7.8,5.3,12.2c4.5,21.7,1.9,43-4,64.1c-7.4,26.1-12.5,52.9-15,79.9c-2.1,23.8-4.2,47.5-6.3,71.2
				C378.6,294,378.3,295,377.7,295.9z"/>
			<path class="st10" d="M358.7,88.2c-1.4,12.1-4.3,23.9-7,35.7c-7.8,34.2-15.3,68.5-22.3,102.9c-5.8,28.1-10.6,56.3-10.4,85.2
				c0,3.5-1.3,4.7-4.5,5.5c-8.8,2.2-17.2,5.9-25.8,9.1c-1.9-4.8,0-9.6,0.4-14.3c1.2-14.2,3.2-28.3,4.6-42.5
				c4.1-42.8,13.9-84.1,33.4-122.7c8.5-16.7,15.8-34,25.6-50.1C354.6,94,356.7,91.1,358.7,88.2z"/>
			<path class="st8" d="M357.4,40.7c-1.5-7.1-4.6-13.8-6.4-20.8c0.2-3.2,3.1-3,4.7-2.8c10.1,1.4,19.1,4.8,23.9,14.8
				c-6.8,2-13.5,4.3-19.5,8.1C359.2,40.6,358.3,40.8,357.4,40.7z"/>
		</g>
	</g>
</g>
</svg>
