<?xml version="1.0" encoding="utf-8"?>
<!-- Generator: Adobe Illustrator 25.4.1, SVG Export Plug-In . SVG Version: 6.00 Build 0)  -->
<svg version="1.1" xmlns="http://www.w3.org/2000/svg" xmlns:xlink="http://www.w3.org/1999/xlink" x="0px" y="0px"
	 viewBox="0 0 641.7 788.7" style="enable-background:new 0 0 641.7 788.7;" xml:space="preserve">
<style type="text/css">
	.st0{display:none;}
	.st1{display:inline;}
	.st2{opacity:0.34;fill:#6CC7B8;enable-background:new    ;}
	.st3{fill:#018F86;}
	.st4{fill:url(#SVGID_1_);}
	.st5{fill:#9E524D;}
	.st6{fill:#225F8C;}
	.st7{fill:url(#SVGID_00000178203353432266825110000015054298521963301276_);}
	.st8{fill:url(#SVGID_00000133504472063192885800000015639236687531950998_);}
	.st9{fill:#F14F38;}
	.st10{fill:#EAB738;}
	.st11{fill:#F68138;}
	.st12{fill:#FEFEFE;}
	.st13{fill:#F2614D;}
	.st14{fill:#FECC38;}
</style>
<g id="Layer_1" class="st0">
	<g id="Capa_7" class="st1">
		<circle class="st2" cx="320.9" cy="467.8" r="320.9"/>
	</g>
	<g id="bolsillo" class="st1">
		<path class="st3" d="M205.2,612.8c0,8.5-3.7,14.9-11,19.3c4,1.5,7.5,4.1,10,7.6c2.7,3.6,4,8.6,4,15.2c0,6.5-2.4,11.7-7.3,15.5
			c-4.8,3.8-11.7,5.8-20.8,5.8h-28.8c-1.3,0-2.5-0.5-3.4-1.4c-0.9-1-1.4-2.4-1.3-3.7v-78.1c-0.3-0.9,0.2-1.9,1.1-2.2
			c0.3-0.1,0.7-0.1,1.1,0h27.8C195.6,590.7,205.1,598.1,205.2,612.8z M170,610.5v16h0.6c7.8,0,11.7-2.6,11.7-7.8
			c0-2.8-0.8-4.9-2.3-6.2s-4-2-7.5-2L170,610.5z M170,640.9v15.9h2.2c3.5,0,6.1-0.7,7.7-2c1.6-1.3,2.4-3.4,2.4-6.2s-0.8-4.8-2.3-6
			s-4-1.7-7.5-1.7L170,640.9z"/>
		<path class="st3" d="M224.8,631.9c-2.3-4.1-3.4-7.4-3.4-9.9c0-2.6,0.7-4.2,2.1-4.9c4.7-2,11-3,19.1-3s13.8,1.9,17.1,5.7
			c3.3,3.8,5,9.4,5,16.8v19.3h4.1c1.4,0,2.5,0.8,3.2,2.4c0.9,2.1,1.3,4.4,1.2,6.7c0,2.9-0.8,5.8-2.1,8.4c-1.4,2.8-3.4,4.2-5.8,4.2
			c-4.4,0-7.9-1.2-10.6-3.5c-1.2-0.9-2.2-2.2-2.8-3.5c-3.7,4.7-9.6,7.1-17.5,7.1c-5.7,0.1-11.1-2.2-15-6.3c-4-4-6.2-9.4-6.1-15
			c0-13.3,7.9-19.9,23.8-19.9h6.7v-1.2c0-2.1-0.3-3.5-1-4.1s-2.3-0.9-4.8-0.9C233.6,630.1,229.1,630.8,224.8,631.9z M234.6,654.3
			c-0.1,1.5,0.4,3,1.5,4.1c1,0.9,2.3,1.4,3.7,1.4c1.6,0,3-0.7,4.1-1.8v-9.4h-3.4C236.5,648.6,234.6,650.5,234.6,654.3z"/>
		<path class="st3" d="M305.7,675.4c0,0.6-2.9,0.9-8.8,0.8c-8.1-0.2-12.2-0.7-12.2-1.3v-39.5h-3.2c-2.1,0-3.5-1.8-4.1-5.4
			c-0.6-3.6-0.1-7.3,1.2-10.7c1.5-3.6,3.7-5.4,6.8-5.4c2.9,0,5.8,0.7,8.3,2.2c2,1,3.7,2.5,4.9,4.4c5.1-4.4,11.6-6.7,18.3-6.6
			c7.1,0,12.2,1.9,15.4,5.7c3.2,3.8,4.8,10.1,4.8,18.8V675c0,1-3.5,1.5-10.4,1.5s-10.4-0.5-10.4-1.5v-35.3c0-4.1-1.4-6.1-4.3-6.1
			c-1.2,0.1-2.4,0.4-3.4,1c-1,0.4-1.9,0.9-2.8,1.5V675.4z"/>
		<path class="st3" d="M355.1,631.9c-2.3-4.1-3.4-7.4-3.4-9.9s0.7-4.2,2.1-4.9c4.7-2,11-3,19.1-3s13.8,1.9,17.1,5.7
			c3.3,3.8,5,9.4,5,16.8v19.3h4.1c1.4,0,2.5,0.8,3.2,2.4c0.9,2.1,1.3,4.4,1.2,6.7c0,2.9-0.8,5.8-2.1,8.4c-1.4,2.8-3.4,4.2-5.8,4.2
			c-4.4,0-7.9-1.2-10.6-3.5c-1.2-0.9-2.2-2.2-2.8-3.5c-3.7,4.7-9.6,7.1-17.4,7.1c-5.7,0.1-11.1-2.2-15-6.3c-4-4-6.2-9.4-6.1-15
			c0-13.3,7.9-19.9,23.8-19.9h6.7V635c0-2.1-0.3-3.5-1-4.1s-2.3-0.9-4.8-0.9C363.9,630.1,359.4,630.8,355.1,631.9z M364.9,654.3
			c-0.1,1.5,0.4,3,1.5,4.1c1,0.9,2.3,1.4,3.7,1.4c1.5,0,3-0.7,4.1-1.8v-9.4h-3.4C366.8,648.6,364.9,650.5,364.9,654.3L364.9,654.3z"
			/>
		<path class="st3" d="M436,675.4c0,0.6-2.9,0.9-8.8,0.8c-8.1-0.2-12.2-0.7-12.2-1.3v-39.5h-3.2c-2.1,0-3.5-1.8-4.2-5.4
			c-0.2-1-0.3-2.1-0.2-3.2c0-2.6,0.5-5.2,1.5-7.6c1.5-3.6,3.7-5.4,6.8-5.4c2.9,0,5.8,0.7,8.3,2.2c2,1,3.6,2.5,4.9,4.4
			c5.1-4.4,11.6-6.7,18.3-6.6c7.1,0,12.2,1.9,15.4,5.7c3.2,3.8,4.8,10.1,4.8,18.8V675c0,1-3.5,1.5-10.4,1.5s-10.4-0.5-10.4-1.5
			v-35.3c0-4.1-1.4-6.1-4.3-6.1c-1.2,0.1-2.4,0.4-3.4,1c-1,0.4-1.9,0.9-2.8,1.5L436,675.4z"/>
		<path class="st3" d="M483,668.9c-5.1-5.6-7.6-13.4-7.6-23.3c0-9.9,2.5-17.7,7.6-23.3c5.1-5.6,11.9-8.4,20.6-8.4
			c8.6,0,15.5,2.8,20.5,8.4c5,5.6,7.6,13.4,7.6,23.3c0,9.9-2.5,17.7-7.5,23.3c-5.1,5.6-11.9,8.4-20.5,8.4
			C495,677.4,488.1,674.6,483,668.9z M503.6,634.3c-4.6,0-6.9,3.7-6.9,11.2c0,7.5,2.3,11.2,6.9,11.2c4.6,0,6.9-3.7,6.9-11.2
			C510.5,638,508.2,634.3,503.6,634.3z"/>
	</g>
	<g id="banano" class="st1">
		
			<linearGradient id="SVGID_1_" gradientUnits="userSpaceOnUse" x1="92.0238" y1="460.5415" x2="558.4087" y2="460.5415" gradientTransform="matrix(1 0 0 -1 0 842.8853)">
			<stop  offset="0" style="stop-color:#A83929"/>
			<stop  offset="8.000000e-02" style="stop-color:#B43D2B"/>
			<stop  offset="0.3" style="stop-color:#CF4531"/>
			<stop  offset="0.53" style="stop-color:#E24A35"/>
			<stop  offset="0.76" style="stop-color:#ED4E37"/>
			<stop  offset="1" style="stop-color:#F14F38"/>
		</linearGradient>
		<path class="st4" d="M558.2,406.5c-2.7,20.2-11.9,36.6-28.2,49c-3.6,2.6-7.5,4.6-11.7,5.9c-16.8,5.6-28.2,17.2-36.5,32.3
			c-3.4,6.3-7.1,12.4-10.2,18.8c-7.1,14.8-18.2,26.1-30.6,36.4c-14.8,12.2-32,18.7-50.3,22.7c-14.4,3.2-29,3.4-43.6,2
			c-32.6-3.2-64.4-11.6-94.3-24.9c-21.6-9.5-42.1-21.1-60-36.7c-15.4-13.5-28.5-28.9-36.3-48.2c-6.6-16.2-9.8-33.3-10.7-50.8
			c-0.5-9.5-0.8-19.1-0.5-28.6c0.4-12.5-3.1-23.8-9.1-34.5c-6.8-12-14.2-23.6-20.9-35.6c-10-18-18-36.7-20.9-57.3
			c-2.1-14.7-3.3-29.5-1.2-44.3c1-6.5,2.5-13,5.8-18.8c0.9-1.7,1.9-3.6,4.2-3.8c1.7,0.2,2.6,1.4,3.6,2.6c4.6,6.2,8.6,12.8,11.9,19.7
			c5.8,11.9,13.1,23,20.1,34.1c7.2,11.2,15.4,21.7,24.4,31.5c18.5,20.2,39.1,37.7,63.1,51.2c24.9,14.2,51.2,25.6,78.6,34
			c27.5,8.3,55.4,15.2,83.6,21.2c14.9,3.1,30,5,45.1,7.2c9.5,1.4,19,3,28.5,3.9c7,0.7,13.9,1.5,20.9,1.5c3.8,0,7.7,0.7,11.5,0.5
			c11.8-0.5,23.7-0.3,35.5-0.5c4.5-0.1,9-0.4,13.6-0.3c4.8,0,9.3,1.1,13.1,4.2c0.8,0.7,1.8,1.3,1.8,2.5
			C558.5,404.5,558.4,405.5,558.2,406.5z"/>
		<path class="st5" d="M608.3,668.2l0.7,0.2c0.2,1.6-0.1,3.1-0.7,4.6L608.3,668.2z"/>
		<path class="st6" d="M391.8,455.5c-28.2-0.1-53.3-4.3-78.2-10c-15.2-3.4-30.2-7.8-44.8-13.2c-16.9-6.3-31-16.8-43.4-29.7
			c-10.9-11.5-20.5-24.2-28.5-37.8c-1.7-2.7-0.9-6.3,1.9-8c0.7-0.5,1.6-0.8,2.5-0.8c1.3-0.2,2,0.5,2.8,1.3
			c6,5.8,11.2,12.4,16.9,18.6c9.7,10.9,20.4,20.9,31.8,30c13.3,10.4,28.8,16,45.1,19.5c28.5,6.1,57.1,11.5,85.9,15.5
			c13.9,1.9,27.6,0.6,41.2-2.7c5.6-1.3,11.2-2.8,16.8-4.1c3.3-0.8,4.8-0.2,5.8,2.3c1.7,4,1.1,6.8-1.8,8.5c-3.6,1.9-7.4,3.4-11.4,4.3
			C419.5,453.2,404.6,456,391.8,455.5z"/>
		
			<linearGradient id="SVGID_00000118362476467549807330000001767127142444840324_" gradientUnits="userSpaceOnUse" x1="103.11" y1="547.4636" x2="559.6918" y2="547.4636" gradientTransform="matrix(1 0 0 -1 0 842.8853)">
			<stop  offset="0" style="stop-color:#275B82"/>
			<stop  offset="0.44" style="stop-color:#2C668C"/>
			<stop  offset="1" style="stop-color:#357B9E"/>
		</linearGradient>
		<path style="fill:url(#SVGID_00000118362476467549807330000001767127142444840324_);" d="M553.3,366.9
			c-7.9-14.7-18.8-26.9-31.6-37.5c-34.7-28.9-72.4-53.3-112.4-74.1c-54-28-110.7-48.6-170.8-59c-20.5-3.5-41-6.7-61.7-8.1
			c-22.7-1.4-45.4-1-68,1.1c-1.9,0.2-3.9,0-5.7,0.7c3.5,3.2,6.5,7,8.7,11.2c7.2,12.8,14,25.8,21.7,38.3
			c17.4,28.3,39.9,53.1,66.5,73.1c25.3,19.1,53.7,33,83.4,43.8c37.7,13.7,76.7,22.9,116,30.5c12.9,2.5,26,3.7,39,5.8
			c15.8,2.7,31.7,4.3,47.6,4.9c14.9,0.4,29.8-0.2,44.7-0.3c4.6,0,9.2-0.4,13.8-0.2c5.3,0.2,10.1,1.7,13.7,5.9
			c0.1,0.2,0.3,0.2,0.5,0.1c0,0,0,0,0,0C561,390.6,559.4,378.4,553.3,366.9z M499.4,393.3c-29.2,0.5-57.9-3.9-86.4-10
			c-19.4-4.2-39-6.9-58.4-11c-22.2-4.6-44.1-10.6-65.5-18c-18.6-6.5-35.6-16.2-52.3-26.5c-22.6-14-44.6-28.8-63.8-47.7
			c-10.7-10.6-20.3-22.3-28.5-34.9c-0.5-0.7-0.9-1.4-1.4-2.5c10.4-1.6,21-2.2,31.5-1.9c36.6,0.7,72.3,6.8,107.5,16.3
			c37,9.9,73,23.3,107.5,39.8c27.9,13.4,54.2,29.4,77.6,49.7c14.2,12.3,26,26.6,33.9,43.8C502.5,393.3,502.5,393.3,499.4,393.3
			L499.4,393.3z"/>
	</g>
</g>
<g id="Layer_2">
	<g>
		<g id="Capa_7_00000013158528284416352920000015973836750862877855_">
			<circle class="st2" cx="320.9" cy="467.8" r="320.8"/>
		</g>
		<g id="bolsillo_00000057853574250756696660000015395150007156988842_">
			<path class="st3" d="M209.5,686.1c-7.2,0-10.9-0.8-10.9-2.4l-2.6-48.9l-14.9,49.5c-0.3,1-3.1,1.5-8.3,1.5s-7.9-0.4-8.1-1.3
				l-15.4-50.1l-1.8,48.7c-0.1,1.2-1.6,2.1-4.6,2.5c-2.5,0.4-5,0.6-7.5,0.7c-1.9,0-3.9-0.1-5.8-0.4c-3.9-0.6-5.8-1.6-5.7-3l2.8-79.3
				c0-2,5-2.9,14.9-2.9c3.6,0,7.2,0.3,10.7,0.7c4.2,0.4,6.6,1.3,7.1,2.6l13.7,38.4l12-38.5c0.7-2.1,6.3-3.2,16.8-3.2
				c3.6,0,7.2,0.3,10.8,0.7c4.2,0.4,6.3,1.2,6.3,2.4l3.5,80c0,0.9-1.6,1.5-4.8,2C215.1,685.9,212.3,686.1,209.5,686.1z"/>
			<path class="st3" d="M239.5,678.8c-5.1-5.6-7.6-13.4-7.6-23.3c0-9.9,2.6-17.7,7.6-23.3c5.1-5.6,11.9-8.4,20.5-8.4
				c8.6,0,15.5,2.8,20.5,8.4c5,5.6,7.6,13.4,7.6,23.3c0,9.9-2.5,17.7-7.6,23.3c-5,5.6-11.9,8.4-20.5,8.4S244.6,684.4,239.5,678.8z
				 M260.1,644.1c-4.6,0-6.9,3.7-6.9,11.2c0,7.5,2.3,11.2,6.9,11.2c4.6,0,6.9-3.7,6.9-11.2S264.7,644.1,260.1,644.1L260.1,644.1z"/>
			<path class="st3" d="M316.7,655.7c0,8,3,12,9,12c3.4,0.1,6.8-0.7,9.8-2.3c1.2,0,2.2,2.1,3,6.3c0.6,2.8,1,5.7,1.2,8.5
				c0.1,1-0.1,2.1-0.6,3c-4.3,2.7-10.2,4-17.7,4c-7.3,0.1-14.2-3-19.1-8.4c-5.2-5.6-7.9-13.2-7.9-22.8s2.6-17.4,7.8-23.4
				c5.2-5.9,12-8.9,20.6-8.9c8.6,0,14.5,2.1,17.9,6.2c0.8,1.2,1.2,2.6,1.1,4c-0.1,2.2-0.4,4.3-1,6.4c-1.5,5.2-3.4,8.2-5.7,9
				c-0.5,0.1-0.9,0.1-1.4,0.1c-0.6,0-1.4-0.5-2.3-1.5c-3.2-3.2-5.7-4.8-7.6-4.8c-2,0.1-3.9,1.2-4.9,2.9
				C317.4,648.2,316.7,651.3,316.7,655.7z"/>
			<path class="st3" d="M368.9,685.1c0,0.7-3.4,1.1-10.2,1.1c-6.8,0-10.2-0.6-10.2-1.7v-83.6c0-0.6,1.3-1,3.8-1.2s4.6-0.4,6.3-0.4
				c6.8,0,10.2,0.7,10.2,2.2V626c3.3-1.2,6.8-1.9,10.4-2.1c6.2,0,11.1,1.6,14.6,4.9s5.4,9.4,5.4,18.4V685c0,0.7-3.2,1.1-9.5,1.1
				c-7.2-0.2-10.7-0.7-10.7-1.2V649c0-4-1.3-6-3.9-6c-1.8,0-3.9,0.9-6.2,2.6V685.1z"/>
			<path class="st3" d="M431.9,618.1c0,0.6-3.7,0.9-11.2,0.9c-7.4,0-11.2-0.2-11.2-0.7v-17.6c0-0.8,3.7-1.2,11.2-1.2
				s11.2,0.2,11.2,0.7V618.1z M431.9,685.2c0,0.7-3.7,1-11.2,1c-7.4,0-11.2-0.3-11.2-0.8v-59.9c0-0.6,3.7-0.8,11.2-0.8
				c7.4,0,11.2,0.2,11.2,0.7V685.2z"/>
			<path class="st3" d="M465.1,685c0,0.7-4.1,1.1-12.4,1.1c-6.5-0.1-9.8-0.4-9.8-1V602c0-1.2,3.9-1.8,11.8-1.8
				c6.9,0.2,10.4,0.6,10.4,1.2V685z"/>
			<path class="st3" d="M483.7,641.7c-2.3-4.1-3.4-7.4-3.4-9.9c0-2.6,0.7-4.2,2.1-4.9c4.7-2,11-3,19.1-3s13.8,1.9,17.1,5.7
				c3.3,3.8,5,9.4,5,16.8v19.3h4.2c1.4,0,2.5,0.8,3.2,2.4c0.9,2.1,1.3,4.4,1.2,6.7c0,2.9-0.8,5.8-2.1,8.4c-1.4,2.8-3.3,4.2-5.8,4.2
				c-4.4,0-7.9-1.2-10.6-3.5c-1.2-0.9-2.2-2.2-2.8-3.5c-3.7,4.7-9.6,7.1-17.5,7.1c-5.7,0.1-11.1-2.2-15-6.3c-4-4-6.2-9.4-6.1-15
				c0-13.3,7.9-19.9,23.8-19.9h6.7v-1.2c0-2.1-0.3-3.5-1-4.1s-2.3-0.9-4.8-0.9C492.5,639.9,488.1,640.6,483.7,641.7z M493.5,664.1
				c-0.1,1.5,0.4,3,1.5,4.1c1,1,2.4,1.5,3.8,1.5c1.6,0,3-0.7,4.1-1.8v-9.4h-3.4C495.5,658.4,493.5,660.3,493.5,664.1L493.5,664.1z"
				/>
		</g>
		<g id="Capa_5">
			
				<linearGradient id="SVGID_00000157306099878915972940000017116212497272184511_" gradientUnits="userSpaceOnUse" x1="98.9757" y1="534.1714" x2="562.0809" y2="534.1714" gradientTransform="matrix(1 0 0 -1 0 842.8853)">
				<stop  offset="2.000000e-02" style="stop-color:#FECC38"/>
				<stop  offset="0.35" style="stop-color:#FAC838"/>
				<stop  offset="0.68" style="stop-color:#EFBC37"/>
				<stop  offset="1" style="stop-color:#DDA936"/>
			</linearGradient>
			<path style="fill:url(#SVGID_00000157306099878915972940000017116212497272184511_);" d="M233.4,64.5c1.6,0.6,2.9-0.5,4.1-1.1
				c7.3-3.3,14.5-6.6,22-9.5c0.7-1,1.8-1.2,2.8-1.6c12.6-4.1,25.7-6.1,38.8-7.4c1.4-0.1,2.7-0.6,4-0.8c12.6-0.4,25.1-0.6,37.6-0.6
				c15.6,0.7,31.1,2.1,46.3,5.6c1.3,0.3,2.7,0.5,4.1,0.4c0.2,0.9,0.8,1.6,1.7,1.8c4.8,1.2,9.4,2.8,13.9,4.7c0.6,0.3,1.2,0.4,1.8-0.1
				c16.2,7.4,31.4,16.4,45,28c7.3,6.2,13.5,13.6,18.6,21.7c3.7,5.3,6.9,10.9,9.8,16.6c11.1,21.8,22.3,43.5,31.1,66.4
				c5.3,13.9,10.5,27.9,14.8,42.1c0.1,0.3,0.2,0.5,0.5,0.6c0.5,8,3.8,15.3,6.1,22.9c6.4,21.8,13.9,43.2,18.2,65.6
				c2.6,13.6,4.3,27.4,5.1,41.3c1.3,21.5,2.7,43,2.5,64.5c-0.3,28.2-4.8,55.7-15.6,81.9c-5.4,13.1-11.7,25.8-21.7,36.2
				c-13.2,13.8-29.8,21.2-48.3,24.8c-17.3,3.4-34.9,3.2-52.5,3.5c-15.3,0.3-30.4-2.1-45.7-2.8c-9-0.4-18-0.7-27-1.2
				c-13.5-0.8-27-2-40.5-1.1c-15.6,1-31.2,2.4-46.7,3.5c-8.8,0.6-17.6,1.2-26.4,1.8c-11.6,1-23.2,1.4-34.8,1.2
				c-16.3-0.6-32.4-2.6-47.9-8.1c-18-6.4-30.9-18.5-39.8-35.1c-8.6-15.9-13-33-14.8-50.8c-2.1-21.1-1.5-42.3-0.3-63.4
				c0.8-13.2,1.1-26.5,2.9-39.6c0.8-5.9,1.7-11.8,2.6-17.7c0.2-0.9,0.3-1.9,0.3-2.8c2.5-12.9,5.4-25.8,7.4-38.8
				c2.5-16.4,4.9-32.8,8.3-49c3.9-17.9,9-35.5,15.2-52.7c3.3-9.3,6.2-18.7,10-27.8c5.5-13.4,12.4-26.1,19.1-38.9
				c4.3-8.1,8.7-16.2,13.2-24.2c2.8-4.6,5.1-9.5,7.9-14.2c5.4-9.5,11.8-18.4,19.2-26.5C213.9,75.8,223.1,69.2,233.4,64.5z"/>
			<path class="st9" d="M179.9,124.7c-7,13.1-14.1,26.3-21.1,39.4c-7.6,14.5-14,29.6-19.1,45.1c-5.8,17.2-11.7,34.5-15.8,52.2
				c-3.4,14.7-5.9,29.5-8.1,44.4c-2.5,17.1-5.6,34-9.4,50.8c-1.4,0.2-0.4-1.2-1-1.6c-2.6-27.1-3.7-54.3-3.2-81.5
				c0.2-11.3,2-22.5,3.2-33.8c1.5-14.1,3-28.1,4.2-42.3c1.8-21.1,4.9-42,8.6-62.8c3.5-19.9,7.5-39.7,11.5-59.6
				c1.6-8.3,4.8-16.3,9.5-23.3c1.8,0.8,2,2.6,2.4,4.1c2.5,9.3,7.4,17.4,12.1,25.6c5.2,9,11.7,17.1,16.6,26.3
				c2.6,4.8,6.6,8.6,8.9,13.6C179.6,122.4,180.4,123.4,179.9,124.7z"/>
			<path class="st10" d="M179.9,124.7c-0.9-2.5-2.1-4.9-3.6-7.1c-8.9-12.8-17.2-26-25.2-39.3c-4.2-6.9-8.4-14-10.1-22.2
				c-0.5-1.5-1.1-2.9-1.9-4.3c0.4-4.3,4-6.1,6.9-8.1c12.3-8.5,26.9-13.3,41.9-13.7c6.2-0.2,12.5,0.8,18.6,1.7
				c6.8,1,11.1,5.3,15.2,10.1c5.6,6.7,8.4,14.8,11.7,22.7c-0.2,1.4-1.5,1.6-2.4,2c-9.1,4.4-17.3,10.4-24.2,17.9
				c-7.4,8-13.8,16.9-19.1,26.4C184.9,115.4,182.4,120.1,179.9,124.7z"/>
			<path class="st9" d="M304.9,44.7c-1.8,1.8-4.2,1.2-6.2,1.4c-13.3,1.3-26.4,3.9-39.2,7.9c-0.6-3.6,0.9-6.7,2.1-9.8
				c2.3-5.6,4.2-11.5,7.8-16.4c12.1-16.7,28.8-25.4,49.2-27.3c14.4-1.4,28.3,0.1,41.6,5.9c13,5.6,22.7,14.8,27.8,28.3
				c1.9,5,4,9.9,5.2,15.1c-0.4,1.3-1.3,1.1-2.2,0.8c-15.2-3.5-30.7-5.4-46.2-5.9c-0.7-0.1-1.4-0.2-2.2-0.4c-1.6-0.2-2.5-1.5-3.4-2.6
				c-1.8-2.3-3.7-4.6-5.3-7.1c-2.3-3.4-5.5-4.4-9.3-4.1c-0.7,0-1.3,0.3-1.9,0.3c-8.1-0.4-12.1,4.9-15.4,11.2
				C306.7,43,306.5,44.4,304.9,44.7z"/>
			<path class="st10" d="M473.6,106c-3.9-5.7-8.3-11.1-13-16.2c-8.2-8.4-17.8-14.9-27.7-21c-6.8-4.3-14-8.1-21.3-11.4
				c-0.5-0.2-0.9-0.7-0.9-1.2c0-0.7,0-1.5,0.2-2.2c4-10.3,8.4-20.2,17.5-27.2c7.2-5.6,15-6.7,23.5-3c12.9,5.7,24.8,12.9,34.5,23.3
				c3.8,4.1,7.2,8.4,8.1,14.1c1.5,8.9-0.9,16.8-6.2,23.9c-4.5,6-8.3,12.4-12.4,18.5C475.2,104.5,474.7,105.7,473.6,106z"/>
			<path class="st9" d="M473.6,106c4.1-6.1,7.6-12.7,12.2-18.6c5.6-7.1,9.2-14.9,8.3-24.3c-0.1-0.6,0-1.3,0.3-1.9
				c1.1,2.6,2.3,5.2,3.2,7.9c4.3,12.7,9.8,25,13,38.1c3.8,15.3,7.5,30.7,10.6,46.2c3.9,19.2,7.2,38.5,8.3,58.1
				c0.4,6.7,0.9,13.4,0.7,20.1c-0.4-0.4-0.2,2.1-0.9,0.3c-2.3-6.6-4.4-13.2-6.7-19.8c-6.5-19.2-14.2-38-23-56.3
				c-7.4-15.1-14.5-30.3-23.1-44.8C475.6,109.2,474.6,107.6,473.6,106z"/>
			<path class="st11" d="M105.3,355.1l1,1.6c0,0.8,0.3,1.8-0.8,2.3C105.3,357.7,105.2,356.4,105.3,355.1z"/>
			<path class="st10" d="M404.6,517.5c-10.3-0.6-21.2-1.2-32.1-2.1c-7.6-0.6-15.2-0.5-22.8,0.3c-11.7,1.3-23.4,2.4-35.1,1.7
				c-3-0.2-6.2-0.2-9.2-1.4c-3.7-1.5-7.8-0.9-11.7-1.1c-9.2-0.4-18.3-1.1-27.5-1.4c-11.2-0.3-22.5-1.3-33.8-1.7
				c-7.4-0.2-14.8-0.1-22.1-2c-8.2-2.2-15.8-5.5-20.6-13c-2.7-4.2-3.5-9-4.4-13.8c-4.7-23.1-2.5-46.5-2.6-69.8
				c0.1-11.4,1.5-22.8,4.3-33.9c0.4-1.1,0-2.3-1-2.9c-5.4-4.3-6.7-10.3-5.9-16.8c1.5-12.7,8.4-22.6,16.1-32.3
				c5.2-6.6,11.7-7.9,19.3-6.6c0.9,0.1,1.8,0.2,2.7,0.2c20.6,0,41.2,0.2,61.9-0.1c5.5-0.1,11-0.6,16.5-0.4
				c34.4,1.2,68.8,0,103.2,0.6c10.7,0.2,21.4,0.8,32,2.1c5.8,0.7,10.2,3.9,14.3,7.6c7.2,6.6,11.2,15.2,14.3,24.1
				c1.3,3.8,3,7.5,3.2,11.6c0.2,3.2-1.4,5.7-3.2,8c-1,1.1-1.3,2.7-0.6,4c3.5,9.9,6.8,20,8.5,30.4c2,11.9,2.5,24.1,1.4,36.1
				c-0.5,5.2-0.7,10.4-1.2,15.6c-1.3,11.9-1.6,24-6,35.3c-3,8.5-10.1,15-18.9,17.2c-6.7,1.8-13.6,2.9-20.5,3.3
				C417.2,516.8,411.2,517.3,404.6,517.5z"/>
			<path class="st9" d="M339,73.4c19.8-0.4,38.3,1.7,56.1,7.8c12.7,4.4,24.2,10.8,33.6,20.6c7.9,8.3,14.1,17.9,19.7,27.8
				c8.6,15.2,13.6,31.7,18.8,48.2c5,15.9,10.1,31.7,14.9,47.6c4.7,15.5,9.2,31,13.7,46.5c1.1,3.7,0.2,5-3.8,6.2
				c-3.5,1-5.7,0-6.7-3.3c-9.7-33.8-20-67.5-30.8-101c-4-12.4-8-24.7-14.1-36.2c-5.7-10.6-11.9-20.8-20.5-29.2
				c-10.3-10-22.8-16-36.6-19.5c-11.1-2.8-22.5-4.4-34-4.7c-10.7-0.5-21.5-0.2-32.2,0.9c-17.7,1.9-35.4,4.2-52.1,10.9
				c-19.3,7.8-36.7,18.4-50.3,34.4c-8.6,10.3-15.4,21.9-20.1,34.4c-6.6,16.7-10.5,34.2-13.2,51.9c-1.9,12-4.7,23.8-7.1,35.6
				s-4.7,23.8-7.1,35.6c-0.8,3.7-2.3,4.4-6.5,3.5c-2.7-0.4-4.5-2.9-4.1-5.6c0-0.1,0-0.2,0-0.2c2.1-10.4,4.1-20.7,6.2-31
				c3.7-17.8,7-35.6,10.4-53.5c5-27.1,13.7-52.9,31-74.9c9.2-11.7,20.6-21.4,33.5-28.8c17.2-9.9,35.4-17.1,55.1-20
				C308.6,75.1,324.2,72.7,339,73.4z"/>
			<path class="st12" d="M304.9,44.7c2.1-4.1,4.7-7.9,7.5-11.5c1-1.2,2.4-2.1,3.9-2.3c2.5-0.4,4.9-0.7,7.4-1
				c4.6-0.6,8.4,0.5,11.1,4.7c2.2,3.4,4.6,6.9,7.8,9.6c-4.5,0.8-9.1,0-13.7,0.1c-7.1,0.2-14.1,0.4-21.2,0.8
				C306.7,45.3,305.7,45.7,304.9,44.7z"/>
			<path class="st13" d="M115.9,275.4l-0.2,3.4h-0.3v-3.4L115.9,275.4z"/>
			<path class="st14" d="M190.3,437.9c0-5.9,0-11.8,0-17.7c0.1-12.7,1.4-25.4,3.8-37.9c0.3-1.6,0.8-2,2.4-1.5
				c9.4,2.8,18.9,5,28.6,6.5c4.1,0.6,8.2,1,12.3,1.2c17.6,1.2,35.2,1.1,52.9,1.2c6.2,0.1,12.5,0.8,18.7,0.4
				c13.1-0.8,26.3-0.8,39.4-0.3c13.4,0.5,26.8,0.5,40.2,0.3c10.3-0.1,20.7-0.7,30.9-2c8.9-1.2,17.8-2.2,26.3-5
				c1.7-0.5,3.3-1.2,4.9-1.9c1.3-0.6,2-0.3,2.5,1.1c3.4,9.4,6,19.1,7.7,28.9c1.6,9.8,2.1,19.7,1.5,29.6c-0.3,7.5-1.5,14.9-2,22.4
				c-0.5,6.7-1.2,13.3-2.3,19.9c-1.5,8.4-4,16.3-12.2,20.8c-3.8,2.1-8,2.8-12.1,3.4c-11.1,1.9-22.4,2.6-33.7,2.2
				c-8.8-0.4-17.5-1.2-26.2-1.9c-8.1-0.6-16.2-0.6-24.2,0.2c-10.2,1-20.4,2.5-30.7,1.7c-4.6-0.4-9.3-1-13.8-1.8
				c-3.7-0.5-7.5-0.7-11.2-0.7c-9.4-0.4-18.9-1.1-28.3-1.4c-11-0.4-21.9-1.2-32.9-1.7c-6.8-0.3-13.7,0-20.5-1.9
				c-14.4-4-16.8-8.1-19.3-20.1C190,467.5,190,452.7,190.3,437.9z"/>
		</g>
	</g>
</g>
</svg>
