<svg xmlns="http://www.w3.org/2000/svg" xmlns:xlink="http://www.w3.org/1999/xlink" viewBox="0 0 904.57 447.58"><defs><style>.cls-1{opacity:0.24;fill:url(#Degradado_sin_nombre_57);}.cls-2{fill:url(#Degradado_sin_nombre_16);}.cls-3{fill:url(#Degradado_sin_nombre_16-2);}.cls-4{fill:url(#Degradado_sin_nombre_16-3);}.cls-5{fill:url(#Degradado_sin_nombre_16-4);}.cls-6{fill:url(#Degradado_sin_nombre_68);}.cls-7{fill:url(#Degradado_sin_nombre_38);}.cls-8{fill:#6cc6b7;}.cls-9{fill:#152c3e;}.cls-10{fill:#c0d0dc;}.cls-11{fill:url(#Degradado_sin_nombre_90);}.cls-12{fill:url(#Degradado_sin_nombre_90-2);}.cls-13{fill:url(#Degradado_sin_nombre_90-3);}.cls-14{fill:#164c49;}.cls-15{fill:url(#Degradado_sin_nombre_38-2);}.cls-16{fill:url(#Degradado_sin_nombre_38-3);}.cls-17{fill:url(#Degradado_sin_nombre_68-2);}.cls-18{fill:url(#Degradado_sin_nombre_37);}.cls-19{fill:url(#Degradado_sin_nombre_39);}.cls-20{fill:#1b6160;}.cls-21{fill:url(#Degradado_sin_nombre_38-4);}.cls-22{fill:url(#Degradado_sin_nombre_38-5);}.cls-23{fill:url(#Degradado_sin_nombre_38-6);}.cls-24{fill:url(#Degradado_sin_nombre_38-7);}.cls-25{fill:url(#Degradado_sin_nombre_68-3);}.cls-26{fill:url(#Degradado_sin_nombre_38-8);}.cls-27{fill:#183343;}.cls-28{fill:url(#Degradado_sin_nombre_68-4);}.cls-29{fill:url(#Degradado_sin_nombre_90-4);}.cls-30{fill:url(#Degradado_sin_nombre_90-5);}.cls-31{fill:url(#Degradado_sin_nombre_90-6);}.cls-32{fill:url(#Degradado_sin_nombre_90-7);}.cls-33{fill:url(#Degradado_sin_nombre_90-8);}</style><linearGradient id="Degradado_sin_nombre_57" x1="105.43" y1="623.38" x2="1010" y2="623.38" gradientUnits="userSpaceOnUse"><stop offset="0" stop-color="#6cc7b8"/><stop offset="0.21" stop-color="#69c3b4"/><stop offset="0.4" stop-color="#5fb9a9"/><stop offset="0.59" stop-color="#4ea796"/><stop offset="0.62" stop-color="#4ba392"/></linearGradient><linearGradient id="Degradado_sin_nombre_16" x1="648.15" y1="769.79" x2="651.11" y2="769.79" gradientUnits="userSpaceOnUse"><stop offset="0" stop-color="#176865"/><stop offset="0.5" stop-color="#009087"/><stop offset="0.64" stop-color="#038b83"/><stop offset="0.79" stop-color="#0a7e78"/><stop offset="0.94" stop-color="#176865"/><stop offset="0.98" stop-color="#1b615f"/></linearGradient><linearGradient id="Degradado_sin_nombre_16-2" x1="139" y1="621.82" x2="692" y2="621.82" xlink:href="#Degradado_sin_nombre_16"/><linearGradient id="Degradado_sin_nombre_16-3" x1="646.16" y1="770.16" x2="648.15" y2="770.16" xlink:href="#Degradado_sin_nombre_16"/><linearGradient id="Degradado_sin_nombre_16-4" x1="651.11" y1="769.45" x2="652.17" y2="769.45" xlink:href="#Degradado_sin_nombre_16"/><linearGradient id="Degradado_sin_nombre_68" x1="795.88" y1="471.99" x2="930.45" y2="471.99" gradientUnits="userSpaceOnUse"><stop offset="0" stop-color="#fecc38"/><stop offset="0.84" stop-color="#f29f41"/><stop offset="1" stop-color="#ef9543"/></linearGradient><linearGradient id="Degradado_sin_nombre_38" x1="843.77" y1="372.62" x2="897.25" y2="372.62" gradientUnits="userSpaceOnUse"><stop offset="0.33" stop-color="#f97467"/><stop offset="0.52" stop-color="#f5695d"/><stop offset="0.85" stop-color="#e94b42"/><stop offset="1" stop-color="#e23a33"/></linearGradient><radialGradient id="Degradado_sin_nombre_90" cx="401.87" cy="573.08" r="14.18" gradientUnits="userSpaceOnUse"><stop offset="0" stop-color="#f5f4f5"/><stop offset="0.36" stop-color="#f1f4f4"/><stop offset="0.7" stop-color="#e5f5f3"/><stop offset="1" stop-color="#d5f7f0"/></radialGradient><radialGradient id="Degradado_sin_nombre_90-2" cx="401.2" cy="518.12" r="10.3" xlink:href="#Degradado_sin_nombre_90"/><radialGradient id="Degradado_sin_nombre_90-3" cx="401.52" cy="475.71" r="6.97" xlink:href="#Degradado_sin_nombre_90"/><linearGradient id="Degradado_sin_nombre_38-2" x1="881.86" y1="645.43" x2="950.18" y2="645.43" xlink:href="#Degradado_sin_nombre_38"/><linearGradient id="Degradado_sin_nombre_38-3" x1="804.55" y1="657.38" x2="873.97" y2="657.38" xlink:href="#Degradado_sin_nombre_38"/><linearGradient id="Degradado_sin_nombre_68-2" x1="684.97" y1="554.5" x2="781.9" y2="554.5" xlink:href="#Degradado_sin_nombre_68"/><linearGradient id="Degradado_sin_nombre_37" x1="611.58" y1="616.86" x2="712.91" y2="616.86" gradientUnits="userSpaceOnUse"><stop offset="0" stop-color="#009087"/><stop offset="0.34" stop-color="#058c84"/><stop offset="0.72" stop-color="#128079"/><stop offset="1" stop-color="#21726e"/></linearGradient><linearGradient id="Degradado_sin_nombre_39" x1="600.18" y1="598.82" x2="643.48" y2="598.82" gradientUnits="userSpaceOnUse"><stop offset="0.33" stop-color="#f97467"/><stop offset="0.65" stop-color="#f66961"/><stop offset="1" stop-color="#f25757"/></linearGradient><linearGradient id="Degradado_sin_nombre_38-4" x1="613.84" y1="644.2" x2="626.86" y2="644.2" xlink:href="#Degradado_sin_nombre_38"/><linearGradient id="Degradado_sin_nombre_38-5" x1="630.84" y1="656.77" x2="644.4" y2="656.77" xlink:href="#Degradado_sin_nombre_38"/><linearGradient id="Degradado_sin_nombre_38-6" x1="667.34" y1="658.09" x2="681.45" y2="658.09" xlink:href="#Degradado_sin_nombre_38"/><linearGradient id="Degradado_sin_nombre_38-7" x1="654.63" y1="660.25" x2="666.5" y2="660.25" xlink:href="#Degradado_sin_nombre_38"/><linearGradient id="Degradado_sin_nombre_68-3" x1="644.54" y1="630.73" x2="662.33" y2="630.73" xlink:href="#Degradado_sin_nombre_68"/><linearGradient id="Degradado_sin_nombre_38-8" x1="705.5" y1="610.91" x2="723.86" y2="610.91" xlink:href="#Degradado_sin_nombre_38"/><linearGradient id="Degradado_sin_nombre_68-4" x1="618.63" y1="611.7" x2="642.77" y2="611.7" xlink:href="#Degradado_sin_nombre_68"/><radialGradient id="Degradado_sin_nombre_90-4" cx="243.01" cy="670.81" r="53.85" xlink:href="#Degradado_sin_nombre_90"/><radialGradient id="Degradado_sin_nombre_90-5" cx="557.87" cy="678.49" r="55.4" xlink:href="#Degradado_sin_nombre_90"/><radialGradient id="Degradado_sin_nombre_90-6" cx="315.29" cy="681.51" r="50.9" xlink:href="#Degradado_sin_nombre_90"/><radialGradient id="Degradado_sin_nombre_90-7" cx="488.65" cy="683.72" r="51.25" xlink:href="#Degradado_sin_nombre_90"/><radialGradient id="Degradado_sin_nombre_90-8" cx="396.94" cy="683.18" r="47.96" xlink:href="#Degradado_sin_nombre_90"/></defs><g id="Capa_9" data-name="Capa 9"><path class="cls-1" d="M172,579c-45.1-10-62-22-30.67-55,31.14-32.82,404.14-61,404.14-61s399.84-1,413,77c7.08,42-145.91,21-14.15,64,0,0,90.2,15,59.25,60s-303.32,98-303.32,98-204.28,31-293.6,19-214.9-31-258.23-62-57.48-64-25.64-76,69.88-8,82.26-30S172,579,172,579Z" transform="translate(-105.43 -336.18)"/></g><g id="Capa_1" data-name="Capa 1"><path class="cls-2" d="M651.11,769.54l-3,.47A6.22,6.22,0,0,0,651.11,769.54Z" transform="translate(-105.43 -336.18)"/><path class="cls-3" d="M648,770l3.18-.49a9.15,9.15,0,0,0,1.72-1C677.49,765.4,692,763,692,763l-12-11C589.12,643.77,522.14,521.23,501.6,481.88c-.85-2.34-1.64-4.7-2.43-7.06a13.63,13.63,0,0,0-7.48-8.11,23.41,23.41,0,0,0-13.23-2c-11,1.28-21.91,3.44-33,4.3-13.22,1-26.38,1.4-39.44-1.5-.83-.34-1.16.17-1.39.83a9.13,9.13,0,0,0,.06,2.61c.09,1.45.17,2.9.16,4.35l-6.65.54c0-1.47,0-2.95-.15-4.42-.64-1.87.19-3.84-.42-5.71a170.21,170.21,0,0,0-27.09-4.8c-12.41-1.36-24.66-1.17-36.61,2.77-5.4,1.78-17.37,6.49-21.94,10.3-4.75,4-9.45,7.18-12.23,10.92L299,485c-.07.49-.17,1-.3,1.57A12.61,12.61,0,0,0,298,488a.59.59,0,0,0,.12.66C284.63,531.61,139,712,139,712c2.31,2.14,6.28,4.48,11.58,7,0,1.24.84,2.33,3.42,3,24,13,57.26,29.21,89,35,22.68,4.14,61.14,15.17,88,19,21.67,4.81,42.88,3.39,53.32,5.19a142.54,142.54,0,0,0,21.62,2c31.83.59,63.25,0,93-1.34,31.35-.58,54.67-2.53,87.1-5.9,18.66-1.94,41.43-2.49,60.16-5.69C645.27,770.45,645.38,770.42,648,770Z" transform="translate(-105.43 -336.18)"/><path class="cls-4" d="M646.16,770.31l2-.3H648Z" transform="translate(-105.43 -336.18)"/><path class="cls-5" d="M651.18,769.51l-.07,0C652.27,769.36,652.73,769.28,651.18,769.51Z" transform="translate(-105.43 -336.18)"/><path class="cls-6" d="M835.12,532.27c-2.86-1.09-5.73-2.17-8.58-3.28a7.26,7.26,0,0,1-4.65-5.15c-.49-1.93-1.24-2.89-3.49-2.77-2.78.16-5.14-1.42-7.46-2.79-2.13-.42-3.26-2.19-4.51-3.62-3.72-4.26-6.47-9.17-9.17-14.11a3.19,3.19,0,0,1-.48-1.88c-2-4-.43-7.06,2.49-9.88,4.48-4.32,9.65-7.73,14.64-11.37,1.17-.85,2.3-1.76,3.44-2.64,6.39-4.36,12.76-8.74,17.72-14.8a4.77,4.77,0,0,0,1-1.9c3.13-12.57,8.24-24.43,13.08-36.38q3-7.5,6.09-15a1,1,0,0,1,1.38-.73A20.49,20.49,0,0,0,869,404.56a3.33,3.33,0,0,1,2.15,1.32,6.62,6.62,0,0,0,6.36,2.35,1.1,1.1,0,0,1,1.18.3c1.25.85,1.32,2.18,1.45,3.49q1.33,12.87,2.69,25.72a10,10,0,0,0,2.07,5.64c7,8.37,14.21,16.49,23.25,22.78A75.3,75.3,0,0,0,922.53,474c7.1,2.95,9.8,6.16,6.55,15.68-.09.28-.14.56-.21.84a10.66,10.66,0,0,1-2.54,5,33.6,33.6,0,0,1-10.24,8.7,1.87,1.87,0,0,1-1.64.37c-5.38,1.83-6.88,1.47-16.81-4.06.58,2.25,1,4.25,1.61,6.21a117.44,117.44,0,0,1,3.14,14.74c.74,4.54-.33,8.24-4.32,10.83a3.86,3.86,0,0,1-2.42,1.76c-12.19,4.36-24.56,7-37.59,4.3-6.8-1.41-13.61-2.75-20.29-4.68A4.27,4.27,0,0,1,835.12,532.27Z" transform="translate(-105.43 -336.18)"/><path class="cls-7" d="M878.65,408.53c-4.26,1.66-6.91-.87-9.47-3.65a8.84,8.84,0,0,1-1.62-9.9c.65-1.31.7-2-.45-3.11-2.09-2.06-2-4.93-1.76-7.61a15.56,15.56,0,0,1,2.81-7.47c-.49-.81-1.34-.63-2-.92a7.54,7.54,0,0,1-4.45-6.31c-.15-1.16-.54-1.49-1.63-1.37a6,6,0,0,1-3.22-.48,2.35,2.35,0,0,0-3.32,1.08,11.27,11.27,0,0,1-1.49,1.89c-.83.82-1.74,1.35-2.89.54-6-2.61-7-10.63-3-15.42,2.39-2.82,5.43-3.07,8.9-2.9-.74-2.27-1.51-4.35-1.43-6.66a10.43,10.43,0,0,1,8.08-9.94c2.92-.67,7.42,1.58,9.2,4.71a30.27,30.27,0,0,1,3.38,9.9c.17,1,.32,1.48,1.45.9,4.8-2.46,10.61.13,13.06,3.23,2.65,3.34,2.39,8.94-.58,13.06-.2.28-.55.5-.37,1.12,2.63,0,4.71,1.36,6.54,3.23,3.89,4,3.77,8.61-.54,12.12-1.28,1.05-1.63,1.67-.37,3a10.38,10.38,0,0,1,2.41,4.86c1.4,5.81-.9,9.55-6.73,10.9-2.09.49-2.69.35-5.94-1.39C882.52,404.69,881.31,407.14,878.65,408.53Z" transform="translate(-105.43 -336.18)"/><path class="cls-8" d="M849.19,371.22c2.37.37,3.07-1.64,4.08-3s1.81-2,3.53-1.09a7.78,7.78,0,0,0,5.55.25,7.8,7.8,0,0,0,1.41,6,6.63,6.63,0,0,0,5.63,2.54c-1.57,2.58-3.24,4.95-3.38,7.83-.15,3.29-.89,6.84,2.9,8.86.42.22.47.5.2.86-2.88,3.84-1.9,7.66.07,11.47-4.07,2.3-8.4,2.54-12.88,1.63a3,3,0,0,0-1,.2,2.89,2.89,0,0,0-1.76-1.23,16.25,16.25,0,0,1-7.53-5.75c.58-.75,1.45-.52,2.22-.64,2.61-.39,5-2.57,5.2-5.09-2.25,2.52-4.49,5.1-8.36,3.9-3.88-6-3.46-12.18-.61-18.33C845.76,376.67,847.59,374,849.19,371.22Z" transform="translate(-105.43 -336.18)"/><path class="cls-8" d="M914.45,504.55c6.09-3.37,11.23-7.71,14.42-14.06,3.3,1.68,6.68,3.16,9.14,6.17,5.54,6.8,3.48,12.81-5.15,14.65-.77.17-1.58.21-2.37.31a11.08,11.08,0,0,1-2.39-.2,2,2,0,0,0-2.67,1,3.32,3.32,0,0,1-4.67,1.08A13.62,13.62,0,0,1,914.45,504.55Z" transform="translate(-105.43 -336.18)"/><path class="cls-9" d="M845,397.9c3.18-.2,6-1,7.51-4.23a1,1,0,0,1,1.48-.4c.74.45.5,1.09.27,1.73-1,2.79-4.71,4.9-8.32,4.73C845.6,399.16,845,398.71,845,397.9Z" transform="translate(-105.43 -336.18)"/><path class="cls-10" d="M406,467.53a.93.93,0,0,0-.95.93,37,37,0,0,1-4.39-1c-1.64-.31-2.49,0-2.45,1.84a2.26,2.26,0,0,1-.7,2.15,11.32,11.32,0,0,1,.1-5.75" transform="translate(-105.43 -336.18)"/><path class="cls-11" d="M409,587.2a3.13,3.13,0,0,1-2,3.8c-2.82,1-6,.87-9.13.44-2.56-.35-3.34-1.15-3.25-3.71.31-9.06.61-18.11,1.07-27.16.25-4.84,3.08-6.89,7.58-6,2.27.48,3.06,2,3.36,4,1,7.16,1.62,14.37,2.1,21.58A38.06,38.06,0,0,1,409,587.2Z" transform="translate(-105.43 -336.18)"/><path class="cls-12" d="M396.55,517.43c.25-2.69-.27-6.48.2-10.29a2.66,2.66,0,0,1,2.59-2.67,9.1,9.1,0,0,1,3.48.18,2.57,2.57,0,0,1,2.23,2.57c.33,6.94.75,13.87,1,20.8.09,2.48-1.77,4-4.29,3.82-.51,0-1-.1-1.53-.16-3.24-.43-4-1.37-3.87-4.6C396.46,524.23,396.47,521.38,396.55,517.43Z" transform="translate(-105.43 -336.18)"/><path class="cls-13" d="M397.54,471.48c0-.14.06-.28.1-.42.44-1.45-.85-4,.8-4.23a7.77,7.77,0,0,1,6.64,1.63,37.34,37.34,0,0,1-.28,12.87c-.78,3.36-2.12,4-5.15,2.93-1.49-.54-1.76-1.65-1.81-2.92C397.7,478.06,397.64,474.77,397.54,471.48Z" transform="translate(-105.43 -336.18)"/><path class="cls-14" d="M835.12,532.27a183.88,183.88,0,0,0,29.61,6.34,42.47,42.47,0,0,0,14.77-.77c6.31-1.46,12.69-2.69,18.57-5.57,4.14,9.9,7.1,20.22,10.87,30.27,7,18.73,16.56,36.19,26.06,53.69,1.34,2.47,2.61,4.81,2.86,7.62-.12,2.1-1.73,3.15-3.13,4.25a51.35,51.35,0,0,1-17.09,8.56c-8.23,2.49-16.62,2.74-25.09,1.81a3.34,3.34,0,0,1-2.79-1.47c-7.3-12.42-14.22-25.07-21.41-38,0,3.16-.06,5.9,0,8.64a168.86,168.86,0,0,0,3.72,30.8c.45,2.12.21,3.75-1.88,4.75a14.06,14.06,0,0,1-5.58,2.39,96,96,0,0,1-30.8,3.55,78,78,0,0,1-13.67-1.83c-1.79-.42-2.25-1.2-1.95-3.17-.36-5.9-1.12-11.76-1.13-17.68,0-16.6,1-33,4.6-49.37C825,561.75,829.05,546.72,835.12,532.27Z" transform="translate(-105.43 -336.18)"/><path class="cls-15" d="M889.76,637c5,1.66,10.23,1.6,15.37,1.26a54.24,54.24,0,0,0,27.07-9,18,18,0,0,0,5.66-5.38C943,630.5,948.07,637.2,950,645.66c.54,2.42,0,3.62-2.21,4.77-13.36,7-27.56,11.58-42.13,15.11-4.93,1.2-10,2.09-15.17.92a9.3,9.3,0,0,1-7.25-6.26C880.1,651.49,882.36,643.3,889.76,637Z" transform="translate(-105.43 -336.18)"/><path class="cls-16" d="M818.2,644.09c.14,2.3,1.68,2.4,3.57,2.82a91.86,91.86,0,0,0,46.11-3.19c.75-.25,1.55-.38,2.32-.57A56.33,56.33,0,0,1,874,663.28c0,3-.37,3.49-3.39,4.49a60.07,60.07,0,0,1-10.29,2.13c-15.71,2.28-31.47,2-47.24.84a21.81,21.81,0,0,1-4.51-.88c-3.64-1.08-4.47-2.63-3.75-6.32C806.43,655.1,811.24,648.85,818.2,644.09Z" transform="translate(-105.43 -336.18)"/><path class="cls-17" d="M690.62,594.42a14.17,14.17,0,0,0-5.65-4.18c5.09-3.88,11.12-5.31,17.18-6.75,7-1.65,13.86-3.51,20.8-5.24,16.81-4.21,26.84-15.11,31.27-31.58,2-7.45,4.51-14.65,9.64-20.66,4.34-5.07,9.27-9.3,15.74-11.44,1.78,1,2.23,2.66,2.3,4.53a3.89,3.89,0,0,1-1.46,1.58c-10.19,5.26-15,14.44-18.33,24.83-1.76,5.56-3.52,11.13-5.65,16.58-4.62,11.8-13.88,17.77-25.49,21-7,1.95-14.25,2.33-21.32,3.83A54.34,54.34,0,0,0,690.62,594.42Z" transform="translate(-105.43 -336.18)"/><path class="cls-18" d="M711.8,626a19,19,0,0,0-4.95-6.61,4.06,4.06,0,0,1-.27-2.73,3.39,3.39,0,0,0-1.08-3.52c-1.7-1.61-3.19-3.24-2.16-5.93a4.09,4.09,0,0,0-.37-2.77,9.82,9.82,0,0,0-8.05-6.33c-2.48-.4-3.67-1.48-4.3-3.66-.92-2.69-3-3.78-5.65-4.18a25.6,25.6,0,0,0-6-.94,2,2,0,0,1-1.89-1.12,12.93,12.93,0,0,0-17.42-4.53c-1.77,1-3.46,2.17-4.22,4.22-.07,1.37,1.11,1.58,2,2,5,2.67,9.94,5.56,15,8.23a37,37,0,0,1,5.43,3.29c1.5,1.18,2.63,2.65,2.33,4.65s-2,2.74-3.73,3.29a10,10,0,0,1-5,.13c-2.15-.39-2.22-.31-2.08,1.92.18,2.94-1,4.29-4.06,4.41-.64,0-1.46-.18-1.75.56-.53,1.36-3.83,2.19-5.13,3.25-2.76-1.4-6.26-2.38-7.45-1.45s-2.83.67-4.3-.19c-2.11-1.23-2.74-3.28-3.43-5.36a.45.45,0,0,0-.5-.35c-.62.11-1,.61-1.42,1-6.3,5-16.23,4.71-22.16-.51-.69-.7-1.39-1.29-2.25-.21-.4.31-.78.65-1.2.94-3.56,2.46-4.44,6.14-3.93,10,.45,3.58,3,5.49,6.55,6.12,1.36,1,2.81.6,4.14.07,1.57-.63,2.06-.12,2.58,1.38.81,2.34,1.43,4.88,3.67,6.44a20.35,20.35,0,0,0,4.89,6.06c3.05,3,7.13,2.53,10.05-1.1a13.3,13.3,0,0,1,2.58-.26,55.42,55.42,0,0,0,9,8c2.25,1.93,6.47,2.1,9.17.39a2.82,2.82,0,0,0,1.54-2l1.53-3.25c.55-1.1,1.16-1.18,2.15-.36a34.57,34.57,0,0,0,5.87,4.11c1.46.74,2.9,1.68,4.68,1.23,2,.1,4.06.53,6.11.16,5.91-1,8.89-4.31,10.3-11.41,1,.29,2,.61,2.94.85,4.61,1.15,8.49-.49,11.46-3.8C713.56,633.16,713.28,629.5,711.8,626Z" transform="translate(-105.43 -336.18)"/><path class="cls-19" d="M642.18,612.63l-.41-.14c-1.13-1.58-.34-3.41-.69-5.37-1.63,1.08-3.33,1.85-5,2.73a21,21,0,0,1-15,2.29c-1.26-.28-2.46-.38-3.43.7a1.54,1.54,0,0,0-1.81-.32c-5.41-1.16-10.78-2.42-15.66-5.16a1.52,1.52,0,0,1,.44-1.18,4.09,4.09,0,0,0,.33-5,1.47,1.47,0,0,1-.32-1.21c2.79-.41,5.64.13,8.42-.6a7,7,0,0,0,2.39-1,3.14,3.14,0,0,1,1.39-1c4.33-1.74,7.79-4.75,11.25-7.74a22.07,22.07,0,0,1,9.48-4.65,2.46,2.46,0,0,1,2.48.27,4.69,4.69,0,0,1,3.79,2.25,27.33,27.33,0,0,0,3.64,4c-2,6.19-1.11,12.58-1.32,18.89C642.14,611.17,642.18,611.9,642.18,612.63Z" transform="translate(-105.43 -336.18)"/><path class="cls-8" d="M781.9,519.1q-1.15-2.26-2.3-4.53c-.3-7.67,5-10.85,10.89-13.56,2-.94,4.43-.94,6.29-2.34,2,3.37,3.93,6.76,5.94,10.11a38.9,38.9,0,0,0,8.22,9.5,8.62,8.62,0,0,1-8.22,5.15c-.5,0-1.22,0-1.47-.26-1.78-2.06-3.59-.7-5.48-.25C790.48,524.17,785.6,523.7,781.9,519.1Z" transform="translate(-105.43 -336.18)"/><path class="cls-20" d="M655.42,587.87c1.92,1.87,4.49,2.66,6.73,4,5.09,3,10.32,5.76,15.42,8.74,2.34,1.37,3.63,4,3.16,5.73-.56,2.08-3,3.74-5.78,3.95a12.12,12.12,0,0,1-5.11-.61c-.53.68,0,1.19.1,1.73.39,3-1.49,5.15-4.54,5-1,0-1.59-.08-1.91,1.05a3.7,3.7,0,0,1-2.71,2.32c-1.68,1.49-3.27.65-4.87-.16-1.46-1.7-2.92-2-5.08-.85s-5,.06-6.6-2.29a9.3,9.3,0,0,1-1.61-4.47c.13-5.73-.57-11.49.38-17.2.21-1.21.31-2.48,1.48-3.26,2.65-4.73,3.81-5.25,9-3.94A4.11,4.11,0,0,0,655.42,587.87Z" transform="translate(-105.43 -336.18)"/><path class="cls-21" d="M617.73,629.47a8.69,8.69,0,0,0,4.66-.84c.75-.41,1.25-.27,1.37.6.37,2.68,1.87,4.87,3.1,7.17-.58,3.81-.42,7.66-.7,11.48a36.84,36.84,0,0,1-1.16,8.17c-.55,1.77-1.39,3.38-3.39,3.84s-3.45-.65-4.74-2a10.13,10.13,0,0,1-2.28-5c-1.69-7.23-.35-14.13,2.22-20.9C617.13,631.16,617.43,630.31,617.73,629.47Z" transform="translate(-105.43 -336.18)"/><path class="cls-22" d="M633.55,643.57c3.65,2.34,6.94,1.41,10.05-1.11a12.62,12.62,0,0,0-.19,3.47c.15,6.34,1.56,12.62.73,19-.48,3.76-1.77,5.68-4.29,6.09-2.68.44-6.37-1.78-7.41-4.72a25.46,25.46,0,0,1-1.33-12.52C631.64,650.34,632.72,647,633.55,643.57Z" transform="translate(-105.43 -336.18)"/><path class="cls-20" d="M637.05,585.27c-5.75.25-10.08,3.35-14.19,7-3.08,2.7-6.37,5.08-10.41,6.19a8,8,0,0,1-2.11-5.6c.07-.91-.35-1.27-1.16-1.53a4.72,4.72,0,0,1-3.21-3c-1-2.94.14-4.7,3.24-4.8a45.66,45.66,0,0,0,14.09-2.89c2.74-1,5.57-1.92,8.55-1C634.67,580.43,636.84,582,637.05,585.27Z" transform="translate(-105.43 -336.18)"/><path class="cls-23" d="M667.41,645.32c0-.69-.36-1.62.41-2s1.22.58,1.76,1c3.23,2.49,6.42,5,10.53,5.95.35,2.74.72,5.48,1,8.23.44,3.79.57,7.58-.92,11.21-1.38,3.39-4,4.12-7,1.93-3.42-2.55-4.75-6.14-5.06-10.25-.36-4.73-.55-9.46-.44-14.21A2.54,2.54,0,0,0,667.41,645.32Z" transform="translate(-105.43 -336.18)"/><path class="cls-20" d="M721.6,603.46c-2.54-1-4.75-2.27-5.6-5.08-.77-2.55.25-5.61,2.18-6.56A5.43,5.43,0,0,1,725,594c.67,1.09,1.2,1.13,2.25.71a11,11,0,0,1,4.08-.64,5,5,0,0,1,5,2.93,5.44,5.44,0,0,1-1.06,6.25,1.72,1.72,0,0,0-.58,2c.64,2,.82,4.12-1.12,5.59s-4,1-6,0c-1-.53-1.83-1.19-2.74-1.79C722.59,607.89,721.85,605.82,721.6,603.46Z" transform="translate(-105.43 -336.18)"/><path class="cls-24" d="M655.17,650.18c3.85,1.28,7.58,1.83,10.72-1.61.11,5.17,1.21,10.32.14,15.49-.45,2.23-.9,4.44-2.56,6.17-2.67,2.78-6.31,2.1-7.31-1.61A44.28,44.28,0,0,1,655.17,650.18Z" transform="translate(-105.43 -336.18)"/><path class="cls-25" d="M645.22,640.82c-1.25-1.84-.65-3.17.78-4.74a36,36,0,0,0,8.4-14.6c.41-1.44.76-3,2.51-3.57a5,5,0,0,0,4.87.87c1.16,1.8.19,3.6-.27,5.24a43.37,43.37,0,0,1-10.33,18.09,4.73,4.73,0,0,1-2.42,1.43C647.21,643.12,646.42,641.69,645.22,640.82Z" transform="translate(-105.43 -336.18)"/><path class="cls-26" d="M720.6,602.46a18.57,18.57,0,0,0,3.26,5.61c-3.75,3.88-7.81,7.36-12.82,9.55-1.39.61-2.79,1.17-4.19,1.74-.72-.35-1.51-.68-1-1.72.73-1.58.17-3-.32-4.53,5.24-2.27,10.52-4.47,14.17-9.19C720,603.47,720.29,603,720.6,602.46Z" transform="translate(-105.43 -336.18)"/><path class="cls-20" d="M602.64,600c2.27,2.84,2.15,4.73-.45,7.39-2,.67-3.93.77-5.42-1a4.09,4.09,0,0,1-.78-4.66C597.15,599.25,599.89,598.51,602.64,600Z" transform="translate(-105.43 -336.18)"/><path class="cls-27" d="M852.36,380c.14-.51.36-1.35.61-2.18a1.23,1.23,0,0,1,.83-.93c.46-.12,1-.06,1.13.38.45,1.55-.34,2.94-.74,4.37a.81.81,0,0,1-1.12.38C852.32,381.65,852.35,381,852.36,380Z" transform="translate(-105.43 -336.18)"/><path class="cls-28" d="M618.66,612.84c-.23-2.14,1.19-1.81,2.41-1.51a20.28,20.28,0,0,0,13.27-.82,48.92,48.92,0,0,0,8.43-4.55v6.53c-2.29,2.68-5.4,3.86-8.69,4.52a17.68,17.68,0,0,1-13.39-2.26A4.86,4.86,0,0,1,618.66,612.84Z" transform="translate(-105.43 -336.18)"/><path class="cls-14" d="M627,596.39c-.08-1.35.73-2.32,1.41-3.35.3-.44.69-.81,1.26-.45a1,1,0,0,1,.39,1.34,8.42,8.42,0,0,0-1.32,3.4.73.73,0,0,1-1,.62C626.82,597.77,627,597,627,596.39Z" transform="translate(-105.43 -336.18)"/><path class="cls-14" d="M632.21,598.37a3,3,0,0,1,.15-.93c.5-.94.54-2.74,2-2.27,1.31.43.16,1.72,0,2.63-.06.36-.2.69-.27,1.05-.13.58-.28,1.23-1,1.15S632.23,599.17,632.21,598.37Z" transform="translate(-105.43 -336.18)"/><path class="cls-29" d="M188.16,697.28l61.5-75.75c2.12-2.78,4.57-2.61,8.11-2.53l38.15.66a2.87,2.87,0,0,1,2.67,3.88l-45.71,94a8.17,8.17,0,0,1-9.68,4.88c-12.63-3.28-39.82-10.65-53.64-18.44A4.51,4.51,0,0,1,188.16,697.28Z" transform="translate(-105.43 -336.18)"/><path class="cls-30" d="M614.08,706.74l-63.32-79.29c-2.11-2.78-4.56-2.62-8.1-2.54l-39.06,1.55a2.87,2.87,0,0,0-2.67,3.87L549.35,727a8.17,8.17,0,0,0,9.69,4.88c12.62-3.28,39.82-10.64,53.64-18.44A4.5,4.5,0,0,0,614.08,706.74Z" transform="translate(-105.43 -336.18)"/><path class="cls-31" d="M276.57,731.1a6.24,6.24,0,0,1-5.1-8.59l42-94.19s.9-3.54,5.42-3.54,36.17,1.77,36.17,1.77,4.52,0,4.52,3.54c0,3.06-14.14,79.16-18,102.89a6.36,6.36,0,0,1-7.09,5.2Z" transform="translate(-105.43 -336.18)"/><path class="cls-32" d="M528.72,735.52a6.23,6.23,0,0,0,5.1-8.58l-47.43-96s-.91-3.54-5.43-3.54-33.45.88-33.45.88-4.52,0-4.52,3.54c0,3.06,15,79.16,18.92,102.89A6.34,6.34,0,0,0,469,740Z" transform="translate(-105.43 -336.18)"/><path class="cls-33" d="M372.71,634.34l-13,95.42a9,9,0,0,0,9,10h56.44a9,9,0,0,0,9-10.55l-13.79-95.42a9.08,9.08,0,0,0-9-7.29H381.75A9,9,0,0,0,372.71,634.34Z" transform="translate(-105.43 -336.18)"/></g></svg>